<svg width="1747" height="1200" viewBox="0 0 1747 1200" fill="none" xmlns="http://www.w3.org/2000/svg">
<g filter="url(#filter0_d_984_14198)">
<rect x="-0.03125" y="483.24" width="24.9263" height="24.9263" fill="#19FF14"/>
<rect x="40.3242" y="483.24" width="24.9263" height="24.9263" fill="#19FF14"/>
<rect x="80.6836" y="483.24" width="24.9263" height="24.9263" fill="#19FF14"/>
<rect x="121.039" y="483.24" width="24.9263" height="24.9263" fill="#19FF14"/>
<rect x="161.395" y="483.24" width="24.9263" height="24.9263" fill="#19FF14"/>
<rect x="-0.03125" y="522.41" width="24.9263" height="24.9263" fill="#19FF14"/>
<rect x="40.3242" y="522.41" width="24.9263" height="24.9263" fill="#19FF14"/>
<rect x="80.6836" y="522.41" width="24.9263" height="24.9263" fill="#19FF14"/>
<rect x="121.039" y="522.41" width="24.9263" height="24.9263" fill="#19FF14"/>
<rect x="161.395" y="522.41" width="24.9263" height="24.9263" fill="#19FF14"/>
<rect x="-0.03125" y="561.58" width="24.9263" height="24.9263" fill="#19FF14"/>
<rect x="40.3242" y="561.58" width="24.9263" height="24.9263" fill="#19FF14"/>
<rect x="80.6836" y="561.58" width="24.9263" height="24.9263" fill="#19FF14"/>
<rect x="121.039" y="561.58" width="24.9263" height="24.9263" fill="#19FF14"/>
<rect x="161.395" y="561.58" width="24.9263" height="24.9263" fill="#19FF14"/>
<rect x="-0.03125" y="600.75" width="24.9263" height="24.9263" fill="#19FF14"/>
<rect x="40.3242" y="600.75" width="24.9263" height="24.9263" fill="#19FF14"/>
<rect x="80.6836" y="600.75" width="24.9263" height="24.9263" fill="#19FF14"/>
<rect x="121.039" y="600.75" width="24.9263" height="24.9263" fill="#19FF14"/>
<rect x="161.395" y="600.75" width="24.9263" height="24.9263" fill="#19FF14"/>
<rect x="-0.03125" y="639.92" width="24.9263" height="24.9263" fill="#19FF14"/>
<rect x="40.3242" y="639.92" width="24.9263" height="24.9263" fill="#19FF14"/>
<rect x="80.6836" y="639.92" width="24.9263" height="24.9263" fill="#19FF14"/>
<rect x="121.039" y="639.92" width="24.9263" height="24.9263" fill="#19FF14"/>
<rect x="161.395" y="639.92" width="24.9263" height="24.9263" fill="#19FF14"/>
<rect x="-0.03125" y="679.09" width="24.9263" height="24.9263" fill="#19FF14"/>
<rect x="40.3242" y="679.09" width="24.9263" height="24.9263" fill="#19FF14"/>
<rect x="80.6836" y="679.09" width="24.9263" height="24.9263" fill="#19FF14"/>
<rect x="121.039" y="679.09" width="24.9263" height="24.9263" fill="#19FF14"/>
<rect x="161.395" y="679.09" width="24.9263" height="24.9263" fill="#19FF14"/>
<rect x="-0.03125" y="718.26" width="24.9263" height="24.9263" fill="#19FF14"/>
<rect x="40.3242" y="718.26" width="24.9263" height="24.9263" fill="#19FF14"/>
<rect x="80.6836" y="718.26" width="24.9263" height="24.9263" fill="#19FF14"/>
<rect x="121.039" y="718.26" width="24.9263" height="24.9263" fill="#19FF14"/>
<rect x="161.395" y="718.26" width="24.9263" height="24.9263" fill="#19FF14"/>
<rect x="-0.03125" y="757.43" width="24.9263" height="24.9263" fill="#19FF14"/>
<rect x="40.3242" y="757.43" width="24.9263" height="24.9263" fill="#19FF14"/>
<rect x="80.6836" y="757.43" width="24.9263" height="24.9263" fill="#19FF14"/>
<rect x="121.039" y="757.43" width="24.9263" height="24.9263" fill="#19FF14"/>
<rect x="161.395" y="757.43" width="24.9263" height="24.9263" fill="#19FF14"/>
<rect x="379.797" y="483.24" width="24.9263" height="24.9263" fill="#19FF14"/>
<rect x="420.152" y="483.24" width="24.9263" height="24.9263" fill="#19FF14"/>
<rect x="460.512" y="483.24" width="24.9263" height="24.9263" fill="#19FF14"/>
<rect x="500.867" y="483.24" width="24.9263" height="24.9263" fill="#19FF14"/>
<rect x="541.223" y="483.24" width="24.9263" height="24.9263" fill="#19FF14"/>
<rect x="581.582" y="483.24" width="24.9263" height="24.9263" fill="#19FF14"/>
<rect x="621.938" y="483.24" width="24.9263" height="24.9263" fill="#19FF14"/>
<rect x="662.293" y="483.24" width="24.9263" height="24.9263" fill="#19FF14"/>
<rect x="379.797" y="522.41" width="24.9263" height="24.9263" fill="#19FF14"/>
<rect x="420.152" y="522.41" width="24.9263" height="24.9263" fill="#19FF14"/>
<rect x="460.512" y="522.41" width="24.9263" height="24.9263" fill="#19FF14"/>
<rect x="500.867" y="522.41" width="24.9263" height="24.9263" fill="#19FF14"/>
<rect x="541.223" y="522.41" width="24.9263" height="24.9263" fill="#19FF14"/>
<rect x="581.582" y="522.41" width="24.9263" height="24.9263" fill="#19FF14"/>
<rect x="621.938" y="522.41" width="24.9263" height="24.9263" fill="#19FF14"/>
<rect x="662.293" y="522.41" width="24.9263" height="24.9263" fill="#19FF14"/>
<rect x="379.797" y="561.58" width="24.9263" height="24.9263" fill="#19FF14"/>
<rect x="420.152" y="561.58" width="24.9263" height="24.9263" fill="#19FF14"/>
<rect x="460.512" y="561.58" width="24.9263" height="24.9263" fill="#19FF14"/>
<rect x="500.867" y="561.58" width="24.9263" height="24.9263" fill="#19FF14"/>
<rect x="541.223" y="561.58" width="24.9263" height="24.9263" fill="#19FF14"/>
<rect x="581.582" y="561.58" width="24.9263" height="24.9263" fill="#19FF14"/>
<rect x="621.938" y="561.58" width="24.9263" height="24.9263" fill="#19FF14"/>
<rect x="662.293" y="561.58" width="24.9263" height="24.9263" fill="#19FF14"/>
<rect x="379.797" y="600.75" width="24.9263" height="24.9263" fill="#19FF14"/>
<rect x="420.152" y="600.75" width="24.9263" height="24.9263" fill="#19FF14"/>
<rect x="460.512" y="600.75" width="24.9263" height="24.9263" fill="#19FF14"/>
<rect x="500.867" y="600.75" width="24.9263" height="24.9263" fill="#19FF14"/>
<rect x="541.223" y="600.75" width="24.9263" height="24.9263" fill="#19FF14"/>
<rect x="581.582" y="600.75" width="24.9263" height="24.9263" fill="#19FF14"/>
<rect x="621.938" y="600.75" width="24.9263" height="24.9263" fill="#19FF14"/>
<rect x="662.293" y="600.75" width="24.9263" height="24.9263" fill="#19FF14"/>
<rect x="379.797" y="639.92" width="24.9263" height="24.9263" fill="#19FF14"/>
<rect x="420.152" y="639.92" width="24.9263" height="24.9263" fill="#19FF14"/>
<rect x="460.512" y="639.92" width="24.9263" height="24.9263" fill="#19FF14"/>
<rect x="500.867" y="639.92" width="24.9263" height="24.9263" fill="#19FF14"/>
<rect x="541.223" y="639.92" width="24.9263" height="24.9263" fill="#19FF14"/>
<rect x="581.582" y="639.92" width="24.9263" height="24.9263" fill="#19FF14"/>
<rect x="621.938" y="639.92" width="24.9263" height="24.9263" fill="#19FF14"/>
<rect x="662.293" y="639.92" width="24.9263" height="24.9263" fill="#19FF14"/>
<rect x="379.797" y="679.09" width="24.9263" height="24.9263" fill="#19FF14"/>
<rect x="420.152" y="679.09" width="24.9263" height="24.9263" fill="#19FF14"/>
<rect x="460.512" y="679.09" width="24.9263" height="24.9263" fill="#19FF14"/>
<rect x="500.867" y="679.09" width="24.9263" height="24.9263" fill="#19FF14"/>
<rect x="541.223" y="679.09" width="24.9263" height="24.9263" fill="#19FF14"/>
<rect x="581.582" y="679.09" width="24.9263" height="24.9263" fill="#19FF14"/>
<rect x="621.938" y="679.09" width="24.9263" height="24.9263" fill="#19FF14"/>
<rect x="662.293" y="679.09" width="24.9263" height="24.9263" fill="#19FF14"/>
<rect x="379.797" y="718.26" width="24.9263" height="24.9263" fill="#19FF14"/>
<rect x="420.152" y="718.26" width="24.9263" height="24.9263" fill="#19FF14"/>
<rect x="460.512" y="718.26" width="24.9263" height="24.9263" fill="#19FF14"/>
<rect x="500.867" y="718.26" width="24.9263" height="24.9263" fill="#19FF14"/>
<rect x="541.223" y="718.26" width="24.9263" height="24.9263" fill="#19FF14"/>
<rect x="581.582" y="718.26" width="24.9263" height="24.9263" fill="#19FF14"/>
<rect x="621.938" y="718.26" width="24.9263" height="24.9263" fill="#19FF14"/>
<rect x="662.293" y="718.26" width="24.9263" height="24.9263" fill="#19FF14"/>
<rect x="379.797" y="757.43" width="24.9263" height="24.9263" fill="#19FF14"/>
<rect x="420.152" y="757.43" width="24.9263" height="24.9263" fill="#19FF14"/>
<rect x="460.512" y="757.43" width="24.9263" height="24.9263" fill="#19FF14"/>
<rect x="500.867" y="757.43" width="24.9263" height="24.9263" fill="#19FF14"/>
<rect x="541.223" y="757.43" width="24.9263" height="24.9263" fill="#19FF14"/>
<rect x="581.582" y="757.43" width="24.9263" height="24.9263" fill="#19FF14"/>
<rect x="621.938" y="757.43" width="24.9263" height="24.9263" fill="#19FF14"/>
<rect x="662.293" y="757.43" width="24.9263" height="24.9263" fill="#19FF14"/>
</g>
<g filter="url(#filter1_d_984_14198)">
<rect x="1030.25" y="607.061" width="24.9263" height="24.9263" transform="rotate(-67.518 1030.25 607.061)" fill="#19FF14"/>
<rect x="1045.69" y="569.771" width="24.9263" height="24.9263" transform="rotate(-67.518 1045.69 569.771)" fill="#19FF14"/>
<rect x="1061.12" y="532.48" width="24.9263" height="24.9263" transform="rotate(-67.518 1061.12 532.48)" fill="#19FF14"/>
<rect x="1076.55" y="495.191" width="24.9263" height="24.9263" transform="rotate(-67.518 1076.55 495.191)" fill="#19FF14"/>
<rect x="1091.98" y="457.902" width="24.9263" height="24.9263" transform="rotate(-67.518 1091.98 457.902)" fill="#19FF14"/>
<rect x="1107.41" y="420.611" width="24.9263" height="24.9263" transform="rotate(-67.518 1107.41 420.611)" fill="#19FF14"/>
<rect x="1122.85" y="383.322" width="24.9263" height="24.9263" transform="rotate(-67.518 1122.85 383.322)" fill="#19FF14"/>
<rect x="1138.28" y="346.033" width="24.9263" height="24.9263" transform="rotate(-67.518 1138.28 346.033)" fill="#19FF14"/>
<rect x="1066.45" y="622.039" width="24.9263" height="24.9263" transform="rotate(-67.518 1066.45 622.039)" fill="#19FF14"/>
<rect x="1081.88" y="584.75" width="24.9263" height="24.9263" transform="rotate(-67.518 1081.88 584.75)" fill="#19FF14"/>
<rect x="1097.31" y="547.459" width="24.9263" height="24.9263" transform="rotate(-67.518 1097.31 547.459)" fill="#19FF14"/>
<rect x="1112.74" y="510.17" width="24.9263" height="24.9263" transform="rotate(-67.518 1112.74 510.17)" fill="#19FF14"/>
<rect x="1128.18" y="472.881" width="24.9263" height="24.9263" transform="rotate(-67.518 1128.18 472.881)" fill="#19FF14"/>
<rect x="1143.61" y="435.59" width="24.9263" height="24.9263" transform="rotate(-67.518 1143.61 435.59)" fill="#19FF14"/>
<rect x="1159.04" y="398.301" width="24.9263" height="24.9263" transform="rotate(-67.518 1159.04 398.301)" fill="#19FF14"/>
<rect x="1174.47" y="361.012" width="24.9263" height="24.9263" transform="rotate(-67.518 1174.47 361.012)" fill="#19FF14"/>
<rect x="1102.64" y="637.018" width="24.9263" height="24.9263" transform="rotate(-67.518 1102.64 637.018)" fill="#19FF14"/>
<rect x="1118.07" y="599.729" width="24.9263" height="24.9263" transform="rotate(-67.518 1118.07 599.729)" fill="#19FF14"/>
<rect x="1133.5" y="562.438" width="24.9263" height="24.9263" transform="rotate(-67.518 1133.5 562.438)" fill="#19FF14"/>
<rect x="1148.94" y="525.148" width="24.9263" height="24.9263" transform="rotate(-67.518 1148.94 525.148)" fill="#19FF14"/>
<rect x="1164.37" y="487.859" width="24.9263" height="24.9263" transform="rotate(-67.518 1164.37 487.859)" fill="#19FF14"/>
<rect x="1179.8" y="450.568" width="24.9263" height="24.9263" transform="rotate(-67.518 1179.8 450.568)" fill="#19FF14"/>
<rect x="1195.23" y="413.279" width="24.9263" height="24.9263" transform="rotate(-67.518 1195.23 413.279)" fill="#19FF14"/>
<rect x="1210.66" y="375.99" width="24.9263" height="24.9263" transform="rotate(-67.518 1210.66 375.99)" fill="#19FF14"/>
<rect x="1138.83" y="651.996" width="24.9263" height="24.9263" transform="rotate(-67.518 1138.83 651.996)" fill="#19FF14"/>
<rect x="1154.27" y="614.707" width="24.9263" height="24.9263" transform="rotate(-67.518 1154.27 614.707)" fill="#19FF14"/>
<rect x="1169.7" y="577.416" width="24.9263" height="24.9263" transform="rotate(-67.518 1169.7 577.416)" fill="#19FF14"/>
<rect x="1185.13" y="540.127" width="24.9263" height="24.9263" transform="rotate(-67.518 1185.13 540.127)" fill="#19FF14"/>
<rect x="1200.56" y="502.838" width="24.9263" height="24.9263" transform="rotate(-67.518 1200.56 502.838)" fill="#19FF14"/>
<rect x="1215.99" y="465.547" width="24.9263" height="24.9263" transform="rotate(-67.518 1215.99 465.547)" fill="#19FF14"/>
<rect x="1231.43" y="428.258" width="24.9263" height="24.9263" transform="rotate(-67.518 1231.43 428.258)" fill="#19FF14"/>
<rect x="1246.86" y="390.969" width="24.9263" height="24.9263" transform="rotate(-67.518 1246.86 390.969)" fill="#19FF14"/>
<rect x="1175.03" y="666.975" width="24.9263" height="24.9263" transform="rotate(-67.518 1175.03 666.975)" fill="#19FF14"/>
<rect x="1190.46" y="629.686" width="24.9263" height="24.9263" transform="rotate(-67.518 1190.46 629.686)" fill="#19FF14"/>
<rect x="1205.89" y="592.395" width="24.9263" height="24.9263" transform="rotate(-67.518 1205.89 592.395)" fill="#19FF14"/>
<rect x="1221.32" y="555.105" width="24.9263" height="24.9263" transform="rotate(-67.518 1221.32 555.105)" fill="#19FF14"/>
<rect x="1236.76" y="517.816" width="24.9263" height="24.9263" transform="rotate(-67.518 1236.76 517.816)" fill="#19FF14"/>
<rect x="1252.19" y="480.525" width="24.9263" height="24.9263" transform="rotate(-67.518 1252.19 480.525)" fill="#19FF14"/>
<rect x="1267.62" y="443.236" width="24.9263" height="24.9263" transform="rotate(-67.518 1267.62 443.236)" fill="#19FF14"/>
<rect x="1283.05" y="405.947" width="24.9263" height="24.9263" transform="rotate(-67.518 1283.05 405.947)" fill="#19FF14"/>
<rect x="1211.22" y="681.951" width="24.9263" height="24.9263" transform="rotate(-67.518 1211.22 681.951)" fill="#19FF14"/>
<rect x="1226.65" y="644.662" width="24.9263" height="24.9263" transform="rotate(-67.518 1226.65 644.662)" fill="#19FF14"/>
<rect x="1242.08" y="607.371" width="24.9263" height="24.9263" transform="rotate(-67.518 1242.08 607.371)" fill="#19FF14"/>
<rect x="1257.52" y="570.082" width="24.9263" height="24.9263" transform="rotate(-67.518 1257.52 570.082)" fill="#19FF14"/>
<rect x="1272.95" y="532.793" width="24.9263" height="24.9263" transform="rotate(-67.518 1272.95 532.793)" fill="#19FF14"/>
<rect x="1288.38" y="495.502" width="24.9263" height="24.9263" transform="rotate(-67.518 1288.38 495.502)" fill="#19FF14"/>
<rect x="1303.81" y="458.213" width="24.9263" height="24.9263" transform="rotate(-67.518 1303.81 458.213)" fill="#19FF14"/>
<rect x="1319.24" y="420.924" width="24.9263" height="24.9263" transform="rotate(-67.518 1319.24 420.924)" fill="#19FF14"/>
<rect x="1247.41" y="696.93" width="24.9263" height="24.9263" transform="rotate(-67.518 1247.41 696.93)" fill="#19FF14"/>
<rect x="1262.84" y="659.641" width="24.9263" height="24.9263" transform="rotate(-67.518 1262.84 659.641)" fill="#19FF14"/>
<rect x="1278.27" y="622.35" width="24.9263" height="24.9263" transform="rotate(-67.518 1278.27 622.35)" fill="#19FF14"/>
<rect x="1293.71" y="585.061" width="24.9263" height="24.9263" transform="rotate(-67.518 1293.71 585.061)" fill="#19FF14"/>
<rect x="1309.14" y="547.771" width="24.9263" height="24.9263" transform="rotate(-67.518 1309.14 547.771)" fill="#19FF14"/>
<rect x="1324.57" y="510.48" width="24.9263" height="24.9263" transform="rotate(-67.518 1324.57 510.48)" fill="#19FF14"/>
<rect x="1340" y="473.191" width="24.9263" height="24.9263" transform="rotate(-67.518 1340 473.191)" fill="#19FF14"/>
<rect x="1355.43" y="435.902" width="24.9263" height="24.9263" transform="rotate(-67.518 1355.43 435.902)" fill="#19FF14"/>
<rect x="1283.61" y="711.908" width="24.9263" height="24.9263" transform="rotate(-67.518 1283.61 711.908)" fill="#19FF14"/>
<rect x="1299.04" y="674.619" width="24.9263" height="24.9263" transform="rotate(-67.518 1299.04 674.619)" fill="#19FF14"/>
<rect x="1314.47" y="637.328" width="24.9263" height="24.9263" transform="rotate(-67.518 1314.47 637.328)" fill="#19FF14"/>
<rect x="1329.9" y="600.039" width="24.9263" height="24.9263" transform="rotate(-67.518 1329.9 600.039)" fill="#19FF14"/>
<rect x="1345.34" y="562.75" width="24.9263" height="24.9263" transform="rotate(-67.518 1345.34 562.75)" fill="#19FF14"/>
<rect x="1360.77" y="525.459" width="24.9263" height="24.9263" transform="rotate(-67.518 1360.77 525.459)" fill="#19FF14"/>
<rect x="1376.2" y="488.17" width="24.9263" height="24.9263" transform="rotate(-67.518 1376.2 488.17)" fill="#19FF14"/>
<rect x="1391.63" y="450.881" width="24.9263" height="24.9263" transform="rotate(-67.518 1391.63 450.881)" fill="#19FF14"/>
</g>
<g filter="url(#filter2_d_984_14198)">
<rect x="-0.03125" y="965.148" width="24.9263" height="24.9263" fill="#19FF14"/>
<rect x="40.3242" y="965.148" width="24.9263" height="24.9263" fill="#19FF14"/>
<rect x="80.6836" y="965.148" width="24.9263" height="24.9263" fill="#19FF14"/>
<rect x="121.039" y="965.148" width="24.9263" height="24.9263" fill="#19FF14"/>
<rect x="161.395" y="965.148" width="24.9263" height="24.9263" fill="#19FF14"/>
<rect x="-0.03125" y="1004.32" width="24.9263" height="24.9263" fill="#19FF14"/>
<rect x="40.3242" y="1004.32" width="24.9263" height="24.9263" fill="#19FF14"/>
<rect x="80.6836" y="1004.32" width="24.9263" height="24.9263" fill="#19FF14"/>
<rect x="121.039" y="1004.32" width="24.9263" height="24.9263" fill="#19FF14"/>
<rect x="161.395" y="1004.32" width="24.9263" height="24.9263" fill="#19FF14"/>
<rect x="-0.03125" y="1043.49" width="24.9263" height="24.9263" fill="#19FF14"/>
<rect x="40.3242" y="1043.49" width="24.9263" height="24.9263" fill="#19FF14"/>
<rect x="80.6836" y="1043.49" width="24.9263" height="24.9263" fill="#19FF14"/>
<rect x="121.039" y="1043.49" width="24.9263" height="24.9263" fill="#19FF14"/>
<rect x="161.395" y="1043.49" width="24.9263" height="24.9263" fill="#19FF14"/>
<rect x="-0.03125" y="1082.66" width="24.9263" height="24.9263" fill="#19FF14"/>
<rect x="40.3242" y="1082.66" width="24.9263" height="24.9263" fill="#19FF14"/>
<rect x="80.6836" y="1082.66" width="24.9263" height="24.9263" fill="#19FF14"/>
<rect x="121.039" y="1082.66" width="24.9263" height="24.9263" fill="#19FF14"/>
<rect x="161.395" y="1082.66" width="24.9263" height="24.9263" fill="#19FF14"/>
<rect x="-0.03125" y="1121.83" width="24.9263" height="24.9263" fill="#19FF14"/>
<rect x="40.3242" y="1121.83" width="24.9263" height="24.9263" fill="#19FF14"/>
<rect x="80.6836" y="1121.83" width="24.9263" height="24.9263" fill="#19FF14"/>
<rect x="121.039" y="1121.83" width="24.9263" height="24.9263" fill="#19FF14"/>
<rect x="161.395" y="1121.83" width="24.9263" height="24.9263" fill="#19FF14"/>
<rect x="-0.03125" y="1161" width="24.9263" height="24.9263" fill="#19FF14"/>
<rect x="40.3242" y="1161" width="24.9263" height="24.9263" fill="#19FF14"/>
<rect x="80.6836" y="1161" width="24.9263" height="24.9263" fill="#19FF14"/>
<rect x="121.039" y="1161" width="24.9263" height="24.9263" fill="#19FF14"/>
<rect x="161.395" y="1161" width="24.9263" height="24.9263" fill="#19FF14"/>
<rect x="379.797" y="965.148" width="24.9263" height="24.9263" fill="#19FF14"/>
<rect x="420.152" y="965.148" width="24.9263" height="24.9263" fill="#19FF14"/>
<rect x="460.512" y="965.148" width="24.9263" height="24.9263" fill="#19FF14"/>
<rect x="500.867" y="965.148" width="24.9263" height="24.9263" fill="#19FF14"/>
<rect x="541.223" y="965.148" width="24.9263" height="24.9263" fill="#19FF14"/>
<rect x="581.582" y="965.148" width="24.9263" height="24.9263" fill="#19FF14"/>
<rect x="621.938" y="965.148" width="24.9263" height="24.9263" fill="#19FF14"/>
<rect x="662.293" y="965.148" width="24.9263" height="24.9263" fill="#19FF14"/>
<rect x="379.797" y="1004.32" width="24.9263" height="24.9263" fill="#19FF14"/>
<rect x="420.152" y="1004.32" width="24.9263" height="24.9263" fill="#19FF14"/>
<rect x="460.512" y="1004.32" width="24.9263" height="24.9263" fill="#19FF14"/>
<rect x="500.867" y="1004.32" width="24.9263" height="24.9263" fill="#19FF14"/>
<rect x="541.223" y="1004.32" width="24.9263" height="24.9263" fill="#19FF14"/>
<rect x="581.582" y="1004.32" width="24.9263" height="24.9263" fill="#19FF14"/>
<rect x="621.938" y="1004.32" width="24.9263" height="24.9263" fill="#19FF14"/>
<rect x="662.293" y="1004.32" width="24.9263" height="24.9263" fill="#19FF14"/>
<rect x="379.797" y="1043.49" width="24.9263" height="24.9263" fill="#19FF14"/>
<rect x="420.152" y="1043.49" width="24.9263" height="24.9263" fill="#19FF14"/>
<rect x="460.512" y="1043.49" width="24.9263" height="24.9263" fill="#19FF14"/>
<rect x="500.867" y="1043.49" width="24.9263" height="24.9263" fill="#19FF14"/>
<rect x="541.223" y="1043.49" width="24.9263" height="24.9263" fill="#19FF14"/>
<rect x="581.582" y="1043.49" width="24.9263" height="24.9263" fill="#19FF14"/>
<rect x="621.938" y="1043.49" width="24.9263" height="24.9263" fill="#19FF14"/>
<rect x="662.293" y="1043.49" width="24.9263" height="24.9263" fill="#19FF14"/>
<rect x="379.797" y="1082.66" width="24.9263" height="24.9263" fill="#19FF14"/>
<rect x="420.152" y="1082.66" width="24.9263" height="24.9263" fill="#19FF14"/>
<rect x="460.512" y="1082.66" width="24.9263" height="24.9263" fill="#19FF14"/>
<rect x="500.867" y="1082.66" width="24.9263" height="24.9263" fill="#19FF14"/>
<rect x="541.223" y="1082.66" width="24.9263" height="24.9263" fill="#19FF14"/>
<rect x="581.582" y="1082.66" width="24.9263" height="24.9263" fill="#19FF14"/>
<rect x="621.938" y="1082.66" width="24.9263" height="24.9263" fill="#19FF14"/>
<rect x="662.293" y="1082.66" width="24.9263" height="24.9263" fill="#19FF14"/>
<rect x="379.797" y="1121.83" width="24.9263" height="24.9263" fill="#19FF14"/>
<rect x="420.152" y="1121.83" width="24.9263" height="24.9263" fill="#19FF14"/>
<rect x="460.512" y="1121.83" width="24.9263" height="24.9263" fill="#19FF14"/>
<rect x="500.867" y="1121.83" width="24.9263" height="24.9263" fill="#19FF14"/>
<rect x="541.223" y="1121.83" width="24.9263" height="24.9263" fill="#19FF14"/>
<rect x="581.582" y="1121.83" width="24.9263" height="24.9263" fill="#19FF14"/>
<rect x="621.938" y="1121.83" width="24.9263" height="24.9263" fill="#19FF14"/>
<rect x="662.293" y="1121.83" width="24.9263" height="24.9263" fill="#19FF14"/>
<rect x="379.797" y="1161" width="24.9263" height="24.9263" fill="#19FF14"/>
<rect x="420.152" y="1161" width="24.9263" height="24.9263" fill="#19FF14"/>
<rect x="460.512" y="1161" width="24.9263" height="24.9263" fill="#19FF14"/>
<rect x="500.867" y="1161" width="24.9263" height="24.9263" fill="#19FF14"/>
<rect x="541.223" y="1161" width="24.9263" height="24.9263" fill="#19FF14"/>
<rect x="581.582" y="1161" width="24.9263" height="24.9263" fill="#19FF14"/>
<rect x="621.938" y="1161" width="24.9263" height="24.9263" fill="#19FF14"/>
<rect x="662.293" y="1161" width="24.9263" height="24.9263" fill="#19FF14"/>
<rect x="880.695" y="965.148" width="24.9263" height="24.9263" fill="#19FF14"/>
<rect x="921.051" y="965.148" width="24.9263" height="24.9263" fill="#19FF14"/>
<rect x="961.41" y="965.148" width="24.9263" height="24.9263" fill="#19FF14"/>
<rect x="1001.77" y="965.148" width="24.9263" height="24.9263" fill="#19FF14"/>
<rect x="1042.12" y="965.148" width="24.9263" height="24.9263" fill="#19FF14"/>
<rect x="1082.48" y="965.148" width="24.9263" height="24.9263" fill="#19FF14"/>
<rect x="1122.84" y="965.148" width="24.9263" height="24.9263" fill="#19FF14"/>
<rect x="1163.19" y="965.148" width="24.9263" height="24.9263" fill="#19FF14"/>
<rect x="880.695" y="1004.32" width="24.9263" height="24.9263" fill="#19FF14"/>
<rect x="921.051" y="1004.32" width="24.9263" height="24.9263" fill="#19FF14"/>
<rect x="961.41" y="1004.32" width="24.9263" height="24.9263" fill="#19FF14"/>
<rect x="1001.77" y="1004.32" width="24.9263" height="24.9263" fill="#19FF14"/>
<rect x="1042.12" y="1004.32" width="24.9263" height="24.9263" fill="#19FF14"/>
<rect x="1082.48" y="1004.32" width="24.9263" height="24.9263" fill="#19FF14"/>
<rect x="1122.84" y="1004.32" width="24.9263" height="24.9263" fill="#19FF14"/>
<rect x="1163.19" y="1004.32" width="24.9263" height="24.9263" fill="#19FF14"/>
<rect x="880.695" y="1043.49" width="24.9263" height="24.9263" fill="#19FF14"/>
<rect x="921.051" y="1043.49" width="24.9263" height="24.9263" fill="#19FF14"/>
<rect x="961.41" y="1043.49" width="24.9263" height="24.9263" fill="#19FF14"/>
<rect x="1001.77" y="1043.49" width="24.9263" height="24.9263" fill="#19FF14"/>
<rect x="1042.12" y="1043.49" width="24.9263" height="24.9263" fill="#19FF14"/>
<rect x="1082.48" y="1043.49" width="24.9263" height="24.9263" fill="#19FF14"/>
<rect x="1122.84" y="1043.49" width="24.9263" height="24.9263" fill="#19FF14"/>
<rect x="1163.19" y="1043.49" width="24.9263" height="24.9263" fill="#19FF14"/>
<rect x="880.695" y="1082.66" width="24.9263" height="24.9263" fill="#19FF14"/>
<rect x="921.051" y="1082.66" width="24.9263" height="24.9263" fill="#19FF14"/>
<rect x="961.41" y="1082.66" width="24.9263" height="24.9263" fill="#19FF14"/>
<rect x="1001.77" y="1082.66" width="24.9263" height="24.9263" fill="#19FF14"/>
<rect x="1042.12" y="1082.66" width="24.9263" height="24.9263" fill="#19FF14"/>
<rect x="1082.48" y="1082.66" width="24.9263" height="24.9263" fill="#19FF14"/>
<rect x="1122.84" y="1082.66" width="24.9263" height="24.9263" fill="#19FF14"/>
<rect x="1163.19" y="1082.66" width="24.9263" height="24.9263" fill="#19FF14"/>
<rect x="880.695" y="1121.83" width="24.9263" height="24.9263" fill="#19FF14"/>
<rect x="921.051" y="1121.83" width="24.9263" height="24.9263" fill="#19FF14"/>
<rect x="961.41" y="1121.83" width="24.9263" height="24.9263" fill="#19FF14"/>
<rect x="1001.77" y="1121.83" width="24.9263" height="24.9263" fill="#19FF14"/>
<rect x="1042.12" y="1121.83" width="24.9263" height="24.9263" fill="#19FF14"/>
<rect x="1082.48" y="1121.83" width="24.9263" height="24.9263" fill="#19FF14"/>
<rect x="1122.84" y="1121.83" width="24.9263" height="24.9263" fill="#19FF14"/>
<rect x="1163.19" y="1121.83" width="24.9263" height="24.9263" fill="#19FF14"/>
<rect x="880.695" y="1161" width="24.9263" height="24.9263" fill="#19FF14"/>
<rect x="921.051" y="1161" width="24.9263" height="24.9263" fill="#19FF14"/>
<rect x="961.41" y="1161" width="24.9263" height="24.9263" fill="#19FF14"/>
<rect x="1001.77" y="1161" width="24.9263" height="24.9263" fill="#19FF14"/>
<rect x="1042.12" y="1161" width="24.9263" height="24.9263" fill="#19FF14"/>
<rect x="1082.48" y="1161" width="24.9263" height="24.9263" fill="#19FF14"/>
<rect x="1122.84" y="1161" width="24.9263" height="24.9263" fill="#19FF14"/>
<rect x="1163.19" y="1161" width="24.9263" height="24.9263" fill="#19FF14"/>
</g>
<g filter="url(#filter3_d_984_14198)">
</g>
<defs>
<filter id="filter0_d_984_14198" x="-944.412" y="160.828" width="1954.05" height="943.939" filterUnits="userSpaceOnUse" color-interpolation-filters="sRGB">
<feFlood flood-opacity="0" result="BackgroundImageFix"/>
<feColorMatrix in="SourceAlpha" type="matrix" values="0 0 0 0 0 0 0 0 0 0 0 0 0 0 0 0 0 0 127 0" result="hardAlpha"/>
<feOffset/>
<feGaussianBlur stdDeviation="161.206"/>
<feComposite in2="hardAlpha" operator="out"/>
<feColorMatrix type="matrix" values="0 0 0 0 0.0980392 0 0 0 0 1 0 0 0 0 0.0784314 0 0 0 1 0"/>
<feBlend mode="normal" in2="BackgroundImageFix" result="effect1_dropShadow_984_14198"/>
<feBlend mode="normal" in="SourceGraphic" in2="effect1_dropShadow_984_14198" result="shape"/>
</filter>
<filter id="filter1_d_984_14198" x="707.842" y="0.589874" width="1038.77" height="1043.26" filterUnits="userSpaceOnUse" color-interpolation-filters="sRGB">
<feFlood flood-opacity="0" result="BackgroundImageFix"/>
<feColorMatrix in="SourceAlpha" type="matrix" values="0 0 0 0 0 0 0 0 0 0 0 0 0 0 0 0 0 0 127 0" result="hardAlpha"/>
<feOffset/>
<feGaussianBlur stdDeviation="161.206"/>
<feComposite in2="hardAlpha" operator="out"/>
<feColorMatrix type="matrix" values="0 0 0 0 0.0980392 0 0 0 0 1 0 0 0 0 0.0784314 0 0 0 1 0"/>
<feBlend mode="normal" in2="BackgroundImageFix" result="effect1_dropShadow_984_14198"/>
<feBlend mode="normal" in="SourceGraphic" in2="effect1_dropShadow_984_14198" result="shape"/>
</filter>
<filter id="filter2_d_984_14198" x="-944.412" y="642.736" width="2454.95" height="943.939" filterUnits="userSpaceOnUse" color-interpolation-filters="sRGB">
<feFlood flood-opacity="0" result="BackgroundImageFix"/>
<feColorMatrix in="SourceAlpha" type="matrix" values="0 0 0 0 0 0 0 0 0 0 0 0 0 0 0 0 0 0 127 0" result="hardAlpha"/>
<feOffset/>
<feGaussianBlur stdDeviation="161.206"/>
<feComposite in2="hardAlpha" operator="out"/>
<feColorMatrix type="matrix" values="0 0 0 0 0.0980392 0 0 0 0 1 0 0 0 0 0.0784314 0 0 0 1 0"/>
<feBlend mode="normal" in2="BackgroundImageFix" result="effect1_dropShadow_984_14198"/>
<feBlend mode="normal" in="SourceGraphic" in2="effect1_dropShadow_984_14198" result="shape"/>
</filter>
<filter id="filter3_d_984_14198" x="-944.412" y="1124.64" width="2454.95" height="943.939" filterUnits="userSpaceOnUse" color-interpolation-filters="sRGB">
<feFlood flood-opacity="0" result="BackgroundImageFix"/>
<feColorMatrix in="SourceAlpha" type="matrix" values="0 0 0 0 0 0 0 0 0 0 0 0 0 0 0 0 0 0 127 0" result="hardAlpha"/>
<feOffset/>
<feGaussianBlur stdDeviation="161.206"/>
<feComposite in2="hardAlpha" operator="out"/>
<feColorMatrix type="matrix" values="0 0 0 0 0.0980392 0 0 0 0 1 0 0 0 0 0.0784314 0 0 0 1 0"/>
<feBlend mode="normal" in2="BackgroundImageFix" result="effect1_dropShadow_984_14198"/>
<feBlend mode="normal" in="SourceGraphic" in2="effect1_dropShadow_984_14198" result="shape"/>
</filter>
</defs>
</svg>
