<svg width="2992" height="2697" viewBox="0 0 2992 2697" fill="none" xmlns="http://www.w3.org/2000/svg">
<line x1="322.067" y1="0.394043" x2="322.067" y2="2376.81" stroke="white" stroke-width="17.6817"/>
<line x1="2689.64" y1="2385.66" x2="313.227" y2="2385.66" stroke="white" stroke-width="17.6817"/>
<g filter="url(#filter0_d_973_446)">
<path d="M2689.65 1181.52L2601.24 1130.48V1232.57L2689.65 1181.52ZM330.91 1190.37H2610.08V1172.68H330.91V1190.37Z" fill="#19FF14"/>
</g>
<path d="M1042.98 1391.33V1390.25C1042.98 1389.39 1042.68 1388.66 1042.08 1388.05L1038.8 1384.77C1038.22 1384.19 1037.49 1383.91 1036.59 1383.91H1026.1C1025.18 1383.91 1024.44 1384.19 1023.86 1384.77L1020.62 1388.05C1020.02 1388.66 1019.72 1389.39 1019.72 1390.25V1423.32C1019.72 1424.18 1020.02 1424.92 1020.62 1425.52L1023.86 1428.8C1024.46 1429.41 1025.21 1429.71 1026.1 1429.71H1036.59C1037.46 1429.71 1038.19 1429.41 1038.8 1428.8L1042.08 1425.52C1042.68 1424.92 1042.98 1424.18 1042.98 1423.32V1414.86C1042.98 1413.76 1042.59 1412.83 1041.82 1412.05C1041.04 1411.25 1040.11 1410.84 1039.01 1410.84H1033.7C1032.61 1410.84 1031.64 1410.44 1030.81 1409.63C1030 1408.83 1029.6 1407.88 1029.6 1406.79C1029.6 1405.69 1030 1404.76 1030.81 1403.98C1031.62 1403.2 1032.58 1402.81 1033.7 1402.81H1047.04C1048.13 1402.81 1049.07 1403.2 1049.85 1403.98C1050.62 1404.76 1051.01 1405.69 1051.01 1406.79V1426.25C1051.01 1427.41 1050.62 1428.37 1049.85 1429.15L1042.42 1436.49C1041.67 1437.32 1040.71 1437.74 1039.53 1437.74H1023.08C1021.93 1437.74 1020.98 1437.32 1020.23 1436.49L1012.81 1429.15C1012.06 1428.4 1011.69 1427.43 1011.69 1426.25V1387.27C1011.69 1386.12 1012.06 1385.17 1012.81 1384.42L1020.23 1377.09C1020.98 1376.25 1021.93 1375.83 1023.08 1375.83H1039.53C1040.71 1375.83 1041.67 1376.25 1042.42 1377.09L1049.85 1384.42C1050.62 1385.2 1051.01 1386.15 1051.01 1387.27V1391.33C1051.01 1392.43 1050.62 1393.36 1049.85 1394.14C1049.07 1394.91 1048.13 1395.3 1047.04 1395.3C1045.95 1395.3 1045 1394.91 1044.19 1394.14C1043.39 1393.36 1042.98 1392.43 1042.98 1391.33ZM1073.61 1379.85V1425.69C1073.61 1426.79 1074 1427.74 1074.78 1428.54C1075.56 1429.32 1076.49 1429.71 1077.58 1429.71H1100.94C1102.03 1429.71 1102.97 1430.11 1103.74 1430.92C1104.52 1431.72 1104.91 1432.67 1104.91 1433.77C1104.91 1434.86 1104.52 1435.79 1103.74 1436.57C1102.97 1437.35 1102.03 1437.74 1100.94 1437.74H1069.56C1068.46 1437.74 1067.53 1437.35 1066.75 1436.57C1065.97 1435.79 1065.58 1434.86 1065.58 1433.77V1379.85C1065.58 1378.76 1065.97 1377.82 1066.75 1377.04C1067.53 1376.24 1068.46 1375.83 1069.56 1375.83C1070.65 1375.83 1071.6 1376.24 1072.4 1377.04C1073.21 1377.82 1073.61 1378.76 1073.61 1379.85ZM1150.22 1377.09L1157.64 1384.42C1158.42 1385.2 1158.81 1386.15 1158.81 1387.27V1426.34C1158.81 1427.43 1158.42 1428.37 1157.64 1429.15L1150.22 1436.49C1149.47 1437.32 1148.51 1437.74 1147.33 1437.74H1130.88C1129.73 1437.74 1128.78 1437.32 1128.03 1436.49L1120.6 1429.15C1119.86 1428.4 1119.48 1427.46 1119.48 1426.34V1387.27C1119.48 1386.12 1119.86 1385.17 1120.6 1384.42L1128.03 1377.09C1128.78 1376.25 1129.73 1375.83 1130.88 1375.83H1147.33C1148.51 1375.83 1149.47 1376.25 1150.22 1377.09ZM1146.59 1428.8L1149.87 1425.52C1150.48 1424.92 1150.78 1424.18 1150.78 1423.32V1390.25C1150.78 1389.39 1150.48 1388.66 1149.87 1388.05L1146.59 1384.77C1146.02 1384.19 1145.28 1383.91 1144.39 1383.91H1133.9C1132.98 1383.91 1132.23 1384.19 1131.66 1384.77L1128.42 1388.05C1127.81 1388.66 1127.51 1389.39 1127.51 1390.25V1423.32C1127.51 1424.18 1127.81 1424.92 1128.42 1425.52L1131.66 1428.8C1132.26 1429.41 1133.01 1429.71 1133.9 1429.71H1144.39C1145.25 1429.71 1145.99 1429.41 1146.59 1428.8ZM1200.49 1401.95L1203.77 1398.58C1204.38 1397.98 1204.68 1397.25 1204.68 1396.38V1390.25C1204.68 1389.39 1204.38 1388.66 1203.77 1388.05L1200.49 1384.77C1199.91 1384.19 1199.18 1383.91 1198.29 1383.91H1185.38C1184.29 1383.91 1183.35 1384.3 1182.58 1385.07C1181.8 1385.85 1181.41 1386.78 1181.41 1387.88V1398.76C1181.41 1399.85 1181.8 1400.8 1182.58 1401.61C1183.35 1402.41 1184.29 1402.81 1185.38 1402.81H1198.29C1199.18 1402.81 1199.91 1402.53 1200.49 1401.95ZM1200.49 1428.8L1203.77 1425.52C1204.38 1424.92 1204.68 1424.18 1204.68 1423.32V1417.32C1204.68 1416.46 1204.38 1415.72 1203.77 1415.12L1200.49 1411.75C1199.89 1411.15 1199.15 1410.84 1198.29 1410.84H1185.38C1184.29 1410.84 1183.35 1411.25 1182.58 1412.05C1181.8 1412.86 1181.41 1413.82 1181.41 1414.94V1425.69C1181.41 1426.79 1181.8 1427.74 1182.58 1428.54C1183.35 1429.32 1184.29 1429.71 1185.38 1429.71H1198.29C1199.15 1429.71 1199.89 1429.41 1200.49 1428.8ZM1211.54 1402.21L1209.77 1403.98C1209.02 1404.73 1208.65 1405.66 1208.65 1406.79C1208.65 1407.99 1209.02 1408.97 1209.77 1409.72L1211.54 1411.49C1212.32 1412.27 1212.71 1413.2 1212.71 1414.3V1426.25C1212.71 1427.41 1212.32 1428.37 1211.54 1429.15L1204.12 1436.49C1203.37 1437.32 1202.4 1437.74 1201.22 1437.74H1177.35C1176.26 1437.74 1175.32 1437.35 1174.55 1436.57C1173.77 1435.79 1173.38 1434.86 1173.38 1433.77V1379.85C1173.38 1378.76 1173.77 1377.82 1174.55 1377.04C1175.32 1376.24 1176.26 1375.83 1177.35 1375.83H1201.22C1202.4 1375.83 1203.37 1376.25 1204.12 1377.09L1211.54 1384.42C1212.32 1385.2 1212.71 1386.15 1212.71 1387.27V1399.36C1212.71 1400.48 1212.32 1401.43 1211.54 1402.21ZM1266.6 1389.13V1433.77C1266.6 1434.86 1266.22 1435.79 1265.44 1436.57C1264.66 1437.35 1263.73 1437.74 1262.63 1437.74C1261.54 1437.74 1260.59 1437.35 1259.78 1436.57C1258.98 1435.79 1258.58 1434.86 1258.58 1433.77V1416.8C1258.58 1415.71 1258.19 1414.77 1257.41 1413.99C1256.63 1413.19 1255.7 1412.79 1254.6 1412.79H1239.28C1238.19 1412.79 1237.25 1413.19 1236.47 1413.99C1235.7 1414.77 1235.31 1415.71 1235.31 1416.8V1433.77C1235.31 1434.86 1234.9 1435.79 1234.1 1436.57C1233.29 1437.35 1232.34 1437.74 1231.25 1437.74C1230.16 1437.74 1229.22 1437.35 1228.44 1436.57C1227.67 1435.79 1227.28 1434.86 1227.28 1433.77V1389.13C1227.28 1387.98 1227.65 1387.03 1228.4 1386.28L1237.68 1377.09C1238.43 1376.25 1239.38 1375.83 1240.53 1375.83H1253.35C1254.45 1375.83 1255.38 1376.22 1256.16 1377L1265.35 1386.28C1266.19 1387.03 1266.6 1387.98 1266.6 1389.13ZM1258.58 1400.79V1392.11C1258.58 1391.25 1258.27 1390.51 1257.67 1389.91L1252.53 1384.77C1251.96 1384.19 1251.22 1383.91 1250.33 1383.91H1243.55C1242.63 1383.91 1241.88 1384.19 1241.31 1384.77L1236.21 1389.91C1235.61 1390.51 1235.31 1391.25 1235.31 1392.11V1400.79C1235.31 1401.88 1235.7 1402.81 1236.47 1403.59C1237.25 1404.37 1238.19 1404.76 1239.28 1404.76H1254.6C1255.7 1404.76 1256.63 1404.37 1257.41 1403.59C1258.19 1402.81 1258.58 1401.88 1258.58 1400.79ZM1289.21 1379.85V1425.69C1289.21 1426.79 1289.59 1427.74 1290.37 1428.54C1291.15 1429.32 1292.08 1429.71 1293.18 1429.71H1316.53C1317.62 1429.71 1318.56 1430.11 1319.34 1430.92C1320.11 1431.72 1320.5 1432.67 1320.5 1433.77C1320.5 1434.86 1320.11 1435.79 1319.34 1436.57C1318.56 1437.35 1317.62 1437.74 1316.53 1437.74H1285.15C1284.05 1437.74 1283.12 1437.35 1282.34 1436.57C1281.56 1435.79 1281.18 1434.86 1281.18 1433.77V1379.85C1281.18 1378.76 1281.56 1377.82 1282.34 1377.04C1283.12 1376.24 1284.05 1375.83 1285.15 1375.83C1286.24 1375.83 1287.19 1376.24 1288 1377.04C1288.8 1377.82 1289.21 1378.76 1289.21 1379.85ZM1428.3 1379.85V1433.77C1428.3 1434.86 1427.91 1435.79 1427.13 1436.57C1426.36 1437.35 1425.42 1437.74 1424.33 1437.74C1423.15 1437.74 1422.17 1437.36 1421.39 1436.61C1420.64 1435.84 1420.27 1434.89 1420.27 1433.77V1414.86C1420.27 1413.74 1419.88 1412.77 1419.1 1411.97C1418.33 1411.16 1417.39 1410.76 1416.3 1410.76H1400.97C1399.88 1410.76 1398.94 1411.16 1398.17 1411.97C1397.39 1412.77 1397 1413.74 1397 1414.86V1433.77C1397 1434.86 1396.6 1435.79 1395.79 1436.57C1394.99 1437.35 1394.04 1437.74 1392.94 1437.74C1391.85 1437.74 1390.92 1437.35 1390.14 1436.57C1389.36 1435.79 1388.97 1434.86 1388.97 1433.77V1379.85C1388.97 1378.76 1389.36 1377.82 1390.14 1377.04C1390.92 1376.24 1391.85 1375.83 1392.94 1375.83C1394.04 1375.83 1394.99 1376.24 1395.79 1377.04C1396.6 1377.82 1397 1378.76 1397 1379.85V1398.76C1397 1399.85 1397.39 1400.8 1398.17 1401.61C1398.94 1402.41 1399.88 1402.81 1400.97 1402.81H1416.3C1417.39 1402.81 1418.33 1402.41 1419.1 1401.61C1419.88 1400.8 1420.27 1399.85 1420.27 1398.76V1379.85C1420.27 1378.73 1420.64 1377.78 1421.39 1377C1422.17 1376.22 1423.15 1375.83 1424.33 1375.83C1425.42 1375.83 1426.36 1376.24 1427.13 1377.04C1427.91 1377.82 1428.3 1378.76 1428.3 1379.85ZM1482.2 1389.13V1433.77C1482.2 1434.86 1481.81 1435.79 1481.03 1436.57C1480.25 1437.35 1479.32 1437.74 1478.23 1437.74C1477.13 1437.74 1476.18 1437.35 1475.38 1436.57C1474.57 1435.79 1474.17 1434.86 1474.17 1433.77V1416.8C1474.17 1415.71 1473.78 1414.77 1473 1413.99C1472.22 1413.19 1471.29 1412.79 1470.2 1412.79H1454.87C1453.78 1412.79 1452.84 1413.19 1452.07 1413.99C1451.29 1414.77 1450.9 1415.71 1450.9 1416.8V1433.77C1450.9 1434.86 1450.5 1435.79 1449.69 1436.57C1448.89 1437.35 1447.94 1437.74 1446.84 1437.74C1445.75 1437.74 1444.81 1437.35 1444.04 1436.57C1443.26 1435.79 1442.87 1434.86 1442.87 1433.77V1389.13C1442.87 1387.98 1443.24 1387.03 1443.99 1386.28L1453.27 1377.09C1454.02 1376.25 1454.97 1375.83 1456.12 1375.83H1468.94C1470.04 1375.83 1470.97 1376.22 1471.75 1377L1480.94 1386.28C1481.78 1387.03 1482.2 1387.98 1482.2 1389.13ZM1474.17 1400.79V1392.11C1474.17 1391.25 1473.87 1390.51 1473.26 1389.91L1468.12 1384.77C1467.55 1384.19 1466.81 1383.91 1465.92 1383.91H1459.14C1458.22 1383.91 1457.48 1384.19 1456.9 1384.77L1451.81 1389.91C1451.2 1390.51 1450.9 1391.25 1450.9 1392.11V1400.79C1450.9 1401.88 1451.29 1402.81 1452.07 1403.59C1452.84 1404.37 1453.78 1404.76 1454.87 1404.76H1470.2C1471.29 1404.76 1472.22 1404.37 1473 1403.59C1473.78 1402.81 1474.17 1401.88 1474.17 1400.79ZM1528.07 1391.33V1390.25C1528.07 1389.39 1527.76 1388.66 1527.16 1388.05L1523.88 1384.77C1523.3 1384.19 1522.57 1383.91 1521.68 1383.91H1511.19C1510.27 1383.91 1509.52 1384.19 1508.94 1384.77L1505.7 1388.05C1505.1 1388.66 1504.8 1389.39 1504.8 1390.25V1396.38C1504.8 1397.25 1505.1 1397.98 1505.7 1398.58L1508.94 1401.95C1509.52 1402.53 1510.27 1402.81 1511.19 1402.81H1524.7C1525.79 1402.81 1526.73 1403.2 1527.5 1403.98L1534.93 1411.49C1535.71 1412.27 1536.09 1413.2 1536.09 1414.3V1426.34C1536.09 1427.43 1535.71 1428.37 1534.93 1429.15L1527.5 1436.49C1526.76 1437.32 1525.82 1437.74 1524.7 1437.74H1508.17C1507.01 1437.74 1506.06 1437.32 1505.32 1436.49L1497.89 1429.15C1497.14 1428.4 1496.77 1427.46 1496.77 1426.34V1422.28C1496.77 1421.19 1497.16 1420.27 1497.93 1419.52C1498.71 1418.74 1499.65 1418.35 1500.74 1418.35C1501.86 1418.35 1502.81 1418.74 1503.59 1419.52C1504.4 1420.27 1504.8 1421.19 1504.8 1422.28V1423.32C1504.8 1424.18 1505.1 1424.92 1505.7 1425.52L1508.94 1428.8C1509.55 1429.41 1510.29 1429.71 1511.19 1429.71H1521.68C1522.54 1429.71 1523.27 1429.41 1523.88 1428.8L1527.16 1425.52C1527.76 1424.92 1528.07 1424.18 1528.07 1423.32V1417.32C1528.07 1416.46 1527.76 1415.72 1527.16 1415.12L1523.88 1411.75C1523.27 1411.15 1522.54 1410.84 1521.68 1410.84H1508.17C1507.01 1410.84 1506.06 1410.47 1505.32 1409.72L1497.89 1402.21C1497.14 1401.46 1496.77 1400.51 1496.77 1399.36V1387.27C1496.77 1386.12 1497.14 1385.17 1497.89 1384.42L1505.32 1377.09C1506.06 1376.25 1507.01 1375.83 1508.17 1375.83H1524.7C1525.82 1375.83 1526.76 1376.25 1527.5 1377.09L1534.93 1384.42C1535.71 1385.2 1536.09 1386.15 1536.09 1387.27V1391.33C1536.09 1392.43 1535.71 1393.36 1534.93 1394.14C1534.15 1394.91 1533.22 1395.3 1532.12 1395.3C1531.03 1395.3 1530.08 1394.91 1529.27 1394.14C1528.47 1393.36 1528.07 1392.43 1528.07 1391.33ZM1589.99 1379.85V1433.77C1589.99 1434.86 1589.6 1435.79 1588.83 1436.57C1588.05 1437.35 1587.12 1437.74 1586.02 1437.74C1584.84 1437.74 1583.86 1437.36 1583.09 1436.61C1582.34 1435.84 1581.96 1434.89 1581.96 1433.77V1414.86C1581.96 1413.74 1581.58 1412.77 1580.8 1411.97C1580.02 1411.16 1579.09 1410.76 1577.99 1410.76H1562.67C1561.57 1410.76 1560.64 1411.16 1559.86 1411.97C1559.08 1412.77 1558.7 1413.74 1558.7 1414.86V1433.77C1558.7 1434.86 1558.29 1435.79 1557.49 1436.57C1556.68 1437.35 1555.73 1437.74 1554.64 1437.74C1553.54 1437.74 1552.61 1437.35 1551.83 1436.57C1551.06 1435.79 1550.67 1434.86 1550.67 1433.77V1379.85C1550.67 1378.76 1551.06 1377.82 1551.83 1377.04C1552.61 1376.24 1553.54 1375.83 1554.64 1375.83C1555.73 1375.83 1556.68 1376.24 1557.49 1377.04C1558.29 1377.82 1558.7 1378.76 1558.7 1379.85V1398.76C1558.7 1399.85 1559.08 1400.8 1559.86 1401.61C1560.64 1402.41 1561.57 1402.81 1562.67 1402.81H1577.99C1579.09 1402.81 1580.02 1402.41 1580.8 1401.61C1581.58 1400.8 1581.96 1399.85 1581.96 1398.76V1379.85C1581.96 1378.73 1582.34 1377.78 1583.09 1377C1583.86 1376.22 1584.84 1375.83 1586.02 1375.83C1587.12 1375.83 1588.05 1376.24 1588.83 1377.04C1589.6 1377.82 1589.99 1378.76 1589.99 1379.85ZM1627.62 1412.79H1616.57C1615.47 1412.79 1614.54 1413.19 1613.76 1413.99C1612.98 1414.77 1612.59 1415.71 1612.59 1416.8V1433.77C1612.59 1434.86 1612.19 1435.79 1611.39 1436.57C1610.58 1437.35 1609.63 1437.74 1608.54 1437.74C1607.44 1437.74 1606.51 1437.35 1605.73 1436.57C1604.95 1435.79 1604.56 1434.86 1604.56 1433.77V1379.85C1604.56 1378.76 1604.95 1377.82 1605.73 1377.04C1606.51 1376.24 1607.44 1375.83 1608.54 1375.83H1630.64C1631.73 1375.83 1632.7 1376.25 1633.53 1377.09L1642.73 1386.28C1643.5 1387.06 1643.89 1388.01 1643.89 1389.13V1399.53C1643.89 1400.6 1643.47 1401.55 1642.64 1402.38L1639.1 1405.92C1638.35 1406.67 1637.98 1407.61 1637.98 1408.73C1637.98 1409.85 1638.35 1410.83 1639.1 1411.66L1642.73 1415.2C1643.5 1415.98 1643.89 1416.92 1643.89 1418.01V1433.77C1643.89 1434.86 1643.5 1435.79 1642.73 1436.57C1641.95 1437.35 1641.01 1437.74 1639.92 1437.74C1638.83 1437.74 1637.88 1437.35 1637.07 1436.57C1636.26 1435.79 1635.86 1434.86 1635.86 1433.77V1421.03C1635.86 1420.17 1635.56 1419.43 1634.96 1418.83L1629.82 1413.69C1629.21 1413.09 1628.48 1412.79 1627.62 1412.79ZM1629.82 1403.89L1634.96 1398.76C1635.56 1398.15 1635.86 1397.42 1635.86 1396.55V1392.11C1635.86 1391.25 1635.56 1390.51 1634.96 1389.91L1629.82 1384.77C1629.24 1384.19 1628.51 1383.91 1627.62 1383.91H1616.57C1615.47 1383.91 1614.54 1384.3 1613.76 1385.07C1612.98 1385.85 1612.59 1386.78 1612.59 1387.88V1400.79C1612.59 1401.88 1612.98 1402.81 1613.76 1403.59C1614.54 1404.37 1615.47 1404.76 1616.57 1404.76H1627.62C1628.51 1404.76 1629.24 1404.47 1629.82 1403.89ZM1697.79 1389.13V1433.77C1697.79 1434.86 1697.4 1435.79 1696.62 1436.57C1695.85 1437.35 1694.91 1437.74 1693.82 1437.74C1692.72 1437.74 1691.77 1437.35 1690.97 1436.57C1690.16 1435.79 1689.76 1434.86 1689.76 1433.77V1416.8C1689.76 1415.71 1689.37 1414.77 1688.59 1413.99C1687.82 1413.19 1686.88 1412.79 1685.79 1412.79H1670.46C1669.37 1412.79 1668.43 1413.19 1667.66 1413.99C1666.88 1414.77 1666.49 1415.71 1666.49 1416.8V1433.77C1666.49 1434.86 1666.09 1435.79 1665.28 1436.57C1664.48 1437.35 1663.53 1437.74 1662.43 1437.74C1661.34 1437.74 1660.41 1437.35 1659.63 1436.57C1658.85 1435.79 1658.46 1434.86 1658.46 1433.77V1389.13C1658.46 1387.98 1658.84 1387.03 1659.59 1386.28L1668.87 1377.09C1669.61 1376.25 1670.56 1375.83 1671.72 1375.83H1684.54C1685.63 1375.83 1686.57 1376.22 1687.34 1377L1696.54 1386.28C1697.37 1387.03 1697.79 1387.98 1697.79 1389.13ZM1689.76 1400.79V1392.11C1689.76 1391.25 1689.46 1390.51 1688.85 1389.91L1683.72 1384.77C1683.14 1384.19 1682.41 1383.91 1681.51 1383.91H1674.74C1673.82 1383.91 1673.07 1384.19 1672.49 1384.77L1667.4 1389.91C1666.79 1390.51 1666.49 1391.25 1666.49 1392.11V1400.79C1666.49 1401.88 1666.88 1402.81 1667.66 1403.59C1668.43 1404.37 1669.37 1404.76 1670.46 1404.76H1685.79C1686.88 1404.76 1687.82 1404.37 1688.59 1403.59C1689.37 1402.81 1689.76 1401.88 1689.76 1400.79ZM1736.06 1387.88V1433.77C1736.06 1434.89 1735.67 1435.84 1734.89 1436.61C1734.12 1437.36 1733.14 1437.74 1731.96 1437.74C1730.87 1437.74 1729.93 1437.35 1729.15 1436.57C1728.38 1435.79 1727.99 1434.86 1727.99 1433.77V1387.88C1727.99 1386.78 1727.6 1385.85 1726.82 1385.07C1726.05 1384.3 1725.11 1383.91 1724.02 1383.91H1716.33C1715.24 1383.91 1714.3 1383.5 1713.53 1382.7C1712.75 1381.89 1712.36 1380.94 1712.36 1379.85C1712.36 1378.76 1712.75 1377.82 1713.53 1377.04C1714.3 1376.24 1715.24 1375.83 1716.33 1375.83H1747.72C1748.81 1375.83 1749.74 1376.24 1750.52 1377.04C1751.3 1377.82 1751.69 1378.76 1751.69 1379.85C1751.69 1380.94 1751.3 1381.89 1750.52 1382.7C1749.74 1383.5 1748.81 1383.91 1747.72 1383.91H1740.03C1738.94 1383.91 1738 1384.3 1737.23 1385.07C1736.45 1385.85 1736.06 1386.78 1736.06 1387.88ZM1766.26 1433.77V1379.85C1766.26 1378.76 1766.65 1377.82 1767.42 1377.04C1768.2 1376.24 1769.14 1375.83 1770.23 1375.83H1801.61C1802.71 1375.83 1803.64 1376.24 1804.42 1377.04C1805.2 1377.82 1805.59 1378.76 1805.59 1379.85C1805.59 1380.94 1805.2 1381.89 1804.42 1382.7C1803.64 1383.5 1802.71 1383.91 1801.61 1383.91H1778.26C1777.17 1383.91 1776.23 1384.3 1775.45 1385.07C1774.68 1385.85 1774.29 1386.78 1774.29 1387.88V1398.76C1774.29 1399.85 1774.68 1400.8 1775.45 1401.61C1776.23 1402.41 1777.17 1402.81 1778.26 1402.81H1795.61C1796.71 1402.81 1797.66 1403.2 1798.46 1403.98C1799.27 1404.76 1799.67 1405.69 1799.67 1406.79C1799.67 1407.88 1799.27 1408.83 1798.46 1409.63C1797.66 1410.44 1796.71 1410.84 1795.61 1410.84H1778.26C1777.17 1410.84 1776.23 1411.25 1775.45 1412.05C1774.68 1412.86 1774.29 1413.82 1774.29 1414.94V1425.69C1774.29 1426.79 1774.68 1427.74 1775.45 1428.54C1776.23 1429.32 1777.17 1429.71 1778.26 1429.71H1801.61C1802.71 1429.71 1803.64 1430.11 1804.42 1430.92C1805.2 1431.72 1805.59 1432.67 1805.59 1433.77C1805.59 1434.86 1805.2 1435.79 1804.42 1436.57C1803.64 1437.35 1802.71 1437.74 1801.61 1437.74H1770.23C1769.14 1437.74 1768.2 1437.35 1767.42 1436.57C1766.65 1435.79 1766.26 1434.86 1766.26 1433.77ZM1905.44 1437.74H1882C1880.9 1437.74 1879.97 1437.35 1879.19 1436.57C1878.42 1435.79 1878.03 1434.86 1878.03 1433.77C1878.03 1432.67 1878.42 1431.72 1879.19 1430.92C1879.97 1430.11 1880.9 1429.71 1882 1429.71H1885.71C1886.8 1429.71 1887.74 1429.32 1888.52 1428.54C1889.29 1427.74 1889.68 1426.79 1889.68 1425.69V1387.88C1889.68 1386.78 1889.29 1385.85 1888.52 1385.07C1887.74 1384.3 1886.8 1383.91 1885.71 1383.91H1882C1880.9 1383.91 1879.97 1383.5 1879.19 1382.7C1878.42 1381.89 1878.03 1380.94 1878.03 1379.85C1878.03 1378.76 1878.42 1377.82 1879.19 1377.04C1879.97 1376.24 1880.9 1375.83 1882 1375.83H1905.44C1906.53 1375.83 1907.47 1376.24 1908.24 1377.04C1909.02 1377.82 1909.41 1378.76 1909.41 1379.85C1909.41 1380.94 1909.02 1381.89 1908.24 1382.7C1907.47 1383.5 1906.53 1383.91 1905.44 1383.91H1901.73C1900.63 1383.91 1899.7 1384.3 1898.92 1385.07C1898.14 1385.85 1897.75 1386.78 1897.75 1387.88V1425.69C1897.75 1426.79 1898.14 1427.74 1898.92 1428.54C1899.7 1429.32 1900.63 1429.71 1901.73 1429.71H1905.44C1906.53 1429.71 1907.47 1430.11 1908.24 1430.92C1909.02 1431.72 1909.41 1432.67 1909.41 1433.77C1909.41 1434.86 1909.02 1435.79 1908.24 1436.57C1907.47 1437.35 1906.53 1437.74 1905.44 1437.74ZM1959.25 1391.33V1390.25C1959.25 1389.39 1958.95 1388.66 1958.34 1388.05L1955.06 1384.77C1954.49 1384.19 1953.75 1383.91 1952.86 1383.91H1942.37C1941.45 1383.91 1940.7 1384.19 1940.13 1384.77L1936.89 1388.05C1936.28 1388.66 1935.98 1389.39 1935.98 1390.25V1396.38C1935.98 1397.25 1936.28 1397.98 1936.89 1398.58L1940.13 1401.95C1940.7 1402.53 1941.45 1402.81 1942.37 1402.81H1955.88C1956.98 1402.81 1957.91 1403.2 1958.69 1403.98L1966.11 1411.49C1966.89 1412.27 1967.28 1413.2 1967.28 1414.3V1426.34C1967.28 1427.43 1966.89 1428.37 1966.11 1429.15L1958.69 1436.49C1957.94 1437.32 1957.01 1437.74 1955.88 1437.74H1939.35C1938.2 1437.74 1937.25 1437.32 1936.5 1436.49L1929.08 1429.15C1928.33 1428.4 1927.95 1427.46 1927.95 1426.34V1422.28C1927.95 1421.19 1928.34 1420.27 1929.12 1419.52C1929.9 1418.74 1930.83 1418.35 1931.92 1418.35C1933.05 1418.35 1934 1418.74 1934.77 1419.52C1935.58 1420.27 1935.98 1421.19 1935.98 1422.28V1423.32C1935.98 1424.18 1936.28 1424.92 1936.89 1425.52L1940.13 1428.8C1940.73 1429.41 1941.48 1429.71 1942.37 1429.71H1952.86C1953.72 1429.71 1954.46 1429.41 1955.06 1428.8L1958.34 1425.52C1958.95 1424.92 1959.25 1424.18 1959.25 1423.32V1417.32C1959.25 1416.46 1958.95 1415.72 1958.34 1415.12L1955.06 1411.75C1954.46 1411.15 1953.72 1410.84 1952.86 1410.84H1939.35C1938.2 1410.84 1937.25 1410.47 1936.5 1409.72L1929.08 1402.21C1928.33 1401.46 1927.95 1400.51 1927.95 1399.36V1387.27C1927.95 1386.12 1928.33 1385.17 1929.08 1384.42L1936.5 1377.09C1937.25 1376.25 1938.2 1375.83 1939.35 1375.83H1955.88C1957.01 1375.83 1957.94 1376.25 1958.69 1377.09L1966.11 1384.42C1966.89 1385.2 1967.28 1386.15 1967.28 1387.27V1391.33C1967.28 1392.43 1966.89 1393.36 1966.11 1394.14C1965.34 1394.91 1964.4 1395.3 1963.31 1395.3C1962.21 1395.3 1961.26 1394.91 1960.46 1394.14C1959.65 1393.36 1959.25 1392.43 1959.25 1391.33ZM1158.81 1507.13V1551.77C1158.81 1552.86 1158.42 1553.79 1157.64 1554.57C1156.87 1555.35 1155.93 1555.74 1154.84 1555.74C1153.74 1555.74 1152.79 1555.35 1151.99 1554.57C1151.18 1553.79 1150.78 1552.86 1150.78 1551.77V1534.8C1150.78 1533.71 1150.39 1532.77 1149.61 1531.99C1148.84 1531.19 1147.9 1530.79 1146.81 1530.79H1131.48C1130.39 1530.79 1129.45 1531.19 1128.68 1531.99C1127.9 1532.77 1127.51 1533.71 1127.51 1534.8V1551.77C1127.51 1552.86 1127.11 1553.79 1126.3 1554.57C1125.5 1555.35 1124.55 1555.74 1123.45 1555.74C1122.36 1555.74 1121.42 1555.35 1120.65 1554.57C1119.87 1553.79 1119.48 1552.86 1119.48 1551.77V1507.13C1119.48 1505.98 1119.86 1505.03 1120.6 1504.28L1129.89 1495.09C1130.63 1494.25 1131.58 1493.83 1132.73 1493.83H1145.56C1146.65 1493.83 1147.58 1494.22 1148.36 1495L1157.56 1504.28C1158.39 1505.03 1158.81 1505.98 1158.81 1507.13ZM1150.78 1518.79V1510.11C1150.78 1509.25 1150.48 1508.51 1149.87 1507.91L1144.74 1502.77C1144.16 1502.19 1143.43 1501.91 1142.53 1501.91H1135.76C1134.84 1501.91 1134.09 1502.19 1133.51 1502.77L1128.42 1507.91C1127.81 1508.51 1127.51 1509.25 1127.51 1510.11V1518.79C1127.51 1519.88 1127.9 1520.81 1128.68 1521.59C1129.45 1522.37 1130.39 1522.76 1131.48 1522.76H1146.81C1147.9 1522.76 1148.84 1522.37 1149.61 1521.59C1150.39 1520.81 1150.78 1519.88 1150.78 1518.79ZM1181.41 1497.85V1543.69C1181.41 1544.79 1181.8 1545.74 1182.58 1546.54C1183.35 1547.32 1184.29 1547.71 1185.38 1547.71H1208.74C1209.83 1547.71 1210.76 1548.11 1211.54 1548.92C1212.32 1549.72 1212.71 1550.67 1212.71 1551.77C1212.71 1552.86 1212.32 1553.79 1211.54 1554.57C1210.76 1555.35 1209.83 1555.74 1208.74 1555.74H1177.35C1176.26 1555.74 1175.32 1555.35 1174.55 1554.57C1173.77 1553.79 1173.38 1552.86 1173.38 1551.77V1497.85C1173.38 1496.76 1173.77 1495.82 1174.55 1495.04C1175.32 1494.24 1176.26 1493.83 1177.35 1493.83C1178.45 1493.83 1179.4 1494.24 1180.2 1495.04C1181.01 1495.82 1181.41 1496.76 1181.41 1497.85ZM1258.58 1540.89V1497.85C1258.58 1496.76 1258.98 1495.82 1259.78 1495.04C1260.59 1494.24 1261.54 1493.83 1262.63 1493.83C1263.73 1493.83 1264.66 1494.24 1265.44 1495.04C1266.22 1495.82 1266.6 1496.76 1266.6 1497.85V1543.91C1266.6 1545 1266.22 1545.94 1265.44 1546.72L1257.58 1554.57C1256.81 1555.35 1255.87 1555.74 1254.78 1555.74C1253.65 1555.74 1252.7 1555.35 1251.93 1554.57L1246.96 1549.56L1241.96 1554.57C1241.18 1555.35 1240.23 1555.74 1239.11 1555.74C1238.01 1555.74 1237.08 1555.35 1236.3 1554.57L1228.4 1546.72C1227.65 1545.97 1227.28 1545.03 1227.28 1543.91V1497.85C1227.28 1496.76 1227.67 1495.82 1228.44 1495.04C1229.22 1494.24 1230.16 1493.83 1231.25 1493.83C1232.34 1493.83 1233.29 1494.24 1234.1 1495.04C1234.9 1495.82 1235.31 1496.76 1235.31 1497.85V1540.89C1235.31 1541.87 1235.7 1542.7 1236.47 1543.39C1237.25 1544.08 1238.13 1544.43 1239.11 1544.43C1240.14 1544.43 1241.03 1544.1 1241.78 1543.43C1242.53 1542.74 1242.91 1541.89 1242.91 1540.89V1524.79C1242.91 1523.66 1243.28 1522.73 1244.03 1521.98C1244.8 1521.2 1245.78 1520.81 1246.96 1520.81C1248.06 1520.81 1248.99 1521.2 1249.77 1521.98C1250.57 1522.76 1250.98 1523.69 1250.98 1524.79V1540.89C1250.98 1541.87 1251.37 1542.7 1252.14 1543.39C1252.92 1544.08 1253.8 1544.43 1254.78 1544.43C1255.81 1544.43 1256.7 1544.1 1257.45 1543.43C1258.2 1542.74 1258.58 1541.89 1258.58 1540.89ZM1320.5 1507.13V1551.77C1320.5 1552.86 1320.11 1553.79 1319.34 1554.57C1318.56 1555.35 1317.62 1555.74 1316.53 1555.74C1315.44 1555.74 1314.49 1555.35 1313.68 1554.57C1312.88 1553.79 1312.47 1552.86 1312.47 1551.77V1534.8C1312.47 1533.71 1312.08 1532.77 1311.31 1531.99C1310.53 1531.19 1309.6 1530.79 1308.5 1530.79H1293.18C1292.08 1530.79 1291.15 1531.19 1290.37 1531.99C1289.59 1532.77 1289.21 1533.71 1289.21 1534.8V1551.77C1289.21 1552.86 1288.8 1553.79 1288 1554.57C1287.19 1555.35 1286.24 1555.74 1285.15 1555.74C1284.05 1555.74 1283.12 1555.35 1282.34 1554.57C1281.56 1553.79 1281.18 1552.86 1281.18 1551.77V1507.13C1281.18 1505.98 1281.55 1505.03 1282.3 1504.28L1291.58 1495.09C1292.33 1494.25 1293.28 1493.83 1294.43 1493.83H1307.25C1308.34 1493.83 1309.28 1494.22 1310.06 1495L1319.25 1504.28C1320.09 1505.03 1320.5 1505.98 1320.5 1507.13ZM1312.47 1518.79V1510.11C1312.47 1509.25 1312.17 1508.51 1311.57 1507.91L1306.43 1502.77C1305.85 1502.19 1305.12 1501.91 1304.23 1501.91H1297.45C1296.53 1501.91 1295.78 1502.19 1295.21 1502.77L1290.11 1507.91C1289.51 1508.51 1289.21 1509.25 1289.21 1510.11V1518.79C1289.21 1519.88 1289.59 1520.81 1290.37 1521.59C1291.15 1522.37 1292.08 1522.76 1293.18 1522.76H1308.5C1309.6 1522.76 1310.53 1522.37 1311.31 1521.59C1312.08 1520.81 1312.47 1519.88 1312.47 1518.79ZM1349.84 1529.23L1336.28 1515.68C1335.48 1514.87 1335.07 1513.91 1335.07 1512.78V1497.85C1335.07 1496.76 1335.46 1495.82 1336.24 1495.04C1337.02 1494.24 1337.95 1493.83 1339.05 1493.83C1340.14 1493.83 1341.09 1494.24 1341.9 1495.04C1342.7 1495.82 1343.1 1496.76 1343.1 1497.85V1509.76C1343.1 1510.63 1343.41 1511.36 1344.01 1511.96L1351.87 1519.95C1352.62 1520.7 1353.55 1521.07 1354.67 1521.07C1355.88 1521.07 1356.86 1520.7 1357.61 1519.95L1365.46 1511.96C1366.07 1511.36 1366.37 1510.63 1366.37 1509.76V1497.85C1366.37 1496.76 1366.77 1495.82 1367.58 1495.04C1368.39 1494.24 1369.34 1493.83 1370.43 1493.83C1371.52 1493.83 1372.46 1494.24 1373.24 1495.04C1374.01 1495.82 1374.4 1496.76 1374.4 1497.85V1512.78C1374.4 1513.88 1373.98 1514.84 1373.15 1515.68L1359.64 1529.23C1359.06 1529.81 1358.77 1530.54 1358.77 1531.43V1551.77C1358.77 1552.89 1358.39 1553.84 1357.61 1554.61C1356.83 1555.36 1355.85 1555.74 1354.67 1555.74C1353.58 1555.74 1352.64 1555.35 1351.87 1554.57C1351.09 1553.79 1350.7 1552.86 1350.7 1551.77V1531.43C1350.7 1530.54 1350.41 1529.81 1349.84 1529.23ZM1420.27 1509.33V1508.25C1420.27 1507.39 1419.97 1506.66 1419.36 1506.05L1416.08 1502.77C1415.51 1502.19 1414.77 1501.91 1413.88 1501.91H1403.39C1402.47 1501.91 1401.72 1502.19 1401.15 1502.77L1397.91 1506.05C1397.3 1506.66 1397 1507.39 1397 1508.25V1514.38C1397 1515.25 1397.3 1515.98 1397.91 1516.58L1401.15 1519.95C1401.72 1520.53 1402.47 1520.81 1403.39 1520.81H1416.9C1418 1520.81 1418.93 1521.2 1419.71 1521.98L1427.13 1529.49C1427.91 1530.27 1428.3 1531.2 1428.3 1532.3V1544.34C1428.3 1545.43 1427.91 1546.37 1427.13 1547.15L1419.71 1554.49C1418.96 1555.32 1418.02 1555.74 1416.9 1555.74H1400.37C1399.22 1555.74 1398.27 1555.32 1397.52 1554.49L1390.09 1547.15C1389.35 1546.4 1388.97 1545.46 1388.97 1544.34V1540.28C1388.97 1539.19 1389.36 1538.27 1390.14 1537.52C1390.92 1536.74 1391.85 1536.35 1392.94 1536.35C1394.07 1536.35 1395.02 1536.74 1395.79 1537.52C1396.6 1538.27 1397 1539.19 1397 1540.28V1541.32C1397 1542.18 1397.3 1542.92 1397.91 1543.52L1401.15 1546.8C1401.75 1547.41 1402.5 1547.71 1403.39 1547.71H1413.88C1414.74 1547.71 1415.48 1547.41 1416.08 1546.8L1419.36 1543.52C1419.97 1542.92 1420.27 1542.18 1420.27 1541.32V1535.32C1420.27 1534.46 1419.97 1533.72 1419.36 1533.12L1416.08 1529.75C1415.48 1529.15 1414.74 1528.84 1413.88 1528.84H1400.37C1399.22 1528.84 1398.27 1528.47 1397.52 1527.72L1390.09 1520.21C1389.35 1519.46 1388.97 1518.51 1388.97 1517.36V1505.27C1388.97 1504.12 1389.35 1503.17 1390.09 1502.42L1397.52 1495.09C1398.27 1494.25 1399.22 1493.83 1400.37 1493.83H1416.9C1418.02 1493.83 1418.96 1494.25 1419.71 1495.09L1427.13 1502.42C1427.91 1503.2 1428.3 1504.15 1428.3 1505.27V1509.33C1428.3 1510.43 1427.91 1511.36 1427.13 1512.14C1426.36 1512.91 1425.42 1513.3 1424.33 1513.3C1423.23 1513.3 1422.28 1512.91 1421.48 1512.14C1420.67 1511.36 1420.27 1510.43 1420.27 1509.33ZM1512.4 1543.69V1508.9C1512.4 1508.41 1512.28 1508.17 1512.05 1508.17C1511.88 1508.17 1511.7 1508.25 1511.53 1508.42L1507.65 1512.4C1506.78 1513.17 1505.81 1513.56 1504.71 1513.56C1503.62 1513.56 1502.68 1513.17 1501.91 1512.4C1501.13 1511.62 1500.74 1510.68 1500.74 1509.59C1500.74 1508.38 1501.11 1507.4 1501.86 1506.66L1513.56 1495C1514.34 1494.22 1515.3 1493.83 1516.45 1493.83C1517.55 1493.83 1518.48 1494.24 1519.26 1495.04C1520.07 1495.82 1520.47 1496.76 1520.47 1497.85V1543.69C1520.47 1544.79 1520.86 1545.74 1521.63 1546.54C1522.41 1547.32 1523.35 1547.71 1524.44 1547.71H1528.15C1529.25 1547.71 1530.18 1548.11 1530.96 1548.92C1531.73 1549.72 1532.12 1550.67 1532.12 1551.77C1532.12 1552.86 1531.73 1553.79 1530.96 1554.57C1530.18 1555.35 1529.25 1555.74 1528.15 1555.74H1504.71C1503.62 1555.74 1502.68 1555.35 1501.91 1554.57C1501.13 1553.79 1500.74 1552.86 1500.74 1551.77C1500.74 1550.67 1501.13 1549.72 1501.91 1548.92C1502.68 1548.11 1503.62 1547.71 1504.71 1547.71H1508.42C1509.52 1547.71 1510.45 1547.32 1511.23 1546.54C1512.01 1545.74 1512.4 1544.79 1512.4 1543.69ZM1559.6 1529.84L1580.45 1508.99C1580.68 1508.76 1580.8 1508.45 1580.8 1508.08C1580.8 1507.73 1580.68 1507.45 1580.45 1507.22L1575.92 1502.77C1575.34 1502.19 1574.61 1501.91 1573.72 1501.91H1566.94C1566.02 1501.91 1565.27 1502.19 1564.7 1502.77L1559.6 1507.91C1559 1508.51 1558.7 1509.25 1558.7 1510.11V1529.4C1558.7 1529.87 1558.81 1530.1 1559.04 1530.1C1559.24 1530.1 1559.43 1530.01 1559.6 1529.84ZM1566.94 1547.71H1573.72C1574.58 1547.71 1575.32 1547.41 1575.92 1546.8L1581.06 1541.66C1581.66 1541.06 1581.96 1540.33 1581.96 1539.46V1520.21C1581.96 1519.72 1581.85 1519.48 1581.62 1519.48C1581.42 1519.48 1581.23 1519.56 1581.06 1519.74L1560.21 1540.63C1559.92 1540.92 1559.78 1541.2 1559.78 1541.49C1559.78 1541.81 1559.92 1542.11 1560.21 1542.4L1564.7 1546.8C1565.3 1547.41 1566.05 1547.71 1566.94 1547.71ZM1551.79 1504.28L1561.07 1495.09C1561.82 1494.25 1562.77 1493.83 1563.92 1493.83H1576.74C1577.83 1493.83 1578.77 1494.22 1579.55 1495L1588.74 1504.28C1589.58 1505.03 1589.99 1505.98 1589.99 1507.13V1542.48C1589.99 1543.58 1589.58 1544.54 1588.74 1545.38L1579.55 1554.57C1578.77 1555.35 1577.83 1555.74 1576.74 1555.74H1563.92C1562.77 1555.74 1561.82 1555.32 1561.07 1554.49L1551.79 1545.29C1551.04 1544.54 1550.67 1543.61 1550.67 1542.48V1507.13C1550.67 1505.98 1551.04 1505.03 1551.79 1504.28ZM1635.86 1551.77V1508.9C1635.86 1508.41 1635.75 1508.17 1635.52 1508.17C1635.31 1508.17 1635.13 1508.25 1634.96 1508.42L1629.13 1514.25C1628.55 1514.83 1628.26 1515.58 1628.26 1516.5V1524.79C1628.26 1525.88 1627.86 1526.81 1627.06 1527.59C1626.28 1528.37 1625.34 1528.76 1624.25 1528.76C1623.07 1528.76 1622.09 1528.38 1621.31 1527.63C1620.57 1526.86 1620.19 1525.91 1620.19 1524.79V1516.5C1620.19 1515.58 1619.9 1514.83 1619.33 1514.25L1613.5 1508.42C1613.33 1508.25 1613.14 1508.17 1612.94 1508.17C1612.71 1508.17 1612.59 1508.41 1612.59 1508.9V1551.77C1612.59 1552.86 1612.19 1553.79 1611.39 1554.57C1610.58 1555.35 1609.63 1555.74 1608.54 1555.74C1607.44 1555.74 1606.51 1555.35 1605.73 1554.57C1604.95 1553.79 1604.56 1552.86 1604.56 1551.77V1497.85C1604.56 1496.76 1604.95 1495.82 1605.73 1495.04C1606.51 1494.24 1607.44 1493.83 1608.54 1493.83C1609.69 1493.83 1610.65 1494.22 1611.43 1495L1621.36 1504.97C1622.22 1505.75 1623.18 1506.14 1624.25 1506.14C1625.37 1506.14 1626.32 1505.75 1627.1 1504.97L1636.98 1495C1637.76 1494.22 1638.74 1493.83 1639.92 1493.83C1641.01 1493.83 1641.95 1494.24 1642.73 1495.04C1643.5 1495.82 1643.89 1496.76 1643.89 1497.85V1551.77C1643.89 1552.86 1643.5 1553.79 1642.73 1554.57C1641.95 1555.35 1641.01 1555.74 1639.92 1555.74C1638.83 1555.74 1637.88 1555.35 1637.07 1554.57C1636.26 1553.79 1635.86 1552.86 1635.86 1551.77ZM1751.69 1497.85V1551.77C1751.69 1552.86 1751.3 1553.79 1750.52 1554.57C1749.74 1555.35 1748.81 1555.74 1747.72 1555.74C1746.54 1555.74 1745.56 1555.36 1744.78 1554.61C1744.03 1553.84 1743.66 1552.89 1743.66 1551.77V1532.86C1743.66 1531.74 1743.27 1530.77 1742.49 1529.97C1741.72 1529.16 1740.78 1528.76 1739.69 1528.76H1724.36C1723.27 1528.76 1722.33 1529.16 1721.56 1529.97C1720.78 1530.77 1720.39 1531.74 1720.39 1532.86V1551.77C1720.39 1552.86 1719.99 1553.79 1719.18 1554.57C1718.38 1555.35 1717.43 1555.74 1716.33 1555.74C1715.24 1555.74 1714.3 1555.35 1713.53 1554.57C1712.75 1553.79 1712.36 1552.86 1712.36 1551.77V1497.85C1712.36 1496.76 1712.75 1495.82 1713.53 1495.04C1714.3 1494.24 1715.24 1493.83 1716.33 1493.83C1717.43 1493.83 1718.38 1494.24 1719.18 1495.04C1719.99 1495.82 1720.39 1496.76 1720.39 1497.85V1516.76C1720.39 1517.85 1720.78 1518.8 1721.56 1519.61C1722.33 1520.41 1723.27 1520.81 1724.36 1520.81H1739.69C1740.78 1520.81 1741.72 1520.41 1742.49 1519.61C1743.27 1518.8 1743.66 1517.85 1743.66 1516.76V1497.85C1743.66 1496.73 1744.03 1495.78 1744.78 1495C1745.56 1494.22 1746.54 1493.83 1747.72 1493.83C1748.81 1493.83 1749.74 1494.24 1750.52 1495.04C1751.3 1495.82 1751.69 1496.76 1751.69 1497.85ZM1797.56 1506.14V1497.85C1797.56 1496.76 1797.96 1495.82 1798.76 1495.04C1799.57 1494.24 1800.52 1493.83 1801.61 1493.83C1802.71 1493.83 1803.64 1494.24 1804.42 1495.04C1805.2 1495.82 1805.59 1496.76 1805.59 1497.85V1509.16C1805.59 1510.19 1805.17 1511.13 1804.33 1511.96L1775.19 1541.23C1774.59 1541.84 1774.29 1542.57 1774.29 1543.43V1551.77C1774.29 1552.86 1773.89 1553.79 1773.08 1554.57C1772.27 1555.35 1771.32 1555.74 1770.23 1555.74C1769.14 1555.74 1768.2 1555.35 1767.42 1554.57C1766.65 1553.79 1766.26 1552.86 1766.26 1551.77V1540.46C1766.26 1539.36 1766.66 1538.41 1767.47 1537.61L1796.65 1508.34C1797.25 1507.73 1797.56 1507 1797.56 1506.14ZM1851.45 1509.33V1508.25C1851.45 1507.39 1851.15 1506.66 1850.55 1506.05L1847.27 1502.77C1846.69 1502.19 1845.96 1501.91 1845.07 1501.91H1834.58C1833.65 1501.91 1832.91 1502.19 1832.33 1502.77L1829.09 1506.05C1828.49 1506.66 1828.19 1507.39 1828.19 1508.25V1514.38C1828.19 1515.25 1828.49 1515.98 1829.09 1516.58L1832.33 1519.95C1832.91 1520.53 1833.65 1520.81 1834.58 1520.81H1848.09C1849.18 1520.81 1850.12 1521.2 1850.89 1521.98L1858.32 1529.49C1859.09 1530.27 1859.48 1531.2 1859.48 1532.3V1544.34C1859.48 1545.43 1859.09 1546.37 1858.32 1547.15L1850.89 1554.49C1850.14 1555.32 1849.21 1555.74 1848.09 1555.74H1831.55C1830.4 1555.74 1829.45 1555.32 1828.7 1554.49L1821.28 1547.15C1820.53 1546.4 1820.16 1545.46 1820.16 1544.34V1540.28C1820.16 1539.19 1820.55 1538.27 1821.32 1537.52C1822.1 1536.74 1823.03 1536.35 1824.13 1536.35C1825.25 1536.35 1826.2 1536.74 1826.98 1537.52C1827.78 1538.27 1828.19 1539.19 1828.19 1540.28V1541.32C1828.19 1542.18 1828.49 1542.92 1829.09 1543.52L1832.33 1546.8C1832.93 1547.41 1833.68 1547.71 1834.58 1547.71H1845.07C1845.93 1547.71 1846.66 1547.41 1847.27 1546.8L1850.55 1543.52C1851.15 1542.92 1851.45 1542.18 1851.45 1541.32V1535.32C1851.45 1534.46 1851.15 1533.72 1850.55 1533.12L1847.27 1529.75C1846.66 1529.15 1845.93 1528.84 1845.07 1528.84H1831.55C1830.4 1528.84 1829.45 1528.47 1828.7 1527.72L1821.28 1520.21C1820.53 1519.46 1820.16 1518.51 1820.16 1517.36V1505.27C1820.16 1504.12 1820.53 1503.17 1821.28 1502.42L1828.7 1495.09C1829.45 1494.25 1830.4 1493.83 1831.55 1493.83H1848.09C1849.21 1493.83 1850.14 1494.25 1850.89 1495.09L1858.32 1502.42C1859.09 1503.2 1859.48 1504.15 1859.48 1505.27V1509.33C1859.48 1510.43 1859.09 1511.36 1858.32 1512.14C1857.54 1512.91 1856.61 1513.3 1855.51 1513.3C1854.42 1513.3 1853.47 1512.91 1852.66 1512.14C1851.86 1511.36 1851.45 1510.43 1851.45 1509.33Z" fill="#19FF14"/>
<path d="M44.2387 1488.43L43.1595 1488.43C42.2962 1488.43 41.5623 1488.73 40.958 1489.34L37.6772 1492.62C37.1016 1493.19 36.8138 1493.93 36.8138 1494.82L36.8138 1505.31C36.8138 1506.23 37.1016 1506.98 37.6772 1507.55L40.958 1510.79C41.5623 1511.4 42.2962 1511.7 43.1595 1511.7L76.2264 1511.7C77.0897 1511.7 77.8236 1511.4 78.4279 1510.79L81.7087 1507.55C82.3131 1506.95 82.6152 1506.2 82.6152 1505.31L82.6152 1494.82C82.6152 1493.96 82.3131 1493.22 81.7087 1492.62L78.4279 1489.34C77.8236 1488.73 77.0897 1488.43 76.2264 1488.43L67.7654 1488.43C66.6718 1488.43 65.7365 1488.82 64.9595 1489.6C64.1537 1490.37 63.7508 1491.31 63.7508 1492.4L63.7508 1497.71C63.7508 1498.8 63.3479 1499.77 62.542 1500.6C61.7362 1501.41 60.7865 1501.81 59.6929 1501.81C58.5994 1501.81 57.664 1501.41 56.887 1500.6C56.11 1499.8 55.7215 1498.83 55.7215 1497.71L55.7215 1484.37C55.7215 1483.28 56.11 1482.34 56.887 1481.57C57.664 1480.79 58.5994 1480.4 59.6929 1480.4L79.1618 1480.4C80.3129 1480.4 81.277 1480.79 82.0541 1481.57L89.3927 1488.99C90.2272 1489.74 90.6445 1490.7 90.6445 1491.88L90.6445 1508.33C90.6445 1509.48 90.2272 1510.43 89.3927 1511.18L82.0541 1518.6C81.3058 1519.35 80.3417 1519.73 79.1618 1519.73L40.1809 1519.73C39.0298 1519.73 38.0801 1519.35 37.3318 1518.6L29.9932 1511.18C29.1587 1510.43 28.7414 1509.48 28.7414 1508.33L28.7414 1491.88C28.7414 1490.7 29.1587 1489.74 29.9932 1488.99L37.3318 1481.57C38.1089 1480.79 39.0586 1480.4 40.1809 1480.4L44.2387 1480.4C45.3323 1480.4 46.2676 1480.79 47.0447 1481.57C47.8217 1482.34 48.2102 1483.28 48.2102 1484.37C48.2102 1485.47 47.8217 1486.42 47.0447 1487.22C46.2676 1488.03 45.3323 1488.43 44.2387 1488.43ZM32.756 1457.8L78.6006 1457.8C79.6942 1457.8 80.6439 1457.41 81.4497 1456.63C82.2267 1455.86 82.6152 1454.92 82.6152 1453.83L82.6152 1430.47C82.6152 1429.38 83.0181 1428.44 83.824 1427.67C84.6298 1426.89 85.5795 1426.5 86.6731 1426.5C87.7666 1426.5 88.702 1426.89 89.479 1427.67C90.256 1428.44 90.6445 1429.38 90.6445 1430.47L90.6445 1461.86C90.6445 1462.95 90.256 1463.89 89.479 1464.66C88.702 1465.44 87.7667 1465.83 86.6731 1465.83L32.756 1465.83C31.6624 1465.83 30.7271 1465.44 29.9501 1464.66C29.1443 1463.89 28.7414 1462.95 28.7414 1461.86C28.7414 1460.76 29.1443 1459.81 29.9501 1459.01C30.7271 1458.2 31.6624 1457.8 32.756 1457.8ZM29.9932 1381.19L37.3318 1373.77C38.1089 1372.99 39.0586 1372.6 40.1809 1372.6L79.2481 1372.6C80.3417 1372.6 81.277 1372.99 82.0541 1373.77L89.3926 1381.19C90.2272 1381.94 90.6445 1382.91 90.6445 1384.09L90.6445 1400.53C90.6445 1401.69 90.2272 1402.63 89.3926 1403.38L82.0541 1410.81C81.3058 1411.56 80.3705 1411.93 79.2481 1411.93L40.1809 1411.93C39.0298 1411.93 38.0801 1411.56 37.3318 1410.81L29.9932 1403.38C29.1587 1402.63 28.7414 1401.69 28.7414 1400.53L28.7414 1384.09C28.7414 1382.91 29.1587 1381.94 29.9932 1381.19ZM81.7087 1384.82L78.4279 1381.54C77.8236 1380.94 77.0897 1380.63 76.2264 1380.63L43.1595 1380.63C42.2962 1380.63 41.5623 1380.94 40.958 1381.54L37.6772 1384.82C37.1016 1385.4 36.8138 1386.13 36.8138 1387.02L36.8138 1397.51C36.8138 1398.43 37.1016 1399.18 37.6772 1399.76L40.958 1402.99C41.5623 1403.6 42.2962 1403.9 43.1595 1403.9L76.2264 1403.9C77.0897 1403.9 77.8236 1403.6 78.4279 1402.99L81.7087 1399.76C82.3131 1399.15 82.6152 1398.4 82.6152 1397.51L82.6152 1387.02C82.6152 1386.16 82.3131 1385.43 81.7087 1384.82ZM54.8581 1330.92L51.491 1327.64C50.8866 1327.04 50.1528 1326.74 49.2894 1326.74L43.1595 1326.74C42.2962 1326.74 41.5623 1327.04 40.958 1327.64L37.6772 1330.92C37.1016 1331.5 36.8138 1332.23 36.8138 1333.12L36.8138 1346.03C36.8138 1347.13 37.2023 1348.06 37.9793 1348.84C38.7564 1349.61 39.6917 1350 40.7853 1350L51.6637 1350C52.7573 1350 53.707 1349.61 54.5128 1348.84C55.3186 1348.06 55.7215 1347.13 55.7215 1346.03L55.7215 1333.12C55.7215 1332.23 55.4337 1331.5 54.8581 1330.92ZM81.7087 1330.92L78.4279 1327.64C77.8236 1327.04 77.0897 1326.74 76.2264 1326.74L70.226 1326.74C69.3626 1326.74 68.6288 1327.04 68.0244 1327.64L64.6573 1330.92C64.0529 1331.53 63.7507 1332.26 63.7507 1333.12L63.7507 1346.03C63.7507 1347.13 64.1537 1348.06 64.9595 1348.84C65.7653 1349.61 66.7294 1350 67.8517 1350L78.6006 1350C79.6942 1350 80.6439 1349.61 81.4497 1348.84C82.2267 1348.06 82.6152 1347.13 82.6152 1346.03L82.6152 1333.12C82.6152 1332.26 82.3131 1331.53 81.7087 1330.92ZM55.1171 1319.87L56.887 1321.64C57.6353 1322.39 58.5706 1322.76 59.6929 1322.76C60.9016 1322.76 61.8801 1322.39 62.6284 1321.64L64.3983 1319.87C65.1753 1319.09 66.1106 1318.71 67.2042 1318.71L79.1618 1318.71C80.3129 1318.71 81.277 1319.09 82.0541 1319.87L89.3926 1327.3C90.2272 1328.04 90.6445 1329.01 90.6445 1330.19L90.6445 1354.06C90.6445 1355.15 90.256 1356.09 89.479 1356.87C88.702 1357.64 87.7666 1358.03 86.6731 1358.03L32.756 1358.03C31.6624 1358.03 30.7271 1357.64 29.9501 1356.87C29.1443 1356.09 28.7414 1355.15 28.7414 1354.06L28.7414 1330.19C28.7414 1329.01 29.1587 1328.04 29.9932 1327.3L37.3318 1319.87C38.1089 1319.09 39.0586 1318.71 40.1809 1318.71L52.268 1318.71C53.3904 1318.71 54.3401 1319.09 55.1171 1319.87ZM42.0372 1264.81L86.673 1264.81C87.7666 1264.81 88.702 1265.2 89.479 1265.97C90.256 1266.75 90.6445 1267.69 90.6445 1268.78C90.6445 1269.87 90.256 1270.82 89.479 1271.63C88.702 1272.43 87.7666 1272.84 86.673 1272.84L69.708 1272.84C68.6144 1272.84 67.6791 1273.23 66.902 1274C66.0962 1274.78 65.6933 1275.72 65.6933 1276.81L65.6933 1292.13C65.6933 1293.23 66.0962 1294.16 66.902 1294.94C67.6791 1295.72 68.6144 1296.1 69.708 1296.1L86.673 1296.1C87.7666 1296.1 88.702 1296.51 89.479 1297.31C90.256 1298.12 90.6445 1299.07 90.6445 1300.16C90.6445 1301.26 90.256 1302.19 89.479 1302.97C88.702 1303.75 87.7666 1304.13 86.673 1304.13L42.0372 1304.13C40.886 1304.13 39.9363 1303.76 39.1881 1303.01L29.9932 1293.73C29.1586 1292.98 28.7414 1292.03 28.7414 1290.88L28.7414 1278.06C28.7414 1276.97 29.1299 1276.03 29.9069 1275.25L39.1881 1266.06C39.9363 1265.23 40.886 1264.81 42.0372 1264.81ZM53.6926 1272.84L45.0158 1272.84C44.1524 1272.84 43.4185 1273.14 42.8142 1273.74L37.6772 1278.88C37.1016 1279.46 36.8138 1280.19 36.8138 1281.08L36.8138 1287.86C36.8138 1288.78 37.1016 1289.53 37.6772 1290.1L42.8142 1295.2C43.4185 1295.8 44.1524 1296.1 45.0158 1296.1L53.6926 1296.1C54.7862 1296.1 55.7215 1295.72 56.4985 1294.94C57.2755 1294.16 57.664 1293.23 57.664 1292.13L57.664 1276.81C57.664 1275.72 57.2755 1274.78 56.4985 1274C55.7215 1273.23 54.7862 1272.84 53.6926 1272.84ZM32.756 1242.21L78.6006 1242.21C79.6942 1242.21 80.6439 1241.82 81.4497 1241.04C82.2267 1240.26 82.6152 1239.33 82.6152 1238.24L82.6152 1214.88C82.6152 1213.79 83.0181 1212.85 83.8239 1212.08C84.6298 1211.3 85.5795 1210.91 86.673 1210.91C87.7666 1210.91 88.7019 1211.3 89.479 1212.08C90.256 1212.85 90.6445 1213.79 90.6445 1214.88L90.6445 1246.26C90.6445 1247.36 90.256 1248.29 89.479 1249.07C88.702 1249.85 87.7666 1250.24 86.673 1250.24L32.756 1250.24C31.6624 1250.24 30.7271 1249.85 29.9501 1249.07C29.1443 1248.29 28.7414 1247.36 28.7414 1246.26C28.7414 1245.17 29.1443 1244.22 29.9501 1243.42C30.7271 1242.61 31.6624 1242.21 32.756 1242.21ZM32.756 1103.11L86.673 1103.11C87.7666 1103.11 88.7019 1103.5 89.479 1104.28C90.256 1105.06 90.6445 1105.99 90.6445 1107.09C90.6445 1108.27 90.2704 1109.24 89.5221 1110.02C88.7451 1110.77 87.7954 1111.14 86.673 1111.14L67.7654 1111.14C66.643 1111.14 65.6789 1111.53 64.8731 1112.31C64.0673 1113.09 63.6644 1114.02 63.6644 1115.11L63.6644 1130.44C63.6644 1131.53 64.0673 1132.47 64.8731 1133.25C65.6789 1134.02 66.643 1134.41 67.7654 1134.41L86.673 1134.41C87.7666 1134.41 88.7019 1134.81 89.479 1135.62C90.256 1136.43 90.6445 1137.38 90.6445 1138.47C90.6445 1139.56 90.256 1140.5 89.479 1141.27C88.7019 1142.05 87.7666 1142.44 86.673 1142.44L32.756 1142.44C31.6624 1142.44 30.7271 1142.05 29.9501 1141.27C29.1443 1140.5 28.7413 1139.56 28.7413 1138.47C28.7413 1137.38 29.1443 1136.43 29.9501 1135.62C30.7271 1134.81 31.6624 1134.41 32.756 1134.41L51.6637 1134.41C52.7572 1134.41 53.7069 1134.02 54.5128 1133.25C55.3186 1132.47 55.7215 1131.53 55.7215 1130.44L55.7215 1115.11C55.7215 1114.02 55.3186 1113.09 54.5127 1112.31C53.7069 1111.53 52.7572 1111.14 51.6637 1111.14L32.756 1111.14C31.6336 1111.14 30.6839 1110.77 29.9069 1110.02C29.1299 1109.24 28.7413 1108.27 28.7413 1107.09C28.7413 1105.99 29.1443 1105.06 29.9501 1104.28C30.7271 1103.5 31.6624 1103.11 32.756 1103.11ZM42.0371 1049.22L86.673 1049.22C87.7666 1049.22 88.7019 1049.6 89.479 1050.38C90.256 1051.16 90.6445 1052.09 90.6445 1053.19C90.6445 1054.28 90.256 1055.23 89.479 1056.04C88.7019 1056.84 87.7666 1057.25 86.673 1057.25L69.7079 1057.25C68.6144 1057.25 67.679 1057.63 66.902 1058.41C66.0962 1059.19 65.6933 1060.12 65.6933 1061.22L65.6933 1076.54C65.6933 1077.63 66.0962 1078.57 66.902 1079.35C67.679 1080.12 68.6144 1080.51 69.7079 1080.51L86.673 1080.51C87.7666 1080.51 88.7019 1080.92 89.479 1081.72C90.256 1082.53 90.6445 1083.48 90.6445 1084.57C90.6445 1085.66 90.256 1086.6 89.479 1087.38C88.7019 1088.15 87.7666 1088.54 86.673 1088.54L42.0371 1088.54C40.886 1088.54 39.9363 1088.17 39.188 1087.42L29.9932 1078.14C29.1586 1077.39 28.7413 1076.44 28.7413 1075.29L28.7413 1062.47C28.7413 1061.37 29.1299 1060.44 29.9069 1059.66L39.188 1050.47C39.9363 1049.63 40.886 1049.22 42.0371 1049.22ZM53.6926 1057.25L45.0157 1057.25C44.1524 1057.25 43.4185 1057.55 42.8142 1058.15L37.6772 1063.29C37.1016 1063.86 36.8138 1064.6 36.8138 1065.49L36.8138 1072.27C36.8138 1073.19 37.1016 1073.94 37.6772 1074.51L42.8142 1079.61C43.4185 1080.21 44.1524 1080.51 45.0157 1080.51L53.6926 1080.51C54.7861 1080.51 55.7215 1080.12 56.4985 1079.35C57.2755 1078.57 57.664 1077.63 57.664 1076.54L57.664 1061.22C57.664 1060.12 57.2755 1059.19 56.4985 1058.41C55.7215 1057.63 54.7861 1057.25 53.6926 1057.25ZM44.2387 1003.35L43.1595 1003.35C42.2962 1003.35 41.5623 1003.65 40.9579 1004.25L37.6772 1007.53C37.1016 1008.11 36.8138 1008.84 36.8138 1009.74L36.8138 1020.23C36.8138 1021.15 37.1016 1021.89 37.6772 1022.47L40.9579 1025.71C41.5623 1026.31 42.2962 1026.61 43.1595 1026.61L49.2894 1026.61C50.1528 1026.61 50.8866 1026.31 51.491 1025.71L54.8581 1022.47C55.4337 1021.89 55.7215 1021.15 55.7215 1020.23L55.7215 1006.71C55.7215 1005.62 56.11 1004.69 56.887 1003.91L64.3983 996.483C65.1753 995.706 66.1106 995.318 67.2042 995.318L79.2481 995.318C80.3417 995.318 81.277 995.706 82.054 996.483L89.3926 1003.91C90.2272 1004.66 90.6445 1005.59 90.6445 1006.71L90.6445 1023.25C90.6445 1024.4 90.2272 1025.35 89.3926 1026.1L82.054 1033.52C81.3058 1034.27 80.3705 1034.64 79.2481 1034.64L75.1903 1034.64C74.0967 1034.64 73.1758 1034.26 72.4275 1033.48C71.6505 1032.7 71.262 1031.77 71.262 1030.67C71.262 1029.55 71.6505 1028.6 72.4275 1027.82C73.1758 1027.02 74.0967 1026.61 75.1903 1026.61L76.2263 1026.61C77.0897 1026.61 77.8236 1026.31 78.4279 1025.71L81.7087 1022.47C82.3131 1021.87 82.6152 1021.12 82.6152 1020.23L82.6152 1009.74C82.6152 1008.87 82.3131 1008.14 81.7087 1007.53L78.4279 1004.25C77.8236 1003.65 77.0897 1003.35 76.2263 1003.35L70.226 1003.35C69.3626 1003.35 68.6287 1003.65 68.0244 1004.25L64.6573 1007.53C64.0529 1008.14 63.7507 1008.87 63.7507 1009.74L63.7507 1023.25C63.7507 1024.4 63.3766 1025.35 62.6284 1026.1L55.1171 1033.52C54.3689 1034.27 53.4192 1034.64 52.268 1034.64L40.1809 1034.64C39.0298 1034.64 38.0801 1034.27 37.3318 1033.52L29.9932 1026.1C29.1586 1025.35 28.7413 1024.4 28.7413 1023.25L28.7413 1006.71C28.7413 1005.59 29.1586 1004.66 29.9932 1003.91L37.3318 996.483C38.1088 995.706 39.0585 995.318 40.1809 995.318L44.2387 995.318C45.3323 995.318 46.2676 995.706 47.0447 996.483C47.8217 997.26 48.2102 998.196 48.2102 999.289C48.2102 1000.38 47.8217 1001.33 47.0447 1002.14C46.2676 1002.94 45.3323 1003.35 44.2387 1003.35ZM32.756 941.42L86.673 941.42C87.7666 941.42 88.7019 941.808 89.479 942.585C90.256 943.362 90.6445 944.298 90.6445 945.391C90.6445 946.571 90.2704 947.55 89.5221 948.327C88.7451 949.075 87.7954 949.449 86.673 949.449L67.7654 949.449C66.643 949.449 65.6789 949.838 64.8731 950.615C64.0673 951.392 63.6644 952.327 63.6644 953.42L63.6644 968.745C63.6644 969.839 64.0673 970.774 64.8731 971.551C65.6789 972.328 66.643 972.717 67.7654 972.717L86.673 972.717C87.7666 972.717 88.7019 973.12 89.479 973.925C90.256 974.731 90.6445 975.681 90.6445 976.774C90.6445 977.868 90.256 978.803 89.479 979.58C88.7019 980.357 87.7666 980.746 86.673 980.746L32.756 980.746C31.6624 980.746 30.7271 980.357 29.9501 979.58C29.1442 978.803 28.7413 977.868 28.7413 976.774C28.7413 975.681 29.1442 974.731 29.9501 973.925C30.7271 973.12 31.6624 972.717 32.756 972.717L51.6636 972.717C52.7572 972.717 53.7069 972.328 54.5127 971.551C55.3185 970.774 55.7215 969.839 55.7215 968.745L55.7215 953.42C55.7215 952.327 55.3185 951.392 54.5127 950.615C53.7069 949.838 52.7572 949.449 51.6636 949.449L32.756 949.449C31.6336 949.449 30.6839 949.075 29.9069 948.327C29.1299 947.55 28.7413 946.571 28.7413 945.391C28.7413 944.298 29.1442 943.362 29.9501 942.585C30.7271 941.808 31.6624 941.42 32.756 941.42ZM65.6933 903.796L65.6933 914.847C65.6933 915.941 66.0962 916.876 66.902 917.653C67.679 918.43 68.6143 918.819 69.7079 918.819L86.673 918.819C87.7666 918.819 88.7019 919.221 89.479 920.027C90.256 920.833 90.6445 921.783 90.6445 922.876C90.6445 923.97 90.256 924.905 89.479 925.682C88.7019 926.459 87.7666 926.848 86.673 926.848L32.756 926.848C31.6624 926.848 30.7271 926.459 29.95 925.682C29.1442 924.905 28.7413 923.97 28.7413 922.876L28.7413 900.774C28.7413 899.681 29.1586 898.717 29.9932 897.882L39.188 888.687C39.9651 887.91 40.9148 887.522 42.0371 887.522L52.4407 887.522C53.5055 887.522 54.4552 887.939 55.2898 888.774L58.8296 892.313C59.5778 893.062 60.5131 893.436 61.6355 893.436C62.7579 893.436 63.7363 893.062 64.5709 892.313L68.1107 888.687C68.8877 887.91 69.8231 887.522 70.9166 887.522L86.673 887.522C87.7666 887.522 88.7019 887.91 89.479 888.687C90.256 889.464 90.6445 890.4 90.6445 891.493C90.6445 892.587 90.256 893.536 89.479 894.342C88.7019 895.148 87.7666 895.551 86.673 895.551L73.9384 895.551C73.0751 895.551 72.3412 895.853 71.7368 896.457L66.5998 901.594C65.9955 902.199 65.6933 902.933 65.6933 903.796ZM56.8007 901.594L51.6636 896.457C51.0593 895.853 50.3254 895.551 49.4621 895.551L45.0157 895.551C44.1524 895.551 43.4185 895.853 42.8142 896.457L37.6772 901.594C37.1016 902.17 36.8138 902.904 36.8138 903.796L36.8138 914.847C36.8138 915.941 37.2023 916.876 37.9793 917.653C38.7564 918.43 39.6917 918.819 40.7853 918.819L53.6925 918.819C54.7861 918.819 55.7215 918.43 56.4985 917.653C57.2755 916.876 57.664 915.941 57.664 914.847L57.664 903.796C57.664 902.904 57.3762 902.17 56.8007 901.594ZM42.0371 833.624L86.673 833.624C87.7666 833.624 88.7019 834.012 89.479 834.789C90.256 835.566 90.6445 836.501 90.6445 837.595C90.6445 838.689 90.256 839.638 89.479 840.444C88.7019 841.25 87.7666 841.653 86.673 841.653L69.7079 841.653C68.6143 841.653 67.679 842.041 66.902 842.818C66.0962 843.595 65.6933 844.531 65.6933 845.624L65.6933 860.949C65.6933 862.043 66.0962 862.978 66.902 863.755C67.679 864.532 68.6143 864.92 69.7079 864.92L86.673 864.92C87.7666 864.92 88.7019 865.323 89.479 866.129C90.256 866.935 90.6445 867.885 90.6445 868.978C90.6445 870.072 90.256 871.007 89.479 871.784C88.7019 872.561 87.7666 872.95 86.673 872.95L42.0371 872.95C40.886 872.95 39.9363 872.576 39.188 871.827L29.9932 862.546C29.1586 861.798 28.7413 860.848 28.7413 859.697L28.7413 846.876C28.7413 845.783 29.1299 844.847 29.9069 844.07L39.188 834.875C39.9363 834.041 40.886 833.624 42.0371 833.624ZM53.6925 841.653L45.0157 841.653C44.1524 841.653 43.4185 841.955 42.8142 842.559L37.6771 847.696C37.1016 848.272 36.8138 849.006 36.8138 849.898L36.8138 856.675C36.8138 857.596 37.1016 858.345 37.6772 858.92L42.8142 864.014C43.4185 864.618 44.1524 864.921 45.0157 864.921L53.6925 864.921C54.7861 864.921 55.7214 864.532 56.4985 863.755C57.2755 862.978 57.664 862.043 57.664 860.949L57.664 845.624C57.664 844.531 57.2755 843.595 56.4985 842.818C55.7214 842.041 54.7861 841.653 53.6925 841.653ZM40.7853 795.352L86.673 795.352C87.7954 795.352 88.7451 795.741 89.5221 796.518C90.2704 797.295 90.6445 798.273 90.6445 799.453C90.6445 800.547 90.256 801.482 89.479 802.259C88.7019 803.036 87.7666 803.425 86.673 803.425L40.7853 803.425C39.6917 803.425 38.7564 803.813 37.9793 804.59C37.2023 805.367 36.8138 806.303 36.8138 807.396L36.8138 815.08C36.8138 816.174 36.4109 817.109 35.6051 817.886C34.7993 818.663 33.8496 819.052 32.756 819.052C31.6624 819.052 30.7271 818.663 29.95 817.886C29.1442 817.109 28.7413 816.174 28.7413 815.08L28.7413 783.697C28.7413 782.603 29.1442 781.668 29.95 780.891C30.7271 780.114 31.6624 779.726 32.756 779.726C33.8496 779.726 34.7993 780.114 35.6051 780.891C36.4109 781.668 36.8138 782.603 36.8138 783.697L36.8138 791.381C36.8138 792.475 37.2023 793.41 37.9793 794.187C38.7564 794.964 39.6917 795.352 40.7853 795.352ZM86.673 765.154L32.756 765.154C31.6624 765.154 30.7271 764.765 29.95 763.988C29.1442 763.211 28.7413 762.276 28.7413 761.182L28.7413 729.799C28.7413 728.705 29.1442 727.77 29.95 726.993C30.7271 726.216 31.6624 725.827 32.756 725.827C33.8496 725.827 34.7993 726.216 35.6051 726.993C36.4109 727.77 36.8138 728.705 36.8138 729.799L36.8138 753.153C36.8138 754.247 37.2023 755.182 37.9793 755.959C38.7564 756.736 39.6917 757.124 40.7853 757.124L51.6636 757.124C52.7572 757.124 53.7069 756.736 54.5127 755.959C55.3185 755.182 55.7214 754.247 55.7214 753.153L55.7214 735.799C55.7214 734.706 56.11 733.756 56.887 732.95C57.664 732.144 58.5993 731.742 59.6929 731.742C60.7865 731.742 61.7362 732.144 62.542 732.95C63.3478 733.756 63.7507 734.706 63.7507 735.799L63.7507 753.153C63.7507 754.247 64.1536 755.182 64.9594 755.959C65.7652 756.736 66.7293 757.124 67.8517 757.124L78.6006 757.124C79.6942 757.124 80.6439 756.736 81.4497 755.959C82.2267 755.182 82.6152 754.247 82.6152 753.153L82.6152 729.799C82.6152 728.705 83.0181 727.77 83.8239 726.993C84.6297 726.216 85.5794 725.827 86.673 725.827C87.7666 725.827 88.7019 726.216 89.479 726.993C90.256 727.77 90.6445 728.705 90.6445 729.799L90.6445 761.182C90.6445 762.276 90.256 763.211 89.479 763.988C88.7019 764.765 87.7666 765.154 86.673 765.154Z" fill="white"/>
<path d="M1378.48 2665.06V2622.19C1378.48 2621.7 1378.36 2621.46 1378.13 2621.46C1377.93 2621.46 1377.75 2621.55 1377.57 2621.72L1371.75 2627.55C1371.17 2628.12 1370.88 2628.87 1370.88 2629.79V2638.08C1370.88 2639.17 1370.48 2640.11 1369.67 2640.89C1368.9 2641.66 1367.96 2642.05 1366.87 2642.05C1365.69 2642.05 1364.71 2641.68 1363.93 2640.93C1363.18 2640.15 1362.81 2639.2 1362.81 2638.08V2629.79C1362.81 2628.87 1362.52 2628.12 1361.95 2627.55L1356.12 2621.72C1355.95 2621.55 1355.76 2621.46 1355.56 2621.46C1355.33 2621.46 1355.21 2621.7 1355.21 2622.19V2665.06C1355.21 2666.15 1354.81 2667.09 1354 2667.87C1353.2 2668.64 1352.25 2669.03 1351.15 2669.03C1350.06 2669.03 1349.13 2668.64 1348.35 2667.87C1347.57 2667.09 1347.18 2666.15 1347.18 2665.06V2611.14C1347.18 2610.05 1347.57 2609.11 1348.35 2608.34C1349.13 2607.53 1350.06 2607.13 1351.15 2607.13C1352.31 2607.13 1353.27 2607.52 1354.05 2608.29L1363.98 2618.27C1364.84 2619.04 1365.8 2619.43 1366.87 2619.43C1367.99 2619.43 1368.94 2619.04 1369.72 2618.27L1379.6 2608.29C1380.38 2607.52 1381.36 2607.13 1382.54 2607.13C1383.63 2607.13 1384.57 2607.53 1385.34 2608.34C1386.12 2609.11 1386.51 2610.05 1386.51 2611.14V2665.06C1386.51 2666.15 1386.12 2667.09 1385.34 2667.87C1384.57 2668.64 1383.63 2669.03 1382.54 2669.03C1381.44 2669.03 1380.49 2668.64 1379.69 2667.87C1378.88 2667.09 1378.48 2666.15 1378.48 2665.06ZM1432.46 2669.03H1409.02C1407.93 2669.03 1407 2668.64 1406.22 2667.87C1405.44 2667.09 1405.05 2666.15 1405.05 2665.06C1405.05 2663.97 1405.44 2663.02 1406.22 2662.21C1407 2661.4 1407.93 2661 1409.02 2661H1412.74C1413.83 2661 1414.77 2660.61 1415.54 2659.84C1416.32 2659.03 1416.71 2658.08 1416.71 2656.99V2619.17C1416.71 2618.08 1416.32 2617.14 1415.54 2616.37C1414.77 2615.59 1413.83 2615.2 1412.74 2615.2H1409.02C1407.93 2615.2 1407 2614.8 1406.22 2613.99C1405.44 2613.19 1405.05 2612.24 1405.05 2611.14C1405.05 2610.05 1405.44 2609.11 1406.22 2608.34C1407 2607.53 1407.93 2607.13 1409.02 2607.13H1432.46C1433.56 2607.13 1434.49 2607.53 1435.27 2608.34C1436.05 2609.11 1436.44 2610.05 1436.44 2611.14C1436.44 2612.24 1436.05 2613.19 1435.27 2613.99C1434.49 2614.8 1433.56 2615.2 1432.46 2615.2H1428.75C1427.66 2615.2 1426.72 2615.59 1425.95 2616.37C1425.17 2617.14 1424.78 2618.08 1424.78 2619.17V2656.99C1424.78 2658.08 1425.17 2659.03 1425.95 2659.84C1426.72 2660.61 1427.66 2661 1428.75 2661H1432.46C1433.56 2661 1434.49 2661.4 1435.27 2662.21C1436.05 2663.02 1436.44 2663.97 1436.44 2665.06C1436.44 2666.15 1436.05 2667.09 1435.27 2667.87C1434.49 2668.64 1433.56 2669.03 1432.46 2669.03ZM1462.49 2609.2L1485.63 2648.96C1485.83 2649.25 1485.99 2649.39 1486.1 2649.39C1486.22 2649.39 1486.28 2649.19 1486.28 2648.79V2611.14C1486.28 2610.05 1486.68 2609.11 1487.48 2608.34C1488.29 2607.53 1489.24 2607.13 1490.33 2607.13C1491.43 2607.13 1492.36 2607.53 1493.14 2608.34C1493.92 2609.11 1494.31 2610.05 1494.31 2611.14V2665.06C1494.31 2666.15 1493.92 2667.09 1493.14 2667.87C1492.36 2668.64 1491.43 2669.03 1490.33 2669.03C1488.75 2669.03 1487.57 2668.35 1486.79 2667L1463.61 2627.11C1463.53 2626.83 1463.38 2626.68 1463.18 2626.68C1463.07 2626.68 1463.01 2626.88 1463.01 2627.29V2665.06C1463.01 2666.15 1462.61 2667.09 1461.8 2667.87C1460.99 2668.64 1460.04 2669.03 1458.95 2669.03C1457.86 2669.03 1456.92 2668.64 1456.14 2667.87C1455.37 2667.09 1454.98 2666.15 1454.98 2665.06V2611.14C1454.98 2610.05 1455.37 2609.11 1456.14 2608.34C1456.92 2607.53 1457.86 2607.13 1458.95 2607.13C1460.5 2607.13 1461.68 2607.82 1462.49 2609.2ZM1508.88 2665.06V2611.14C1508.88 2610.05 1509.27 2609.11 1510.04 2608.34C1510.82 2607.53 1511.76 2607.13 1512.85 2607.13H1544.23C1545.33 2607.13 1546.26 2607.53 1547.04 2608.34C1547.81 2609.11 1548.2 2610.05 1548.2 2611.14C1548.2 2612.24 1547.81 2613.19 1547.04 2613.99C1546.26 2614.8 1545.33 2615.2 1544.23 2615.2H1520.88C1519.78 2615.2 1518.85 2615.59 1518.07 2616.37C1517.3 2617.14 1516.91 2618.08 1516.91 2619.17V2630.05C1516.91 2631.14 1517.3 2632.09 1518.07 2632.9C1518.85 2633.71 1519.78 2634.11 1520.88 2634.11H1538.23C1539.33 2634.11 1540.27 2634.5 1541.08 2635.27C1541.89 2636.05 1542.29 2636.99 1542.29 2638.08C1542.29 2639.17 1541.89 2640.12 1541.08 2640.93C1540.27 2641.73 1539.33 2642.14 1538.23 2642.14H1520.88C1519.78 2642.14 1518.85 2642.54 1518.07 2643.35C1517.3 2644.15 1516.91 2645.12 1516.91 2646.24V2656.99C1516.91 2658.08 1517.3 2659.03 1518.07 2659.84C1518.85 2660.61 1519.78 2661 1520.88 2661H1544.23C1545.33 2661 1546.26 2661.4 1547.04 2662.21C1547.81 2663.02 1548.2 2663.97 1548.2 2665.06C1548.2 2666.15 1547.81 2667.09 1547.04 2667.87C1546.26 2668.64 1545.33 2669.03 1544.23 2669.03H1512.85C1511.76 2669.03 1510.82 2668.64 1510.04 2667.87C1509.27 2667.09 1508.88 2666.15 1508.88 2665.06ZM1585.83 2644.08H1574.78C1573.68 2644.08 1572.75 2644.48 1571.97 2645.29C1571.19 2646.07 1570.8 2647 1570.8 2648.09V2665.06C1570.8 2666.15 1570.4 2667.09 1569.6 2667.87C1568.79 2668.64 1567.84 2669.03 1566.75 2669.03C1565.65 2669.03 1564.72 2668.64 1563.94 2667.87C1563.16 2667.09 1562.78 2666.15 1562.78 2665.06V2611.14C1562.78 2610.05 1563.16 2609.11 1563.94 2608.34C1564.72 2607.53 1565.65 2607.13 1566.75 2607.13H1588.85C1589.94 2607.13 1590.91 2607.55 1591.74 2608.38L1600.94 2617.57C1601.71 2618.35 1602.1 2619.3 1602.1 2620.42V2630.83C1602.1 2631.89 1601.68 2632.84 1600.85 2633.68L1597.31 2637.22C1596.56 2637.96 1596.19 2638.9 1596.19 2640.02C1596.19 2641.14 1596.56 2642.12 1597.31 2642.96L1600.94 2646.5C1601.71 2647.27 1602.1 2648.21 1602.1 2649.3V2665.06C1602.1 2666.15 1601.71 2667.09 1600.94 2667.87C1600.16 2668.64 1599.22 2669.03 1598.13 2669.03C1597.04 2669.03 1596.09 2668.64 1595.28 2667.87C1594.48 2667.09 1594.07 2666.15 1594.07 2665.06V2652.33C1594.07 2651.46 1593.77 2650.73 1593.17 2650.12L1588.03 2644.99C1587.42 2644.38 1586.69 2644.08 1585.83 2644.08ZM1588.03 2635.19L1593.17 2630.05C1593.77 2629.45 1594.07 2628.71 1594.07 2627.85V2623.4C1594.07 2622.54 1593.77 2621.81 1593.17 2621.2L1588.03 2616.06C1587.45 2615.49 1586.72 2615.2 1585.83 2615.2H1574.78C1573.68 2615.2 1572.75 2615.59 1571.97 2616.37C1571.19 2617.14 1570.8 2618.08 1570.8 2619.17V2632.08C1570.8 2633.17 1571.19 2634.11 1571.97 2634.89C1572.75 2635.66 1573.68 2636.05 1574.78 2636.05H1585.83C1586.72 2636.05 1587.45 2635.76 1588.03 2635.19ZM1647.97 2622.63V2621.55C1647.97 2620.68 1647.67 2619.95 1647.06 2619.34L1643.78 2616.06C1643.21 2615.49 1642.47 2615.2 1641.58 2615.2H1631.09C1630.17 2615.2 1629.42 2615.49 1628.85 2616.06L1625.61 2619.34C1625 2619.95 1624.7 2620.68 1624.7 2621.55V2627.68C1624.7 2628.54 1625 2629.27 1625.61 2629.88L1628.85 2633.24C1629.42 2633.82 1630.17 2634.11 1631.09 2634.11H1644.6C1645.7 2634.11 1646.63 2634.5 1647.41 2635.27L1654.83 2642.78C1655.61 2643.56 1656 2644.5 1656 2645.59V2657.63C1656 2658.73 1655.61 2659.66 1654.83 2660.44L1647.41 2667.78C1646.66 2668.61 1645.73 2669.03 1644.6 2669.03H1628.07C1626.92 2669.03 1625.97 2668.61 1625.22 2667.78L1617.8 2660.44C1617.05 2659.69 1616.67 2658.76 1616.67 2657.63V2653.58C1616.67 2652.48 1617.06 2651.56 1617.84 2650.81C1618.62 2650.04 1619.55 2649.65 1620.64 2649.65C1621.77 2649.65 1622.72 2650.04 1623.49 2650.81C1624.3 2651.56 1624.7 2652.48 1624.7 2653.58V2654.61C1624.7 2655.48 1625 2656.21 1625.61 2656.81L1628.85 2660.1C1629.45 2660.7 1630.2 2661 1631.09 2661H1641.58C1642.44 2661 1643.18 2660.7 1643.78 2660.1L1647.06 2656.81C1647.67 2656.21 1647.97 2655.48 1647.97 2654.61V2648.61C1647.97 2647.75 1647.67 2647.02 1647.06 2646.41L1643.78 2643.04C1643.18 2642.44 1642.44 2642.14 1641.58 2642.14H1628.07C1626.92 2642.14 1625.97 2641.76 1625.22 2641.02L1617.8 2633.5C1617.05 2632.76 1616.67 2631.81 1616.67 2630.65V2618.57C1616.67 2617.42 1617.05 2616.47 1617.8 2615.72L1625.22 2608.38C1625.97 2607.55 1626.92 2607.13 1628.07 2607.13H1644.6C1645.73 2607.13 1646.66 2607.55 1647.41 2608.38L1654.83 2615.72C1655.61 2616.5 1656 2617.45 1656 2618.57V2622.63C1656 2623.72 1655.61 2624.65 1654.83 2625.43C1654.06 2626.21 1653.12 2626.6 1652.03 2626.6C1650.93 2626.6 1649.98 2626.21 1649.18 2625.43C1648.37 2624.65 1647.97 2623.72 1647.97 2622.63Z" fill="white"/>
<defs>
<filter id="filter0_d_973_446" x="28.6523" y="828.224" width="2963.25" height="706.602" filterUnits="userSpaceOnUse" color-interpolation-filters="sRGB">
<feFlood flood-opacity="0" result="BackgroundImageFix"/>
<feColorMatrix in="SourceAlpha" type="matrix" values="0 0 0 0 0 0 0 0 0 0 0 0 0 0 0 0 0 0 127 0" result="hardAlpha"/>
<feOffset/>
<feGaussianBlur stdDeviation="151.129"/>
<feComposite in2="hardAlpha" operator="out"/>
<feColorMatrix type="matrix" values="0 0 0 0 0.0980392 0 0 0 0 1 0 0 0 0 0.0784314 0 0 0 1 0"/>
<feBlend mode="normal" in2="BackgroundImageFix" result="effect1_dropShadow_973_446"/>
<feBlend mode="normal" in="SourceGraphic" in2="effect1_dropShadow_973_446" result="shape"/>
</filter>
</defs>
</svg>
