<svg width="2611" height="2456" viewBox="0 0 2611 2456" fill="none" xmlns="http://www.w3.org/2000/svg">
<rect x="0.644531" y="532.581" width="27.4687" height="27.4687" fill="#3E3E3E"/>
<rect x="45.1172" y="532.581" width="27.4687" height="27.4687" fill="#3E3E3E"/>
<rect x="89.5898" y="532.581" width="27.4687" height="27.4687" fill="#3E3E3E"/>
<rect x="134.062" y="532.581" width="27.4687" height="27.4687" fill="#3E3E3E"/>
<rect x="178.539" y="532.581" width="27.4687" height="27.4687" fill="#3E3E3E"/>
<rect x="223.012" y="532.581" width="27.4687" height="27.4687" fill="#3E3E3E"/>
<rect x="267.484" y="532.581" width="27.4687" height="27.4687" fill="#3E3E3E"/>
<rect x="311.957" y="532.581" width="27.4687" height="27.4687" fill="#3E3E3E"/>
<rect x="0.644531" y="575.746" width="27.4687" height="27.4687" fill="#3E3E3E"/>
<rect x="45.1172" y="575.746" width="27.4687" height="27.4687" fill="#3E3E3E"/>
<rect x="89.5898" y="575.746" width="27.4687" height="27.4687" fill="#3E3E3E"/>
<rect x="134.062" y="575.746" width="27.4687" height="27.4687" fill="#3E3E3E"/>
<rect x="178.539" y="575.746" width="27.4687" height="27.4687" fill="#3E3E3E"/>
<rect x="223.012" y="575.746" width="27.4687" height="27.4687" fill="#3E3E3E"/>
<rect x="267.484" y="575.746" width="27.4687" height="27.4687" fill="#3E3E3E"/>
<rect x="311.957" y="575.746" width="27.4687" height="27.4687" fill="#3E3E3E"/>
<rect x="0.644531" y="618.911" width="27.4687" height="27.4687" fill="#3E3E3E"/>
<rect x="45.1172" y="618.911" width="27.4687" height="27.4687" fill="#3E3E3E"/>
<rect x="89.5898" y="618.911" width="27.4687" height="27.4687" fill="#3E3E3E"/>
<rect x="134.062" y="618.911" width="27.4687" height="27.4687" fill="#3E3E3E"/>
<rect x="178.539" y="618.911" width="27.4687" height="27.4687" fill="#3E3E3E"/>
<rect x="223.012" y="618.911" width="27.4687" height="27.4687" fill="#3E3E3E"/>
<rect x="267.484" y="618.911" width="27.4687" height="27.4687" fill="#3E3E3E"/>
<rect x="311.957" y="618.911" width="27.4687" height="27.4687" fill="#3E3E3E"/>
<rect x="0.644531" y="662.076" width="27.4687" height="27.4687" fill="#3E3E3E"/>
<rect x="45.1172" y="662.076" width="27.4687" height="27.4687" fill="#3E3E3E"/>
<rect x="89.5898" y="662.076" width="27.4687" height="27.4687" fill="#3E3E3E"/>
<rect x="134.062" y="662.076" width="27.4687" height="27.4687" fill="#3E3E3E"/>
<rect x="178.539" y="662.076" width="27.4687" height="27.4687" fill="#3E3E3E"/>
<rect x="223.012" y="662.076" width="27.4687" height="27.4687" fill="#3E3E3E"/>
<rect x="267.484" y="662.076" width="27.4687" height="27.4687" fill="#3E3E3E"/>
<rect x="311.957" y="662.076" width="27.4687" height="27.4687" fill="#3E3E3E"/>
<rect x="0.644531" y="705.241" width="27.4687" height="27.4687" fill="#3E3E3E"/>
<rect x="45.1172" y="705.241" width="27.4687" height="27.4687" fill="#3E3E3E"/>
<rect x="89.5898" y="705.241" width="27.4687" height="27.4687" fill="#3E3E3E"/>
<rect x="134.062" y="705.241" width="27.4687" height="27.4687" fill="#3E3E3E"/>
<rect x="178.539" y="705.241" width="27.4687" height="27.4687" fill="#3E3E3E"/>
<rect x="223.012" y="705.241" width="27.4687" height="27.4687" fill="#3E3E3E"/>
<rect x="267.484" y="705.241" width="27.4687" height="27.4687" fill="#3E3E3E"/>
<rect x="311.957" y="705.241" width="27.4687" height="27.4687" fill="#3E3E3E"/>
<rect x="0.644531" y="748.406" width="27.4687" height="27.4687" fill="#3E3E3E"/>
<rect x="45.1172" y="748.406" width="27.4687" height="27.4687" fill="#3E3E3E"/>
<rect x="89.5898" y="748.406" width="27.4687" height="27.4687" fill="#3E3E3E"/>
<rect x="134.062" y="748.406" width="27.4687" height="27.4687" fill="#3E3E3E"/>
<rect x="178.539" y="748.406" width="27.4687" height="27.4687" fill="#3E3E3E"/>
<rect x="223.012" y="748.406" width="27.4687" height="27.4687" fill="#3E3E3E"/>
<rect x="267.484" y="748.406" width="27.4687" height="27.4687" fill="#3E3E3E"/>
<rect x="311.957" y="748.406" width="27.4687" height="27.4687" fill="#3E3E3E"/>
<rect x="0.644531" y="791.571" width="27.4687" height="27.4687" fill="#3E3E3E"/>
<rect x="45.1172" y="791.571" width="27.4687" height="27.4687" fill="#3E3E3E"/>
<rect x="89.5898" y="791.571" width="27.4687" height="27.4687" fill="#3E3E3E"/>
<rect x="134.062" y="791.571" width="27.4687" height="27.4687" fill="#3E3E3E"/>
<rect x="178.539" y="791.571" width="27.4687" height="27.4687" fill="#3E3E3E"/>
<rect x="223.012" y="791.571" width="27.4687" height="27.4687" fill="#3E3E3E"/>
<rect x="267.484" y="791.571" width="27.4687" height="27.4687" fill="#3E3E3E"/>
<rect x="311.957" y="791.571" width="27.4687" height="27.4687" fill="#3E3E3E"/>
<rect x="0.644531" y="834.736" width="27.4687" height="27.4687" fill="#3E3E3E"/>
<rect x="45.1172" y="834.736" width="27.4687" height="27.4687" fill="#3E3E3E"/>
<rect x="89.5898" y="834.736" width="27.4687" height="27.4687" fill="#3E3E3E"/>
<rect x="134.062" y="834.736" width="27.4687" height="27.4687" fill="#3E3E3E"/>
<rect x="178.539" y="834.736" width="27.4687" height="27.4687" fill="#3E3E3E"/>
<rect x="223.012" y="834.736" width="27.4687" height="27.4687" fill="#3E3E3E"/>
<rect x="267.484" y="834.736" width="27.4687" height="27.4687" fill="#3E3E3E"/>
<rect x="311.957" y="834.736" width="27.4687" height="27.4687" fill="#3E3E3E"/>
<rect x="552.633" y="532.581" width="27.4687" height="27.4687" fill="#3E3E3E"/>
<rect x="597.105" y="532.581" width="27.4687" height="27.4687" fill="#3E3E3E"/>
<rect x="641.578" y="532.581" width="27.4687" height="27.4687" fill="#3E3E3E"/>
<rect x="686.051" y="532.581" width="27.4687" height="27.4687" fill="#3E3E3E"/>
<rect x="730.523" y="532.581" width="27.4687" height="27.4687" fill="#3E3E3E"/>
<rect x="775" y="532.581" width="27.4687" height="27.4687" fill="#3E3E3E"/>
<rect x="819.473" y="532.581" width="27.4687" height="27.4687" fill="#3E3E3E"/>
<rect x="863.945" y="532.581" width="27.4687" height="27.4687" fill="#3E3E3E"/>
<rect x="552.633" y="575.746" width="27.4687" height="27.4687" fill="#3E3E3E"/>
<rect x="597.105" y="575.746" width="27.4687" height="27.4687" fill="#3E3E3E"/>
<rect x="641.578" y="575.746" width="27.4687" height="27.4687" fill="#3E3E3E"/>
<rect x="686.051" y="575.746" width="27.4687" height="27.4687" fill="#3E3E3E"/>
<rect x="730.523" y="575.746" width="27.4687" height="27.4687" fill="#3E3E3E"/>
<rect x="775" y="575.746" width="27.4687" height="27.4687" fill="#3E3E3E"/>
<rect x="819.473" y="575.746" width="27.4687" height="27.4687" fill="#3E3E3E"/>
<rect x="863.945" y="575.746" width="27.4687" height="27.4687" fill="#3E3E3E"/>
<rect x="552.633" y="618.911" width="27.4687" height="27.4687" fill="#3E3E3E"/>
<rect x="597.105" y="618.911" width="27.4687" height="27.4687" fill="#3E3E3E"/>
<rect x="641.578" y="618.911" width="27.4687" height="27.4687" fill="#3E3E3E"/>
<rect x="686.051" y="618.911" width="27.4687" height="27.4687" fill="#3E3E3E"/>
<rect x="730.523" y="618.911" width="27.4687" height="27.4687" fill="#3E3E3E"/>
<rect x="775" y="618.911" width="27.4687" height="27.4687" fill="#3E3E3E"/>
<rect x="819.473" y="618.911" width="27.4687" height="27.4687" fill="#3E3E3E"/>
<rect x="863.945" y="618.911" width="27.4687" height="27.4687" fill="#3E3E3E"/>
<rect x="552.633" y="662.076" width="27.4687" height="27.4687" fill="#3E3E3E"/>
<rect x="597.105" y="662.076" width="27.4687" height="27.4687" fill="#3E3E3E"/>
<rect x="641.578" y="662.076" width="27.4687" height="27.4687" fill="#3E3E3E"/>
<rect x="686.051" y="662.076" width="27.4687" height="27.4687" fill="#3E3E3E"/>
<rect x="730.523" y="662.076" width="27.4687" height="27.4687" fill="#3E3E3E"/>
<rect x="775" y="662.076" width="27.4687" height="27.4687" fill="#3E3E3E"/>
<rect x="819.473" y="662.076" width="27.4687" height="27.4687" fill="#3E3E3E"/>
<rect x="863.945" y="662.076" width="27.4687" height="27.4687" fill="#3E3E3E"/>
<rect x="552.633" y="705.241" width="27.4687" height="27.4687" fill="#3E3E3E"/>
<rect x="597.105" y="705.241" width="27.4687" height="27.4687" fill="#3E3E3E"/>
<rect x="641.578" y="705.241" width="27.4687" height="27.4687" fill="#3E3E3E"/>
<rect x="686.051" y="705.241" width="27.4687" height="27.4687" fill="#3E3E3E"/>
<rect x="730.523" y="705.241" width="27.4687" height="27.4687" fill="#3E3E3E"/>
<rect x="775" y="705.241" width="27.4687" height="27.4687" fill="#3E3E3E"/>
<rect x="819.473" y="705.241" width="27.4687" height="27.4687" fill="#3E3E3E"/>
<rect x="863.945" y="705.241" width="27.4687" height="27.4687" fill="#3E3E3E"/>
<rect x="552.633" y="748.406" width="27.4687" height="27.4687" fill="#3E3E3E"/>
<rect x="597.105" y="748.406" width="27.4687" height="27.4687" fill="#3E3E3E"/>
<rect x="641.578" y="748.406" width="27.4687" height="27.4687" fill="#3E3E3E"/>
<rect x="686.051" y="748.406" width="27.4687" height="27.4687" fill="#3E3E3E"/>
<rect x="730.523" y="748.406" width="27.4687" height="27.4687" fill="#3E3E3E"/>
<rect x="775" y="748.406" width="27.4687" height="27.4687" fill="#3E3E3E"/>
<rect x="819.473" y="748.406" width="27.4687" height="27.4687" fill="#3E3E3E"/>
<rect x="863.945" y="748.406" width="27.4687" height="27.4687" fill="#3E3E3E"/>
<rect x="552.633" y="791.571" width="27.4687" height="27.4687" fill="#3E3E3E"/>
<rect x="597.105" y="791.571" width="27.4687" height="27.4687" fill="#3E3E3E"/>
<rect x="641.578" y="791.571" width="27.4687" height="27.4687" fill="#3E3E3E"/>
<rect x="686.051" y="791.571" width="27.4687" height="27.4687" fill="#3E3E3E"/>
<rect x="730.523" y="791.571" width="27.4687" height="27.4687" fill="#3E3E3E"/>
<rect x="775" y="791.571" width="27.4687" height="27.4687" fill="#3E3E3E"/>
<rect x="819.473" y="791.571" width="27.4687" height="27.4687" fill="#3E3E3E"/>
<rect x="863.945" y="791.571" width="27.4687" height="27.4687" fill="#3E3E3E"/>
<rect x="552.633" y="834.736" width="27.4687" height="27.4687" fill="#3E3E3E"/>
<rect x="597.105" y="834.736" width="27.4687" height="27.4687" fill="#3E3E3E"/>
<rect x="641.578" y="834.736" width="27.4687" height="27.4687" fill="#3E3E3E"/>
<rect x="686.051" y="834.736" width="27.4687" height="27.4687" fill="#3E3E3E"/>
<rect x="730.523" y="834.736" width="27.4687" height="27.4687" fill="#3E3E3E"/>
<rect x="775" y="834.736" width="27.4687" height="27.4687" fill="#3E3E3E"/>
<rect x="819.473" y="834.736" width="27.4687" height="27.4687" fill="#3E3E3E"/>
<rect x="863.945" y="834.736" width="27.4687" height="27.4687" fill="#3E3E3E"/>
<rect x="1104.62" y="532.581" width="27.4687" height="27.4687" fill="#3E3E3E"/>
<rect x="1149.1" y="532.581" width="27.4687" height="27.4687" fill="#3E3E3E"/>
<rect x="1193.57" y="532.581" width="27.4687" height="27.4687" fill="#3E3E3E"/>
<rect x="1238.04" y="532.581" width="27.4687" height="27.4687" fill="#3E3E3E"/>
<rect x="1282.52" y="532.581" width="27.4687" height="27.4687" fill="#3E3E3E"/>
<rect x="1326.99" y="532.581" width="27.4687" height="27.4687" fill="#3E3E3E"/>
<rect x="1371.46" y="532.581" width="27.4687" height="27.4687" fill="#3E3E3E"/>
<rect x="1415.94" y="532.581" width="27.4687" height="27.4687" fill="#3E3E3E"/>
<rect x="1104.62" y="575.746" width="27.4687" height="27.4687" fill="#3E3E3E"/>
<rect x="1149.1" y="575.746" width="27.4687" height="27.4687" fill="#3E3E3E"/>
<rect x="1193.57" y="575.746" width="27.4687" height="27.4687" fill="#3E3E3E"/>
<rect x="1238.04" y="575.746" width="27.4687" height="27.4687" fill="#3E3E3E"/>
<rect x="1282.52" y="575.746" width="27.4687" height="27.4687" fill="#3E3E3E"/>
<rect x="1326.99" y="575.746" width="27.4687" height="27.4687" fill="#3E3E3E"/>
<rect x="1371.46" y="575.746" width="27.4687" height="27.4687" fill="#3E3E3E"/>
<rect x="1415.94" y="575.746" width="27.4687" height="27.4687" fill="#3E3E3E"/>
<rect x="1104.62" y="618.911" width="27.4687" height="27.4687" fill="#3E3E3E"/>
<rect x="1149.1" y="618.911" width="27.4687" height="27.4687" fill="#3E3E3E"/>
<rect x="1193.57" y="618.911" width="27.4687" height="27.4687" fill="#3E3E3E"/>
<rect x="1238.04" y="618.911" width="27.4687" height="27.4687" fill="#3E3E3E"/>
<rect x="1282.52" y="618.911" width="27.4687" height="27.4687" fill="#3E3E3E"/>
<rect x="1326.99" y="618.911" width="27.4687" height="27.4687" fill="#3E3E3E"/>
<rect x="1371.46" y="618.911" width="27.4687" height="27.4687" fill="#3E3E3E"/>
<rect x="1415.94" y="618.911" width="27.4687" height="27.4687" fill="#3E3E3E"/>
<rect x="1104.62" y="662.076" width="27.4687" height="27.4687" fill="#3E3E3E"/>
<rect x="1149.1" y="662.076" width="27.4687" height="27.4687" fill="#3E3E3E"/>
<rect x="1193.57" y="662.076" width="27.4687" height="27.4687" fill="#3E3E3E"/>
<rect x="1238.04" y="662.076" width="27.4687" height="27.4687" fill="#3E3E3E"/>
<rect x="1282.52" y="662.076" width="27.4687" height="27.4687" fill="#3E3E3E"/>
<rect x="1326.99" y="662.076" width="27.4687" height="27.4687" fill="#3E3E3E"/>
<rect x="1371.46" y="662.076" width="27.4687" height="27.4687" fill="#3E3E3E"/>
<rect x="1415.94" y="662.076" width="27.4687" height="27.4687" fill="#3E3E3E"/>
<rect x="1104.62" y="705.241" width="27.4687" height="27.4687" fill="#3E3E3E"/>
<rect x="1149.1" y="705.241" width="27.4687" height="27.4687" fill="#3E3E3E"/>
<rect x="1193.57" y="705.241" width="27.4687" height="27.4687" fill="#3E3E3E"/>
<rect x="1238.04" y="705.241" width="27.4687" height="27.4687" fill="#3E3E3E"/>
<rect x="1282.52" y="705.241" width="27.4687" height="27.4687" fill="#3E3E3E"/>
<rect x="1326.99" y="705.241" width="27.4687" height="27.4687" fill="#3E3E3E"/>
<rect x="1371.46" y="705.241" width="27.4687" height="27.4687" fill="#3E3E3E"/>
<rect x="1415.94" y="705.241" width="27.4687" height="27.4687" fill="#3E3E3E"/>
<rect x="1104.62" y="748.406" width="27.4687" height="27.4687" fill="#3E3E3E"/>
<rect x="1149.1" y="748.406" width="27.4687" height="27.4687" fill="#3E3E3E"/>
<rect x="1193.57" y="748.406" width="27.4687" height="27.4687" fill="#3E3E3E"/>
<rect x="1238.04" y="748.406" width="27.4687" height="27.4687" fill="#3E3E3E"/>
<rect x="1282.52" y="748.406" width="27.4687" height="27.4687" fill="#3E3E3E"/>
<rect x="1326.99" y="748.406" width="27.4687" height="27.4687" fill="#3E3E3E"/>
<rect x="1371.46" y="748.406" width="27.4687" height="27.4687" fill="#3E3E3E"/>
<rect x="1415.94" y="748.406" width="27.4687" height="27.4687" fill="#3E3E3E"/>
<rect x="1104.62" y="791.571" width="27.4687" height="27.4687" fill="#3E3E3E"/>
<rect x="1149.1" y="791.571" width="27.4687" height="27.4687" fill="#3E3E3E"/>
<rect x="1193.57" y="791.571" width="27.4687" height="27.4687" fill="#3E3E3E"/>
<rect x="1238.04" y="791.571" width="27.4687" height="27.4687" fill="#3E3E3E"/>
<rect x="1282.52" y="791.571" width="27.4687" height="27.4687" fill="#3E3E3E"/>
<rect x="1326.99" y="791.571" width="27.4687" height="27.4687" fill="#3E3E3E"/>
<rect x="1371.46" y="791.571" width="27.4687" height="27.4687" fill="#3E3E3E"/>
<rect x="1415.94" y="791.571" width="27.4687" height="27.4687" fill="#3E3E3E"/>
<rect x="1104.62" y="834.736" width="27.4687" height="27.4687" fill="#3E3E3E"/>
<rect x="1149.1" y="834.736" width="27.4687" height="27.4687" fill="#3E3E3E"/>
<rect x="1193.57" y="834.736" width="27.4687" height="27.4687" fill="#3E3E3E"/>
<rect x="1238.04" y="834.736" width="27.4687" height="27.4687" fill="#3E3E3E"/>
<rect x="1282.52" y="834.736" width="27.4687" height="27.4687" fill="#3E3E3E"/>
<rect x="1326.99" y="834.736" width="27.4687" height="27.4687" fill="#3E3E3E"/>
<rect x="1371.46" y="834.736" width="27.4687" height="27.4687" fill="#3E3E3E"/>
<rect x="1415.94" y="834.736" width="27.4687" height="27.4687" fill="#3E3E3E"/>
<g filter="url(#filter0_d_984_9250)">
<rect x="1821.43" y="669.03" width="27.4687" height="27.4687" transform="rotate(-67.518 1821.43 669.03)" fill="#19FF14"/>
<rect x="1838.44" y="627.937" width="27.4687" height="27.4687" transform="rotate(-67.518 1838.44 627.937)" fill="#19FF14"/>
<rect x="1855.44" y="586.844" width="27.4687" height="27.4687" transform="rotate(-67.518 1855.44 586.844)" fill="#19FF14"/>
<rect x="1872.45" y="545.751" width="27.4687" height="27.4687" transform="rotate(-67.518 1872.45 545.751)" fill="#19FF14"/>
<rect x="1889.45" y="504.658" width="27.4687" height="27.4687" transform="rotate(-67.518 1889.45 504.658)" fill="#19FF14"/>
<rect x="1906.46" y="463.564" width="27.4687" height="27.4687" transform="rotate(-67.518 1906.46 463.564)" fill="#19FF14"/>
<rect x="1923.47" y="422.471" width="27.4687" height="27.4687" transform="rotate(-67.518 1923.47 422.471)" fill="#19FF14"/>
<rect x="1940.47" y="381.378" width="27.4687" height="27.4687" transform="rotate(-67.518 1940.47 381.378)" fill="#19FF14"/>
<rect x="1861.31" y="685.536" width="27.4687" height="27.4687" transform="rotate(-67.518 1861.31 685.536)" fill="#19FF14"/>
<rect x="1878.32" y="644.443" width="27.4687" height="27.4687" transform="rotate(-67.518 1878.32 644.443)" fill="#19FF14"/>
<rect x="1895.32" y="603.35" width="27.4687" height="27.4687" transform="rotate(-67.518 1895.32 603.35)" fill="#19FF14"/>
<rect x="1912.33" y="562.257" width="27.4687" height="27.4687" transform="rotate(-67.518 1912.33 562.257)" fill="#19FF14"/>
<rect x="1929.34" y="521.164" width="27.4687" height="27.4687" transform="rotate(-67.518 1929.34 521.164)" fill="#19FF14"/>
<rect x="1946.34" y="480.07" width="27.4687" height="27.4687" transform="rotate(-67.518 1946.34 480.07)" fill="#19FF14"/>
<rect x="1963.35" y="438.977" width="27.4687" height="27.4687" transform="rotate(-67.518 1963.35 438.977)" fill="#19FF14"/>
<rect x="1980.36" y="397.884" width="27.4687" height="27.4687" transform="rotate(-67.518 1980.36 397.884)" fill="#19FF14"/>
<rect x="1901.2" y="702.042" width="27.4687" height="27.4687" transform="rotate(-67.518 1901.2 702.042)" fill="#19FF14"/>
<rect x="1918.21" y="660.949" width="27.4687" height="27.4687" transform="rotate(-67.518 1918.21 660.949)" fill="#19FF14"/>
<rect x="1935.21" y="619.856" width="27.4687" height="27.4687" transform="rotate(-67.518 1935.21 619.856)" fill="#19FF14"/>
<rect x="1952.22" y="578.763" width="27.4687" height="27.4687" transform="rotate(-67.518 1952.22 578.763)" fill="#19FF14"/>
<rect x="1969.22" y="537.67" width="27.4687" height="27.4687" transform="rotate(-67.518 1969.22 537.67)" fill="#19FF14"/>
<rect x="1986.23" y="496.577" width="27.4687" height="27.4687" transform="rotate(-67.518 1986.23 496.577)" fill="#19FF14"/>
<rect x="2003.24" y="455.483" width="27.4687" height="27.4687" transform="rotate(-67.518 2003.24 455.483)" fill="#19FF14"/>
<rect x="2020.24" y="414.39" width="27.4687" height="27.4687" transform="rotate(-67.518 2020.24 414.39)" fill="#19FF14"/>
<rect x="1941.08" y="718.548" width="27.4687" height="27.4687" transform="rotate(-67.518 1941.08 718.548)" fill="#19FF14"/>
<rect x="1958.09" y="677.455" width="27.4687" height="27.4687" transform="rotate(-67.518 1958.09 677.455)" fill="#19FF14"/>
<rect x="1975.09" y="636.362" width="27.4687" height="27.4687" transform="rotate(-67.518 1975.09 636.362)" fill="#19FF14"/>
<rect x="1992.1" y="595.269" width="27.4687" height="27.4687" transform="rotate(-67.518 1992.1 595.269)" fill="#19FF14"/>
<rect x="2009.11" y="554.176" width="27.4687" height="27.4687" transform="rotate(-67.518 2009.11 554.176)" fill="#19FF14"/>
<rect x="2026.11" y="513.083" width="27.4687" height="27.4687" transform="rotate(-67.518 2026.11 513.083)" fill="#19FF14"/>
<rect x="2043.12" y="471.989" width="27.4687" height="27.4687" transform="rotate(-67.518 2043.12 471.989)" fill="#19FF14"/>
<rect x="2060.12" y="430.896" width="27.4687" height="27.4687" transform="rotate(-67.518 2060.12 430.896)" fill="#19FF14"/>
<rect x="1980.97" y="735.055" width="27.4687" height="27.4687" transform="rotate(-67.518 1980.97 735.055)" fill="#19FF14"/>
<rect x="1997.98" y="693.961" width="27.4687" height="27.4687" transform="rotate(-67.518 1997.98 693.961)" fill="#19FF14"/>
<rect x="2014.98" y="652.868" width="27.4687" height="27.4687" transform="rotate(-67.518 2014.98 652.868)" fill="#19FF14"/>
<rect x="2031.99" y="611.775" width="27.4687" height="27.4687" transform="rotate(-67.518 2031.99 611.775)" fill="#19FF14"/>
<rect x="2048.99" y="570.682" width="27.4687" height="27.4687" transform="rotate(-67.518 2048.99 570.682)" fill="#19FF14"/>
<rect x="2066" y="529.589" width="27.4687" height="27.4687" transform="rotate(-67.518 2066 529.589)" fill="#19FF14"/>
<rect x="2083.01" y="488.496" width="27.4687" height="27.4687" transform="rotate(-67.518 2083.01 488.496)" fill="#19FF14"/>
<rect x="2100.01" y="447.402" width="27.4687" height="27.4687" transform="rotate(-67.518 2100.01 447.402)" fill="#19FF14"/>
<rect x="2020.85" y="751.561" width="27.4687" height="27.4687" transform="rotate(-67.518 2020.85 751.561)" fill="#19FF14"/>
<rect x="2037.86" y="710.467" width="27.4687" height="27.4687" transform="rotate(-67.518 2037.86 710.467)" fill="#19FF14"/>
<rect x="2054.86" y="669.374" width="27.4687" height="27.4687" transform="rotate(-67.518 2054.86 669.374)" fill="#19FF14"/>
<rect x="2071.87" y="628.281" width="27.4687" height="27.4687" transform="rotate(-67.518 2071.87 628.281)" fill="#19FF14"/>
<rect x="2088.88" y="587.188" width="27.4687" height="27.4687" transform="rotate(-67.518 2088.88 587.188)" fill="#19FF14"/>
<rect x="2105.88" y="546.095" width="27.4687" height="27.4687" transform="rotate(-67.518 2105.88 546.095)" fill="#19FF14"/>
<rect x="2122.89" y="505.001" width="27.4687" height="27.4687" transform="rotate(-67.518 2122.89 505.001)" fill="#19FF14"/>
<rect x="2139.89" y="463.908" width="27.4687" height="27.4687" transform="rotate(-67.518 2139.89 463.908)" fill="#19FF14"/>
<rect x="2060.74" y="768.066" width="27.4687" height="27.4687" transform="rotate(-67.518 2060.74 768.066)" fill="#19FF14"/>
<rect x="2077.75" y="726.973" width="27.4687" height="27.4687" transform="rotate(-67.518 2077.75 726.973)" fill="#19FF14"/>
<rect x="2094.75" y="685.88" width="27.4687" height="27.4687" transform="rotate(-67.518 2094.75 685.88)" fill="#19FF14"/>
<rect x="2111.76" y="644.787" width="27.4687" height="27.4687" transform="rotate(-67.518 2111.76 644.787)" fill="#19FF14"/>
<rect x="2128.76" y="603.694" width="27.4687" height="27.4687" transform="rotate(-67.518 2128.76 603.694)" fill="#19FF14"/>
<rect x="2145.77" y="562.601" width="27.4687" height="27.4687" transform="rotate(-67.518 2145.77 562.601)" fill="#19FF14"/>
<rect x="2162.78" y="521.507" width="27.4687" height="27.4687" transform="rotate(-67.518 2162.78 521.507)" fill="#19FF14"/>
<rect x="2179.78" y="480.414" width="27.4687" height="27.4687" transform="rotate(-67.518 2179.78 480.414)" fill="#19FF14"/>
<rect x="2100.62" y="784.573" width="27.4687" height="27.4687" transform="rotate(-67.518 2100.62 784.573)" fill="#19FF14"/>
<rect x="2117.63" y="743.479" width="27.4687" height="27.4687" transform="rotate(-67.518 2117.63 743.479)" fill="#19FF14"/>
<rect x="2134.63" y="702.386" width="27.4687" height="27.4687" transform="rotate(-67.518 2134.63 702.386)" fill="#19FF14"/>
<rect x="2151.64" y="661.293" width="27.4687" height="27.4687" transform="rotate(-67.518 2151.64 661.293)" fill="#19FF14"/>
<rect x="2168.64" y="620.2" width="27.4687" height="27.4687" transform="rotate(-67.518 2168.64 620.2)" fill="#19FF14"/>
<rect x="2185.65" y="579.107" width="27.4687" height="27.4687" transform="rotate(-67.518 2185.65 579.107)" fill="#19FF14"/>
<rect x="2202.66" y="538.014" width="27.4687" height="27.4687" transform="rotate(-67.518 2202.66 538.014)" fill="#19FF14"/>
<rect x="2219.66" y="496.92" width="27.4687" height="27.4687" transform="rotate(-67.518 2219.66 496.92)" fill="#19FF14"/>
</g>
<rect x="0.644531" y="1063.65" width="27.4687" height="27.4687" fill="#3E3E3E"/>
<rect x="45.1172" y="1063.65" width="27.4687" height="27.4687" fill="#3E3E3E"/>
<rect x="89.5898" y="1063.65" width="27.4687" height="27.4687" fill="#3E3E3E"/>
<rect x="134.062" y="1063.65" width="27.4687" height="27.4687" fill="#3E3E3E"/>
<rect x="178.539" y="1063.65" width="27.4687" height="27.4687" fill="#3E3E3E"/>
<rect x="223.012" y="1063.65" width="27.4687" height="27.4687" fill="#3E3E3E"/>
<rect x="267.484" y="1063.65" width="27.4687" height="27.4687" fill="#3E3E3E"/>
<rect x="311.957" y="1063.65" width="27.4687" height="27.4687" fill="#3E3E3E"/>
<rect x="0.644531" y="1106.81" width="27.4687" height="27.4687" fill="#3E3E3E"/>
<rect x="45.1172" y="1106.81" width="27.4687" height="27.4687" fill="#3E3E3E"/>
<rect x="89.5898" y="1106.81" width="27.4687" height="27.4687" fill="#3E3E3E"/>
<rect x="134.062" y="1106.81" width="27.4687" height="27.4687" fill="#3E3E3E"/>
<rect x="178.539" y="1106.81" width="27.4687" height="27.4687" fill="#3E3E3E"/>
<rect x="223.012" y="1106.81" width="27.4687" height="27.4687" fill="#3E3E3E"/>
<rect x="267.484" y="1106.81" width="27.4687" height="27.4687" fill="#3E3E3E"/>
<rect x="311.957" y="1106.81" width="27.4687" height="27.4687" fill="#3E3E3E"/>
<rect x="0.644531" y="1149.98" width="27.4687" height="27.4687" fill="#3E3E3E"/>
<rect x="45.1172" y="1149.98" width="27.4687" height="27.4687" fill="#3E3E3E"/>
<rect x="89.5898" y="1149.98" width="27.4687" height="27.4687" fill="#3E3E3E"/>
<rect x="134.062" y="1149.98" width="27.4687" height="27.4687" fill="#3E3E3E"/>
<rect x="178.539" y="1149.98" width="27.4687" height="27.4687" fill="#3E3E3E"/>
<rect x="223.012" y="1149.98" width="27.4687" height="27.4687" fill="#3E3E3E"/>
<rect x="267.484" y="1149.98" width="27.4687" height="27.4687" fill="#3E3E3E"/>
<rect x="311.957" y="1149.98" width="27.4687" height="27.4687" fill="#3E3E3E"/>
<rect x="0.644531" y="1193.14" width="27.4687" height="27.4687" fill="#3E3E3E"/>
<rect x="45.1172" y="1193.14" width="27.4687" height="27.4687" fill="#3E3E3E"/>
<rect x="89.5898" y="1193.14" width="27.4687" height="27.4687" fill="#3E3E3E"/>
<rect x="134.062" y="1193.14" width="27.4687" height="27.4687" fill="#3E3E3E"/>
<rect x="178.539" y="1193.14" width="27.4687" height="27.4687" fill="#3E3E3E"/>
<rect x="223.012" y="1193.14" width="27.4687" height="27.4687" fill="#3E3E3E"/>
<rect x="267.484" y="1193.14" width="27.4687" height="27.4687" fill="#3E3E3E"/>
<rect x="311.957" y="1193.14" width="27.4687" height="27.4687" fill="#3E3E3E"/>
<rect x="0.644531" y="1236.31" width="27.4687" height="27.4687" fill="#3E3E3E"/>
<rect x="45.1172" y="1236.31" width="27.4687" height="27.4687" fill="#3E3E3E"/>
<rect x="89.5898" y="1236.31" width="27.4687" height="27.4687" fill="#3E3E3E"/>
<rect x="134.062" y="1236.31" width="27.4687" height="27.4687" fill="#3E3E3E"/>
<rect x="178.539" y="1236.31" width="27.4687" height="27.4687" fill="#3E3E3E"/>
<rect x="223.012" y="1236.31" width="27.4687" height="27.4687" fill="#3E3E3E"/>
<rect x="267.484" y="1236.31" width="27.4687" height="27.4687" fill="#3E3E3E"/>
<rect x="311.957" y="1236.31" width="27.4687" height="27.4687" fill="#3E3E3E"/>
<rect x="0.644531" y="1279.47" width="27.4687" height="27.4687" fill="#3E3E3E"/>
<rect x="45.1172" y="1279.47" width="27.4687" height="27.4687" fill="#3E3E3E"/>
<rect x="89.5898" y="1279.47" width="27.4687" height="27.4687" fill="#3E3E3E"/>
<rect x="134.062" y="1279.47" width="27.4687" height="27.4687" fill="#3E3E3E"/>
<rect x="178.539" y="1279.47" width="27.4687" height="27.4687" fill="#3E3E3E"/>
<rect x="223.012" y="1279.47" width="27.4687" height="27.4687" fill="#3E3E3E"/>
<rect x="267.484" y="1279.47" width="27.4687" height="27.4687" fill="#3E3E3E"/>
<rect x="311.957" y="1279.47" width="27.4687" height="27.4687" fill="#3E3E3E"/>
<rect x="0.644531" y="1322.64" width="27.4687" height="27.4687" fill="#3E3E3E"/>
<rect x="45.1172" y="1322.64" width="27.4687" height="27.4687" fill="#3E3E3E"/>
<rect x="89.5898" y="1322.64" width="27.4687" height="27.4687" fill="#3E3E3E"/>
<rect x="134.062" y="1322.64" width="27.4687" height="27.4687" fill="#3E3E3E"/>
<rect x="178.539" y="1322.64" width="27.4687" height="27.4687" fill="#3E3E3E"/>
<rect x="223.012" y="1322.64" width="27.4687" height="27.4687" fill="#3E3E3E"/>
<rect x="267.484" y="1322.64" width="27.4687" height="27.4687" fill="#3E3E3E"/>
<rect x="311.957" y="1322.64" width="27.4687" height="27.4687" fill="#3E3E3E"/>
<rect x="0.644531" y="1365.8" width="27.4687" height="27.4687" fill="#3E3E3E"/>
<rect x="45.1172" y="1365.8" width="27.4687" height="27.4687" fill="#3E3E3E"/>
<rect x="89.5898" y="1365.8" width="27.4687" height="27.4687" fill="#3E3E3E"/>
<rect x="134.062" y="1365.8" width="27.4687" height="27.4687" fill="#3E3E3E"/>
<rect x="178.539" y="1365.8" width="27.4687" height="27.4687" fill="#3E3E3E"/>
<rect x="223.012" y="1365.8" width="27.4687" height="27.4687" fill="#3E3E3E"/>
<rect x="267.484" y="1365.8" width="27.4687" height="27.4687" fill="#3E3E3E"/>
<rect x="311.957" y="1365.8" width="27.4687" height="27.4687" fill="#3E3E3E"/>
<rect x="552.633" y="1063.65" width="27.4687" height="27.4687" fill="#3E3E3E"/>
<rect x="597.105" y="1063.65" width="27.4687" height="27.4687" fill="#3E3E3E"/>
<rect x="641.578" y="1063.65" width="27.4687" height="27.4687" fill="#3E3E3E"/>
<rect x="686.051" y="1063.65" width="27.4687" height="27.4687" fill="#3E3E3E"/>
<rect x="730.523" y="1063.65" width="27.4687" height="27.4687" fill="#3E3E3E"/>
<rect x="775" y="1063.65" width="27.4687" height="27.4687" fill="#3E3E3E"/>
<rect x="819.473" y="1063.65" width="27.4687" height="27.4687" fill="#3E3E3E"/>
<rect x="863.945" y="1063.65" width="27.4687" height="27.4687" fill="#3E3E3E"/>
<rect x="552.633" y="1106.81" width="27.4687" height="27.4687" fill="#3E3E3E"/>
<rect x="597.105" y="1106.81" width="27.4687" height="27.4687" fill="#3E3E3E"/>
<rect x="641.578" y="1106.81" width="27.4687" height="27.4687" fill="#3E3E3E"/>
<rect x="686.051" y="1106.81" width="27.4687" height="27.4687" fill="#3E3E3E"/>
<rect x="730.523" y="1106.81" width="27.4687" height="27.4687" fill="#3E3E3E"/>
<rect x="775" y="1106.81" width="27.4687" height="27.4687" fill="#3E3E3E"/>
<rect x="819.473" y="1106.81" width="27.4687" height="27.4687" fill="#3E3E3E"/>
<rect x="863.945" y="1106.81" width="27.4687" height="27.4687" fill="#3E3E3E"/>
<rect x="552.633" y="1149.98" width="27.4687" height="27.4687" fill="#3E3E3E"/>
<rect x="597.105" y="1149.98" width="27.4687" height="27.4687" fill="#3E3E3E"/>
<rect x="641.578" y="1149.98" width="27.4687" height="27.4687" fill="#3E3E3E"/>
<rect x="686.051" y="1149.98" width="27.4687" height="27.4687" fill="#3E3E3E"/>
<rect x="730.523" y="1149.98" width="27.4687" height="27.4687" fill="#3E3E3E"/>
<rect x="775" y="1149.98" width="27.4687" height="27.4687" fill="#3E3E3E"/>
<rect x="819.473" y="1149.98" width="27.4687" height="27.4687" fill="#3E3E3E"/>
<rect x="863.945" y="1149.98" width="27.4687" height="27.4687" fill="#3E3E3E"/>
<rect x="552.633" y="1193.14" width="27.4687" height="27.4687" fill="#3E3E3E"/>
<rect x="597.105" y="1193.14" width="27.4687" height="27.4687" fill="#3E3E3E"/>
<rect x="641.578" y="1193.14" width="27.4687" height="27.4687" fill="#3E3E3E"/>
<rect x="686.051" y="1193.14" width="27.4687" height="27.4687" fill="#3E3E3E"/>
<rect x="730.523" y="1193.14" width="27.4687" height="27.4687" fill="#3E3E3E"/>
<rect x="775" y="1193.14" width="27.4687" height="27.4687" fill="#3E3E3E"/>
<rect x="819.473" y="1193.14" width="27.4687" height="27.4687" fill="#3E3E3E"/>
<rect x="863.945" y="1193.14" width="27.4687" height="27.4687" fill="#3E3E3E"/>
<rect x="552.633" y="1236.31" width="27.4687" height="27.4687" fill="#3E3E3E"/>
<rect x="597.105" y="1236.31" width="27.4687" height="27.4687" fill="#3E3E3E"/>
<rect x="641.578" y="1236.31" width="27.4687" height="27.4687" fill="#3E3E3E"/>
<rect x="686.051" y="1236.31" width="27.4687" height="27.4687" fill="#3E3E3E"/>
<rect x="730.523" y="1236.31" width="27.4687" height="27.4687" fill="#3E3E3E"/>
<rect x="775" y="1236.31" width="27.4687" height="27.4687" fill="#3E3E3E"/>
<rect x="819.473" y="1236.31" width="27.4687" height="27.4687" fill="#3E3E3E"/>
<rect x="863.945" y="1236.31" width="27.4687" height="27.4687" fill="#3E3E3E"/>
<rect x="552.633" y="1279.47" width="27.4687" height="27.4687" fill="#3E3E3E"/>
<rect x="597.105" y="1279.47" width="27.4687" height="27.4687" fill="#3E3E3E"/>
<rect x="641.578" y="1279.47" width="27.4687" height="27.4687" fill="#3E3E3E"/>
<rect x="686.051" y="1279.47" width="27.4687" height="27.4687" fill="#3E3E3E"/>
<rect x="730.523" y="1279.47" width="27.4687" height="27.4687" fill="#3E3E3E"/>
<rect x="775" y="1279.47" width="27.4687" height="27.4687" fill="#3E3E3E"/>
<rect x="819.473" y="1279.47" width="27.4687" height="27.4687" fill="#3E3E3E"/>
<rect x="863.945" y="1279.47" width="27.4687" height="27.4687" fill="#3E3E3E"/>
<rect x="552.633" y="1322.64" width="27.4687" height="27.4687" fill="#3E3E3E"/>
<rect x="597.105" y="1322.64" width="27.4687" height="27.4687" fill="#3E3E3E"/>
<rect x="641.578" y="1322.64" width="27.4687" height="27.4687" fill="#3E3E3E"/>
<rect x="686.051" y="1322.64" width="27.4687" height="27.4687" fill="#3E3E3E"/>
<rect x="730.523" y="1322.64" width="27.4687" height="27.4687" fill="#3E3E3E"/>
<rect x="775" y="1322.64" width="27.4687" height="27.4687" fill="#3E3E3E"/>
<rect x="819.473" y="1322.64" width="27.4687" height="27.4687" fill="#3E3E3E"/>
<rect x="863.945" y="1322.64" width="27.4687" height="27.4687" fill="#3E3E3E"/>
<rect x="552.633" y="1365.8" width="27.4687" height="27.4687" fill="#3E3E3E"/>
<rect x="597.105" y="1365.8" width="27.4687" height="27.4687" fill="#3E3E3E"/>
<rect x="641.578" y="1365.8" width="27.4687" height="27.4687" fill="#3E3E3E"/>
<rect x="686.051" y="1365.8" width="27.4687" height="27.4687" fill="#3E3E3E"/>
<rect x="730.523" y="1365.8" width="27.4687" height="27.4687" fill="#3E3E3E"/>
<rect x="775" y="1365.8" width="27.4687" height="27.4687" fill="#3E3E3E"/>
<rect x="819.473" y="1365.8" width="27.4687" height="27.4687" fill="#3E3E3E"/>
<rect x="863.945" y="1365.8" width="27.4687" height="27.4687" fill="#3E3E3E"/>
<rect x="1104.62" y="1063.65" width="27.4687" height="27.4687" fill="#3E3E3E"/>
<rect x="1149.1" y="1063.65" width="27.4687" height="27.4687" fill="#3E3E3E"/>
<rect x="1193.57" y="1063.65" width="27.4687" height="27.4687" fill="#3E3E3E"/>
<rect x="1238.04" y="1063.65" width="27.4687" height="27.4687" fill="#3E3E3E"/>
<rect x="1282.52" y="1063.65" width="27.4687" height="27.4687" fill="#3E3E3E"/>
<rect x="1326.99" y="1063.65" width="27.4687" height="27.4687" fill="#3E3E3E"/>
<rect x="1371.46" y="1063.65" width="27.4687" height="27.4687" fill="#3E3E3E"/>
<rect x="1415.94" y="1063.65" width="27.4687" height="27.4687" fill="#3E3E3E"/>
<rect x="1104.62" y="1106.81" width="27.4687" height="27.4687" fill="#3E3E3E"/>
<rect x="1149.1" y="1106.81" width="27.4687" height="27.4687" fill="#3E3E3E"/>
<rect x="1193.57" y="1106.81" width="27.4687" height="27.4687" fill="#3E3E3E"/>
<rect x="1238.04" y="1106.81" width="27.4687" height="27.4687" fill="#3E3E3E"/>
<rect x="1282.52" y="1106.81" width="27.4687" height="27.4687" fill="#3E3E3E"/>
<rect x="1326.99" y="1106.81" width="27.4687" height="27.4687" fill="#3E3E3E"/>
<rect x="1371.46" y="1106.81" width="27.4687" height="27.4687" fill="#3E3E3E"/>
<rect x="1415.94" y="1106.81" width="27.4687" height="27.4687" fill="#3E3E3E"/>
<rect x="1104.62" y="1149.98" width="27.4687" height="27.4687" fill="#3E3E3E"/>
<rect x="1149.1" y="1149.98" width="27.4687" height="27.4687" fill="#3E3E3E"/>
<rect x="1193.57" y="1149.98" width="27.4687" height="27.4687" fill="#3E3E3E"/>
<rect x="1238.04" y="1149.98" width="27.4687" height="27.4687" fill="#3E3E3E"/>
<rect x="1282.52" y="1149.98" width="27.4687" height="27.4687" fill="#3E3E3E"/>
<rect x="1326.99" y="1149.98" width="27.4687" height="27.4687" fill="#3E3E3E"/>
<rect x="1371.46" y="1149.98" width="27.4687" height="27.4687" fill="#3E3E3E"/>
<rect x="1415.94" y="1149.98" width="27.4687" height="27.4687" fill="#3E3E3E"/>
<rect x="1104.62" y="1193.14" width="27.4687" height="27.4687" fill="#3E3E3E"/>
<rect x="1149.1" y="1193.14" width="27.4687" height="27.4687" fill="#3E3E3E"/>
<rect x="1193.57" y="1193.14" width="27.4687" height="27.4687" fill="#3E3E3E"/>
<rect x="1238.04" y="1193.14" width="27.4687" height="27.4687" fill="#3E3E3E"/>
<rect x="1282.52" y="1193.14" width="27.4687" height="27.4687" fill="#3E3E3E"/>
<rect x="1326.99" y="1193.14" width="27.4687" height="27.4687" fill="#3E3E3E"/>
<rect x="1371.46" y="1193.14" width="27.4687" height="27.4687" fill="#3E3E3E"/>
<rect x="1415.94" y="1193.14" width="27.4687" height="27.4687" fill="#3E3E3E"/>
<rect x="1104.62" y="1236.31" width="27.4687" height="27.4687" fill="#3E3E3E"/>
<rect x="1149.1" y="1236.31" width="27.4687" height="27.4687" fill="#3E3E3E"/>
<rect x="1193.57" y="1236.31" width="27.4687" height="27.4687" fill="#3E3E3E"/>
<rect x="1238.04" y="1236.31" width="27.4687" height="27.4687" fill="#3E3E3E"/>
<rect x="1282.52" y="1236.31" width="27.4687" height="27.4687" fill="#3E3E3E"/>
<rect x="1326.99" y="1236.31" width="27.4687" height="27.4687" fill="#3E3E3E"/>
<rect x="1371.46" y="1236.31" width="27.4687" height="27.4687" fill="#3E3E3E"/>
<rect x="1415.94" y="1236.31" width="27.4687" height="27.4687" fill="#3E3E3E"/>
<rect x="1104.62" y="1279.47" width="27.4687" height="27.4687" fill="#3E3E3E"/>
<rect x="1149.1" y="1279.47" width="27.4687" height="27.4687" fill="#3E3E3E"/>
<rect x="1193.57" y="1279.47" width="27.4687" height="27.4687" fill="#3E3E3E"/>
<rect x="1238.04" y="1279.47" width="27.4687" height="27.4687" fill="#3E3E3E"/>
<rect x="1282.52" y="1279.47" width="27.4687" height="27.4687" fill="#3E3E3E"/>
<rect x="1326.99" y="1279.47" width="27.4687" height="27.4687" fill="#3E3E3E"/>
<rect x="1371.46" y="1279.47" width="27.4687" height="27.4687" fill="#3E3E3E"/>
<rect x="1415.94" y="1279.47" width="27.4687" height="27.4687" fill="#3E3E3E"/>
<rect x="1104.62" y="1322.64" width="27.4687" height="27.4687" fill="#3E3E3E"/>
<rect x="1149.1" y="1322.64" width="27.4687" height="27.4687" fill="#3E3E3E"/>
<rect x="1193.57" y="1322.64" width="27.4687" height="27.4687" fill="#3E3E3E"/>
<rect x="1238.04" y="1322.64" width="27.4687" height="27.4687" fill="#3E3E3E"/>
<rect x="1282.52" y="1322.64" width="27.4687" height="27.4687" fill="#3E3E3E"/>
<rect x="1326.99" y="1322.64" width="27.4687" height="27.4687" fill="#3E3E3E"/>
<rect x="1371.46" y="1322.64" width="27.4687" height="27.4687" fill="#3E3E3E"/>
<rect x="1415.94" y="1322.64" width="27.4687" height="27.4687" fill="#3E3E3E"/>
<rect x="1104.62" y="1365.8" width="27.4687" height="27.4687" fill="#3E3E3E"/>
<rect x="1149.1" y="1365.8" width="27.4687" height="27.4687" fill="#3E3E3E"/>
<rect x="1193.57" y="1365.8" width="27.4687" height="27.4687" fill="#3E3E3E"/>
<rect x="1238.04" y="1365.8" width="27.4687" height="27.4687" fill="#3E3E3E"/>
<rect x="1282.52" y="1365.8" width="27.4687" height="27.4687" fill="#3E3E3E"/>
<rect x="1326.99" y="1365.8" width="27.4687" height="27.4687" fill="#3E3E3E"/>
<rect x="1371.46" y="1365.8" width="27.4687" height="27.4687" fill="#3E3E3E"/>
<rect x="1415.94" y="1365.8" width="27.4687" height="27.4687" fill="#3E3E3E"/>
<rect x="1656.62" y="1063.65" width="27.4687" height="27.4687" fill="#3E3E3E"/>
<rect x="1701.09" y="1063.65" width="27.4687" height="27.4687" fill="#3E3E3E"/>
<rect x="1745.56" y="1063.65" width="27.4687" height="27.4687" fill="#3E3E3E"/>
<rect x="1790.04" y="1063.65" width="27.4687" height="27.4687" fill="#3E3E3E"/>
<rect x="1834.51" y="1063.65" width="27.4687" height="27.4687" fill="#3E3E3E"/>
<rect x="1878.98" y="1063.65" width="27.4687" height="27.4687" fill="#3E3E3E"/>
<rect x="1923.46" y="1063.65" width="27.4687" height="27.4687" fill="#3E3E3E"/>
<rect x="1967.93" y="1063.65" width="27.4687" height="27.4687" fill="#3E3E3E"/>
<rect x="1656.62" y="1106.81" width="27.4687" height="27.4687" fill="#3E3E3E"/>
<rect x="1701.09" y="1106.81" width="27.4687" height="27.4687" fill="#3E3E3E"/>
<rect x="1745.56" y="1106.81" width="27.4687" height="27.4687" fill="#3E3E3E"/>
<rect x="1790.04" y="1106.81" width="27.4687" height="27.4687" fill="#3E3E3E"/>
<rect x="1834.51" y="1106.81" width="27.4687" height="27.4687" fill="#3E3E3E"/>
<rect x="1878.98" y="1106.81" width="27.4687" height="27.4687" fill="#3E3E3E"/>
<rect x="1923.46" y="1106.81" width="27.4687" height="27.4687" fill="#3E3E3E"/>
<rect x="1967.93" y="1106.81" width="27.4687" height="27.4687" fill="#3E3E3E"/>
<rect x="1656.62" y="1149.98" width="27.4687" height="27.4687" fill="#3E3E3E"/>
<rect x="1701.09" y="1149.98" width="27.4687" height="27.4687" fill="#3E3E3E"/>
<rect x="1745.56" y="1149.98" width="27.4687" height="27.4687" fill="#3E3E3E"/>
<rect x="1790.04" y="1149.98" width="27.4687" height="27.4687" fill="#3E3E3E"/>
<rect x="1834.51" y="1149.98" width="27.4687" height="27.4687" fill="#3E3E3E"/>
<rect x="1878.98" y="1149.98" width="27.4687" height="27.4687" fill="#3E3E3E"/>
<rect x="1923.46" y="1149.98" width="27.4687" height="27.4687" fill="#3E3E3E"/>
<rect x="1967.93" y="1149.98" width="27.4687" height="27.4687" fill="#3E3E3E"/>
<rect x="1656.62" y="1193.14" width="27.4687" height="27.4687" fill="#3E3E3E"/>
<rect x="1701.09" y="1193.14" width="27.4687" height="27.4687" fill="#3E3E3E"/>
<rect x="1745.56" y="1193.14" width="27.4687" height="27.4687" fill="#3E3E3E"/>
<rect x="1790.04" y="1193.14" width="27.4687" height="27.4687" fill="#3E3E3E"/>
<rect x="1834.51" y="1193.14" width="27.4687" height="27.4687" fill="#3E3E3E"/>
<rect x="1878.98" y="1193.14" width="27.4687" height="27.4687" fill="#3E3E3E"/>
<rect x="1923.46" y="1193.14" width="27.4687" height="27.4687" fill="#3E3E3E"/>
<rect x="1967.93" y="1193.14" width="27.4687" height="27.4687" fill="#3E3E3E"/>
<rect x="1656.62" y="1236.31" width="27.4687" height="27.4687" fill="#3E3E3E"/>
<rect x="1701.09" y="1236.31" width="27.4687" height="27.4687" fill="#3E3E3E"/>
<rect x="1745.56" y="1236.31" width="27.4687" height="27.4687" fill="#3E3E3E"/>
<rect x="1790.04" y="1236.31" width="27.4687" height="27.4687" fill="#3E3E3E"/>
<rect x="1834.51" y="1236.31" width="27.4687" height="27.4687" fill="#3E3E3E"/>
<rect x="1878.98" y="1236.31" width="27.4687" height="27.4687" fill="#3E3E3E"/>
<rect x="1923.46" y="1236.31" width="27.4687" height="27.4687" fill="#3E3E3E"/>
<rect x="1967.93" y="1236.31" width="27.4687" height="27.4687" fill="#3E3E3E"/>
<rect x="1656.62" y="1279.47" width="27.4687" height="27.4687" fill="#3E3E3E"/>
<rect x="1701.09" y="1279.47" width="27.4687" height="27.4687" fill="#3E3E3E"/>
<rect x="1745.56" y="1279.47" width="27.4687" height="27.4687" fill="#3E3E3E"/>
<rect x="1790.04" y="1279.47" width="27.4687" height="27.4687" fill="#3E3E3E"/>
<rect x="1834.51" y="1279.47" width="27.4687" height="27.4687" fill="#3E3E3E"/>
<rect x="1878.98" y="1279.47" width="27.4687" height="27.4687" fill="#3E3E3E"/>
<rect x="1923.46" y="1279.47" width="27.4687" height="27.4687" fill="#3E3E3E"/>
<rect x="1967.93" y="1279.47" width="27.4687" height="27.4687" fill="#3E3E3E"/>
<rect x="1656.62" y="1322.64" width="27.4687" height="27.4687" fill="#3E3E3E"/>
<rect x="1701.09" y="1322.64" width="27.4687" height="27.4687" fill="#3E3E3E"/>
<rect x="1745.56" y="1322.64" width="27.4687" height="27.4687" fill="#3E3E3E"/>
<rect x="1790.04" y="1322.64" width="27.4687" height="27.4687" fill="#3E3E3E"/>
<rect x="1834.51" y="1322.64" width="27.4687" height="27.4687" fill="#3E3E3E"/>
<rect x="1878.98" y="1322.64" width="27.4687" height="27.4687" fill="#3E3E3E"/>
<rect x="1923.46" y="1322.64" width="27.4687" height="27.4687" fill="#3E3E3E"/>
<rect x="1967.93" y="1322.64" width="27.4687" height="27.4687" fill="#3E3E3E"/>
<rect x="1656.62" y="1365.8" width="27.4687" height="27.4687" fill="#3E3E3E"/>
<rect x="1701.09" y="1365.8" width="27.4687" height="27.4687" fill="#3E3E3E"/>
<rect x="1745.56" y="1365.8" width="27.4687" height="27.4687" fill="#3E3E3E"/>
<rect x="1790.04" y="1365.8" width="27.4687" height="27.4687" fill="#3E3E3E"/>
<rect x="1834.51" y="1365.8" width="27.4687" height="27.4687" fill="#3E3E3E"/>
<rect x="1878.98" y="1365.8" width="27.4687" height="27.4687" fill="#3E3E3E"/>
<rect x="1923.46" y="1365.8" width="27.4687" height="27.4687" fill="#3E3E3E"/>
<rect x="1967.93" y="1365.8" width="27.4687" height="27.4687" fill="#3E3E3E"/>
<rect x="0.644531" y="1594.71" width="27.4687" height="27.4687" fill="#3E3E3E"/>
<rect x="45.1172" y="1594.71" width="27.4687" height="27.4687" fill="#3E3E3E"/>
<rect x="89.5898" y="1594.71" width="27.4687" height="27.4687" fill="#3E3E3E"/>
<rect x="134.062" y="1594.71" width="27.4687" height="27.4687" fill="#3E3E3E"/>
<rect x="178.539" y="1594.71" width="27.4687" height="27.4687" fill="#3E3E3E"/>
<rect x="223.012" y="1594.71" width="27.4687" height="27.4687" fill="#3E3E3E"/>
<rect x="267.484" y="1594.71" width="27.4687" height="27.4687" fill="#3E3E3E"/>
<rect x="311.957" y="1594.71" width="27.4687" height="27.4687" fill="#3E3E3E"/>
<rect x="0.644531" y="1637.87" width="27.4687" height="27.4687" fill="#3E3E3E"/>
<rect x="45.1172" y="1637.87" width="27.4687" height="27.4687" fill="#3E3E3E"/>
<rect x="89.5898" y="1637.87" width="27.4687" height="27.4687" fill="#3E3E3E"/>
<rect x="134.062" y="1637.87" width="27.4687" height="27.4687" fill="#3E3E3E"/>
<rect x="178.539" y="1637.87" width="27.4687" height="27.4687" fill="#3E3E3E"/>
<rect x="223.012" y="1637.87" width="27.4687" height="27.4687" fill="#3E3E3E"/>
<rect x="267.484" y="1637.87" width="27.4687" height="27.4687" fill="#3E3E3E"/>
<rect x="311.957" y="1637.87" width="27.4687" height="27.4687" fill="#3E3E3E"/>
<rect x="0.644531" y="1681.04" width="27.4687" height="27.4687" fill="#3E3E3E"/>
<rect x="45.1172" y="1681.04" width="27.4687" height="27.4687" fill="#3E3E3E"/>
<rect x="89.5898" y="1681.04" width="27.4687" height="27.4687" fill="#3E3E3E"/>
<rect x="134.062" y="1681.04" width="27.4687" height="27.4687" fill="#3E3E3E"/>
<rect x="178.539" y="1681.04" width="27.4687" height="27.4687" fill="#3E3E3E"/>
<rect x="223.012" y="1681.04" width="27.4687" height="27.4687" fill="#3E3E3E"/>
<rect x="267.484" y="1681.04" width="27.4687" height="27.4687" fill="#3E3E3E"/>
<rect x="311.957" y="1681.04" width="27.4687" height="27.4687" fill="#3E3E3E"/>
<rect x="0.644531" y="1724.2" width="27.4687" height="27.4687" fill="#3E3E3E"/>
<rect x="45.1172" y="1724.2" width="27.4687" height="27.4687" fill="#3E3E3E"/>
<rect x="89.5898" y="1724.2" width="27.4687" height="27.4687" fill="#3E3E3E"/>
<rect x="134.062" y="1724.2" width="27.4687" height="27.4687" fill="#3E3E3E"/>
<rect x="178.539" y="1724.2" width="27.4687" height="27.4687" fill="#3E3E3E"/>
<rect x="223.012" y="1724.2" width="27.4687" height="27.4687" fill="#3E3E3E"/>
<rect x="267.484" y="1724.2" width="27.4687" height="27.4687" fill="#3E3E3E"/>
<rect x="311.957" y="1724.2" width="27.4687" height="27.4687" fill="#3E3E3E"/>
<rect x="0.644531" y="1767.37" width="27.4687" height="27.4687" fill="#3E3E3E"/>
<rect x="45.1172" y="1767.37" width="27.4687" height="27.4687" fill="#3E3E3E"/>
<rect x="89.5898" y="1767.37" width="27.4687" height="27.4687" fill="#3E3E3E"/>
<rect x="134.062" y="1767.37" width="27.4687" height="27.4687" fill="#3E3E3E"/>
<rect x="178.539" y="1767.37" width="27.4687" height="27.4687" fill="#3E3E3E"/>
<rect x="223.012" y="1767.37" width="27.4687" height="27.4687" fill="#3E3E3E"/>
<rect x="267.484" y="1767.37" width="27.4687" height="27.4687" fill="#3E3E3E"/>
<rect x="311.957" y="1767.37" width="27.4687" height="27.4687" fill="#3E3E3E"/>
<rect x="0.644531" y="1810.53" width="27.4687" height="27.4687" fill="#3E3E3E"/>
<rect x="45.1172" y="1810.53" width="27.4687" height="27.4687" fill="#3E3E3E"/>
<rect x="89.5898" y="1810.53" width="27.4687" height="27.4687" fill="#3E3E3E"/>
<rect x="134.062" y="1810.53" width="27.4687" height="27.4687" fill="#3E3E3E"/>
<rect x="178.539" y="1810.53" width="27.4687" height="27.4687" fill="#3E3E3E"/>
<rect x="223.012" y="1810.53" width="27.4687" height="27.4687" fill="#3E3E3E"/>
<rect x="267.484" y="1810.53" width="27.4687" height="27.4687" fill="#3E3E3E"/>
<rect x="311.957" y="1810.53" width="27.4687" height="27.4687" fill="#3E3E3E"/>
<rect x="0.644531" y="1853.7" width="27.4687" height="27.4687" fill="#3E3E3E"/>
<rect x="45.1172" y="1853.7" width="27.4687" height="27.4687" fill="#3E3E3E"/>
<rect x="89.5898" y="1853.7" width="27.4687" height="27.4687" fill="#3E3E3E"/>
<rect x="134.062" y="1853.7" width="27.4687" height="27.4687" fill="#3E3E3E"/>
<rect x="178.539" y="1853.7" width="27.4687" height="27.4687" fill="#3E3E3E"/>
<rect x="223.012" y="1853.7" width="27.4687" height="27.4687" fill="#3E3E3E"/>
<rect x="267.484" y="1853.7" width="27.4687" height="27.4687" fill="#3E3E3E"/>
<rect x="311.957" y="1853.7" width="27.4687" height="27.4687" fill="#3E3E3E"/>
<rect x="0.644531" y="1896.86" width="27.4687" height="27.4687" fill="#3E3E3E"/>
<rect x="45.1172" y="1896.86" width="27.4687" height="27.4687" fill="#3E3E3E"/>
<rect x="89.5898" y="1896.86" width="27.4687" height="27.4687" fill="#3E3E3E"/>
<rect x="134.062" y="1896.86" width="27.4687" height="27.4687" fill="#3E3E3E"/>
<rect x="178.539" y="1896.86" width="27.4687" height="27.4687" fill="#3E3E3E"/>
<rect x="223.012" y="1896.86" width="27.4687" height="27.4687" fill="#3E3E3E"/>
<rect x="267.484" y="1896.86" width="27.4687" height="27.4687" fill="#3E3E3E"/>
<rect x="311.957" y="1896.86" width="27.4687" height="27.4687" fill="#3E3E3E"/>
<rect x="552.633" y="1594.71" width="27.4687" height="27.4687" fill="#3E3E3E"/>
<rect x="597.105" y="1594.71" width="27.4687" height="27.4687" fill="#3E3E3E"/>
<rect x="641.578" y="1594.71" width="27.4687" height="27.4687" fill="#3E3E3E"/>
<rect x="686.051" y="1594.71" width="27.4687" height="27.4687" fill="#3E3E3E"/>
<rect x="730.523" y="1594.71" width="27.4687" height="27.4687" fill="#3E3E3E"/>
<rect x="775" y="1594.71" width="27.4687" height="27.4687" fill="#3E3E3E"/>
<rect x="819.473" y="1594.71" width="27.4687" height="27.4687" fill="#3E3E3E"/>
<rect x="863.945" y="1594.71" width="27.4687" height="27.4687" fill="#3E3E3E"/>
<rect x="552.633" y="1637.87" width="27.4687" height="27.4687" fill="#3E3E3E"/>
<rect x="597.105" y="1637.87" width="27.4687" height="27.4687" fill="#3E3E3E"/>
<rect x="641.578" y="1637.87" width="27.4687" height="27.4687" fill="#3E3E3E"/>
<rect x="686.051" y="1637.87" width="27.4687" height="27.4687" fill="#3E3E3E"/>
<rect x="730.523" y="1637.87" width="27.4687" height="27.4687" fill="#3E3E3E"/>
<rect x="775" y="1637.87" width="27.4687" height="27.4687" fill="#3E3E3E"/>
<rect x="819.473" y="1637.87" width="27.4687" height="27.4687" fill="#3E3E3E"/>
<rect x="863.945" y="1637.87" width="27.4687" height="27.4687" fill="#3E3E3E"/>
<rect x="552.633" y="1681.04" width="27.4687" height="27.4687" fill="#3E3E3E"/>
<rect x="597.105" y="1681.04" width="27.4687" height="27.4687" fill="#3E3E3E"/>
<rect x="641.578" y="1681.04" width="27.4687" height="27.4687" fill="#3E3E3E"/>
<rect x="686.051" y="1681.04" width="27.4687" height="27.4687" fill="#3E3E3E"/>
<rect x="730.523" y="1681.04" width="27.4687" height="27.4687" fill="#3E3E3E"/>
<rect x="775" y="1681.04" width="27.4687" height="27.4687" fill="#3E3E3E"/>
<rect x="819.473" y="1681.04" width="27.4687" height="27.4687" fill="#3E3E3E"/>
<rect x="863.945" y="1681.04" width="27.4687" height="27.4687" fill="#3E3E3E"/>
<rect x="552.633" y="1724.2" width="27.4687" height="27.4687" fill="#3E3E3E"/>
<rect x="597.105" y="1724.2" width="27.4687" height="27.4687" fill="#3E3E3E"/>
<rect x="641.578" y="1724.2" width="27.4687" height="27.4687" fill="#3E3E3E"/>
<rect x="686.051" y="1724.2" width="27.4687" height="27.4687" fill="#3E3E3E"/>
<rect x="730.523" y="1724.2" width="27.4687" height="27.4687" fill="#3E3E3E"/>
<rect x="775" y="1724.2" width="27.4687" height="27.4687" fill="#3E3E3E"/>
<rect x="819.473" y="1724.2" width="27.4687" height="27.4687" fill="#3E3E3E"/>
<rect x="863.945" y="1724.2" width="27.4687" height="27.4687" fill="#3E3E3E"/>
<rect x="552.633" y="1767.37" width="27.4687" height="27.4687" fill="#3E3E3E"/>
<rect x="597.105" y="1767.37" width="27.4687" height="27.4687" fill="#3E3E3E"/>
<rect x="641.578" y="1767.37" width="27.4687" height="27.4687" fill="#3E3E3E"/>
<rect x="686.051" y="1767.37" width="27.4687" height="27.4687" fill="#3E3E3E"/>
<rect x="730.523" y="1767.37" width="27.4687" height="27.4687" fill="#3E3E3E"/>
<rect x="775" y="1767.37" width="27.4687" height="27.4687" fill="#3E3E3E"/>
<rect x="819.473" y="1767.37" width="27.4687" height="27.4687" fill="#3E3E3E"/>
<rect x="863.945" y="1767.37" width="27.4687" height="27.4687" fill="#3E3E3E"/>
<rect x="552.633" y="1810.53" width="27.4687" height="27.4687" fill="#3E3E3E"/>
<rect x="597.105" y="1810.53" width="27.4687" height="27.4687" fill="#3E3E3E"/>
<rect x="641.578" y="1810.53" width="27.4687" height="27.4687" fill="#3E3E3E"/>
<rect x="686.051" y="1810.53" width="27.4687" height="27.4687" fill="#3E3E3E"/>
<rect x="730.523" y="1810.53" width="27.4687" height="27.4687" fill="#3E3E3E"/>
<rect x="775" y="1810.53" width="27.4687" height="27.4687" fill="#3E3E3E"/>
<rect x="819.473" y="1810.53" width="27.4687" height="27.4687" fill="#3E3E3E"/>
<rect x="863.945" y="1810.53" width="27.4687" height="27.4687" fill="#3E3E3E"/>
<rect x="552.633" y="1853.7" width="27.4687" height="27.4687" fill="#3E3E3E"/>
<rect x="597.105" y="1853.7" width="27.4687" height="27.4687" fill="#3E3E3E"/>
<rect x="641.578" y="1853.7" width="27.4687" height="27.4687" fill="#3E3E3E"/>
<rect x="686.051" y="1853.7" width="27.4687" height="27.4687" fill="#3E3E3E"/>
<rect x="730.523" y="1853.7" width="27.4687" height="27.4687" fill="#3E3E3E"/>
<rect x="775" y="1853.7" width="27.4687" height="27.4687" fill="#3E3E3E"/>
<rect x="819.473" y="1853.7" width="27.4687" height="27.4687" fill="#3E3E3E"/>
<rect x="863.945" y="1853.7" width="27.4687" height="27.4687" fill="#3E3E3E"/>
<rect x="552.633" y="1896.86" width="27.4687" height="27.4687" fill="#3E3E3E"/>
<rect x="597.105" y="1896.86" width="27.4687" height="27.4687" fill="#3E3E3E"/>
<rect x="641.578" y="1896.86" width="27.4687" height="27.4687" fill="#3E3E3E"/>
<rect x="686.051" y="1896.86" width="27.4687" height="27.4687" fill="#3E3E3E"/>
<rect x="730.523" y="1896.86" width="27.4687" height="27.4687" fill="#3E3E3E"/>
<rect x="775" y="1896.86" width="27.4687" height="27.4687" fill="#3E3E3E"/>
<rect x="819.473" y="1896.86" width="27.4687" height="27.4687" fill="#3E3E3E"/>
<rect x="863.945" y="1896.86" width="27.4687" height="27.4687" fill="#3E3E3E"/>
<rect x="1104.62" y="1594.71" width="27.4687" height="27.4687" fill="#3E3E3E"/>
<rect x="1149.1" y="1594.71" width="27.4687" height="27.4687" fill="#3E3E3E"/>
<rect x="1193.57" y="1594.71" width="27.4687" height="27.4687" fill="#3E3E3E"/>
<rect x="1238.04" y="1594.71" width="27.4687" height="27.4687" fill="#3E3E3E"/>
<rect x="1282.52" y="1594.71" width="27.4687" height="27.4687" fill="#3E3E3E"/>
<rect x="1326.99" y="1594.71" width="27.4687" height="27.4687" fill="#3E3E3E"/>
<rect x="1371.46" y="1594.71" width="27.4687" height="27.4687" fill="#3E3E3E"/>
<rect x="1415.94" y="1594.71" width="27.4687" height="27.4687" fill="#3E3E3E"/>
<rect x="1104.62" y="1637.87" width="27.4687" height="27.4687" fill="#3E3E3E"/>
<rect x="1149.1" y="1637.87" width="27.4687" height="27.4687" fill="#3E3E3E"/>
<rect x="1193.57" y="1637.87" width="27.4687" height="27.4687" fill="#3E3E3E"/>
<rect x="1238.04" y="1637.87" width="27.4687" height="27.4687" fill="#3E3E3E"/>
<rect x="1282.52" y="1637.87" width="27.4687" height="27.4687" fill="#3E3E3E"/>
<rect x="1326.99" y="1637.87" width="27.4687" height="27.4687" fill="#3E3E3E"/>
<rect x="1371.46" y="1637.87" width="27.4687" height="27.4687" fill="#3E3E3E"/>
<rect x="1415.94" y="1637.87" width="27.4687" height="27.4687" fill="#3E3E3E"/>
<rect x="1104.62" y="1681.04" width="27.4687" height="27.4687" fill="#3E3E3E"/>
<rect x="1149.1" y="1681.04" width="27.4687" height="27.4687" fill="#3E3E3E"/>
<rect x="1193.57" y="1681.04" width="27.4687" height="27.4687" fill="#3E3E3E"/>
<rect x="1238.04" y="1681.04" width="27.4687" height="27.4687" fill="#3E3E3E"/>
<rect x="1282.52" y="1681.04" width="27.4687" height="27.4687" fill="#3E3E3E"/>
<rect x="1326.99" y="1681.04" width="27.4687" height="27.4687" fill="#3E3E3E"/>
<rect x="1371.46" y="1681.04" width="27.4687" height="27.4687" fill="#3E3E3E"/>
<rect x="1415.94" y="1681.04" width="27.4687" height="27.4687" fill="#3E3E3E"/>
<rect x="1104.62" y="1724.2" width="27.4687" height="27.4687" fill="#3E3E3E"/>
<rect x="1149.1" y="1724.2" width="27.4687" height="27.4687" fill="#3E3E3E"/>
<rect x="1193.57" y="1724.2" width="27.4687" height="27.4687" fill="#3E3E3E"/>
<rect x="1238.04" y="1724.2" width="27.4687" height="27.4687" fill="#3E3E3E"/>
<rect x="1282.52" y="1724.2" width="27.4687" height="27.4687" fill="#3E3E3E"/>
<rect x="1326.99" y="1724.2" width="27.4687" height="27.4687" fill="#3E3E3E"/>
<rect x="1371.46" y="1724.2" width="27.4687" height="27.4687" fill="#3E3E3E"/>
<rect x="1415.94" y="1724.2" width="27.4687" height="27.4687" fill="#3E3E3E"/>
<rect x="1104.62" y="1767.37" width="27.4687" height="27.4687" fill="#3E3E3E"/>
<rect x="1149.1" y="1767.37" width="27.4687" height="27.4687" fill="#3E3E3E"/>
<rect x="1193.57" y="1767.37" width="27.4687" height="27.4687" fill="#3E3E3E"/>
<rect x="1238.04" y="1767.37" width="27.4687" height="27.4687" fill="#3E3E3E"/>
<rect x="1282.52" y="1767.37" width="27.4687" height="27.4687" fill="#3E3E3E"/>
<rect x="1326.99" y="1767.37" width="27.4687" height="27.4687" fill="#3E3E3E"/>
<rect x="1371.46" y="1767.37" width="27.4687" height="27.4687" fill="#3E3E3E"/>
<rect x="1415.94" y="1767.37" width="27.4687" height="27.4687" fill="#3E3E3E"/>
<rect x="1104.62" y="1810.53" width="27.4687" height="27.4687" fill="#3E3E3E"/>
<rect x="1149.1" y="1810.53" width="27.4687" height="27.4687" fill="#3E3E3E"/>
<rect x="1193.57" y="1810.53" width="27.4687" height="27.4687" fill="#3E3E3E"/>
<rect x="1238.04" y="1810.53" width="27.4687" height="27.4687" fill="#3E3E3E"/>
<rect x="1282.52" y="1810.53" width="27.4687" height="27.4687" fill="#3E3E3E"/>
<rect x="1326.99" y="1810.53" width="27.4687" height="27.4687" fill="#3E3E3E"/>
<rect x="1371.46" y="1810.53" width="27.4687" height="27.4687" fill="#3E3E3E"/>
<rect x="1415.94" y="1810.53" width="27.4687" height="27.4687" fill="#3E3E3E"/>
<rect x="1104.62" y="1853.7" width="27.4687" height="27.4687" fill="#3E3E3E"/>
<rect x="1149.1" y="1853.7" width="27.4687" height="27.4687" fill="#3E3E3E"/>
<rect x="1193.57" y="1853.7" width="27.4687" height="27.4687" fill="#3E3E3E"/>
<rect x="1238.04" y="1853.7" width="27.4687" height="27.4687" fill="#3E3E3E"/>
<rect x="1282.52" y="1853.7" width="27.4687" height="27.4687" fill="#3E3E3E"/>
<rect x="1326.99" y="1853.7" width="27.4687" height="27.4687" fill="#3E3E3E"/>
<rect x="1371.46" y="1853.7" width="27.4687" height="27.4687" fill="#3E3E3E"/>
<rect x="1415.94" y="1853.7" width="27.4687" height="27.4687" fill="#3E3E3E"/>
<rect x="1104.62" y="1896.86" width="27.4687" height="27.4687" fill="#3E3E3E"/>
<rect x="1149.1" y="1896.86" width="27.4687" height="27.4687" fill="#3E3E3E"/>
<rect x="1193.57" y="1896.86" width="27.4687" height="27.4687" fill="#3E3E3E"/>
<rect x="1238.04" y="1896.86" width="27.4687" height="27.4687" fill="#3E3E3E"/>
<rect x="1282.52" y="1896.86" width="27.4687" height="27.4687" fill="#3E3E3E"/>
<rect x="1326.99" y="1896.86" width="27.4687" height="27.4687" fill="#3E3E3E"/>
<rect x="1371.46" y="1896.86" width="27.4687" height="27.4687" fill="#3E3E3E"/>
<rect x="1415.94" y="1896.86" width="27.4687" height="27.4687" fill="#3E3E3E"/>
<rect x="1656.62" y="1594.71" width="27.4687" height="27.4687" fill="#3E3E3E"/>
<rect x="1701.09" y="1594.71" width="27.4687" height="27.4687" fill="#3E3E3E"/>
<rect x="1745.56" y="1594.71" width="27.4687" height="27.4687" fill="#3E3E3E"/>
<rect x="1790.04" y="1594.71" width="27.4687" height="27.4687" fill="#3E3E3E"/>
<rect x="1834.51" y="1594.71" width="27.4687" height="27.4687" fill="#3E3E3E"/>
<rect x="1878.98" y="1594.71" width="27.4687" height="27.4687" fill="#3E3E3E"/>
<rect x="1923.46" y="1594.71" width="27.4687" height="27.4687" fill="#3E3E3E"/>
<rect x="1967.93" y="1594.71" width="27.4687" height="27.4687" fill="#3E3E3E"/>
<rect x="1656.62" y="1637.87" width="27.4687" height="27.4687" fill="#3E3E3E"/>
<rect x="1701.09" y="1637.87" width="27.4687" height="27.4687" fill="#3E3E3E"/>
<rect x="1745.56" y="1637.87" width="27.4687" height="27.4687" fill="#3E3E3E"/>
<rect x="1790.04" y="1637.87" width="27.4687" height="27.4687" fill="#3E3E3E"/>
<rect x="1834.51" y="1637.87" width="27.4687" height="27.4687" fill="#3E3E3E"/>
<rect x="1878.98" y="1637.87" width="27.4687" height="27.4687" fill="#3E3E3E"/>
<rect x="1923.46" y="1637.87" width="27.4687" height="27.4687" fill="#3E3E3E"/>
<rect x="1967.93" y="1637.87" width="27.4687" height="27.4687" fill="#3E3E3E"/>
<rect x="1656.62" y="1681.04" width="27.4687" height="27.4687" fill="#3E3E3E"/>
<rect x="1701.09" y="1681.04" width="27.4687" height="27.4687" fill="#3E3E3E"/>
<rect x="1745.56" y="1681.04" width="27.4687" height="27.4687" fill="#3E3E3E"/>
<rect x="1790.04" y="1681.04" width="27.4687" height="27.4687" fill="#3E3E3E"/>
<rect x="1834.51" y="1681.04" width="27.4687" height="27.4687" fill="#3E3E3E"/>
<rect x="1878.98" y="1681.04" width="27.4687" height="27.4687" fill="#3E3E3E"/>
<rect x="1923.46" y="1681.04" width="27.4687" height="27.4687" fill="#3E3E3E"/>
<rect x="1967.93" y="1681.04" width="27.4687" height="27.4687" fill="#3E3E3E"/>
<rect x="1656.62" y="1724.2" width="27.4687" height="27.4687" fill="#3E3E3E"/>
<rect x="1701.09" y="1724.2" width="27.4687" height="27.4687" fill="#3E3E3E"/>
<rect x="1745.56" y="1724.2" width="27.4687" height="27.4687" fill="#3E3E3E"/>
<rect x="1790.04" y="1724.2" width="27.4687" height="27.4687" fill="#3E3E3E"/>
<rect x="1834.51" y="1724.2" width="27.4687" height="27.4687" fill="#3E3E3E"/>
<rect x="1878.98" y="1724.2" width="27.4687" height="27.4687" fill="#3E3E3E"/>
<rect x="1923.46" y="1724.2" width="27.4687" height="27.4687" fill="#3E3E3E"/>
<rect x="1967.93" y="1724.2" width="27.4687" height="27.4687" fill="#3E3E3E"/>
<rect x="1656.62" y="1767.37" width="27.4687" height="27.4687" fill="#3E3E3E"/>
<rect x="1701.09" y="1767.37" width="27.4687" height="27.4687" fill="#3E3E3E"/>
<rect x="1745.56" y="1767.37" width="27.4687" height="27.4687" fill="#3E3E3E"/>
<rect x="1790.04" y="1767.37" width="27.4687" height="27.4687" fill="#3E3E3E"/>
<rect x="1834.51" y="1767.37" width="27.4687" height="27.4687" fill="#3E3E3E"/>
<rect x="1878.98" y="1767.37" width="27.4687" height="27.4687" fill="#3E3E3E"/>
<rect x="1923.46" y="1767.37" width="27.4687" height="27.4687" fill="#3E3E3E"/>
<rect x="1967.93" y="1767.37" width="27.4687" height="27.4687" fill="#3E3E3E"/>
<rect x="1656.62" y="1810.53" width="27.4687" height="27.4687" fill="#3E3E3E"/>
<rect x="1701.09" y="1810.53" width="27.4687" height="27.4687" fill="#3E3E3E"/>
<rect x="1745.56" y="1810.53" width="27.4687" height="27.4687" fill="#3E3E3E"/>
<rect x="1790.04" y="1810.53" width="27.4687" height="27.4687" fill="#3E3E3E"/>
<rect x="1834.51" y="1810.53" width="27.4687" height="27.4687" fill="#3E3E3E"/>
<rect x="1878.98" y="1810.53" width="27.4687" height="27.4687" fill="#3E3E3E"/>
<rect x="1923.46" y="1810.53" width="27.4687" height="27.4687" fill="#3E3E3E"/>
<rect x="1967.93" y="1810.53" width="27.4687" height="27.4687" fill="#3E3E3E"/>
<rect x="1656.62" y="1853.7" width="27.4687" height="27.4687" fill="#3E3E3E"/>
<rect x="1701.09" y="1853.7" width="27.4687" height="27.4687" fill="#3E3E3E"/>
<rect x="1745.56" y="1853.7" width="27.4687" height="27.4687" fill="#3E3E3E"/>
<rect x="1790.04" y="1853.7" width="27.4687" height="27.4687" fill="#3E3E3E"/>
<rect x="1834.51" y="1853.7" width="27.4687" height="27.4687" fill="#3E3E3E"/>
<rect x="1878.98" y="1853.7" width="27.4687" height="27.4687" fill="#3E3E3E"/>
<rect x="1923.46" y="1853.7" width="27.4687" height="27.4687" fill="#3E3E3E"/>
<rect x="1967.93" y="1853.7" width="27.4687" height="27.4687" fill="#3E3E3E"/>
<rect x="1656.62" y="1896.86" width="27.4687" height="27.4687" fill="#3E3E3E"/>
<rect x="1701.09" y="1896.86" width="27.4687" height="27.4687" fill="#3E3E3E"/>
<rect x="1745.56" y="1896.86" width="27.4687" height="27.4687" fill="#3E3E3E"/>
<rect x="1790.04" y="1896.86" width="27.4687" height="27.4687" fill="#3E3E3E"/>
<rect x="1834.51" y="1896.86" width="27.4687" height="27.4687" fill="#3E3E3E"/>
<rect x="1878.98" y="1896.86" width="27.4687" height="27.4687" fill="#3E3E3E"/>
<rect x="1923.46" y="1896.86" width="27.4687" height="27.4687" fill="#3E3E3E"/>
<rect x="1967.93" y="1896.86" width="27.4687" height="27.4687" fill="#3E3E3E"/>
<rect x="0.644531" y="2125.77" width="27.4687" height="27.4687" fill="#3E3E3E"/>
<rect x="45.1172" y="2125.77" width="27.4687" height="27.4687" fill="#3E3E3E"/>
<rect x="89.5898" y="2125.77" width="27.4687" height="27.4687" fill="#3E3E3E"/>
<rect x="134.062" y="2125.77" width="27.4687" height="27.4687" fill="#3E3E3E"/>
<rect x="178.539" y="2125.77" width="27.4687" height="27.4687" fill="#3E3E3E"/>
<rect x="223.012" y="2125.77" width="27.4687" height="27.4687" fill="#3E3E3E"/>
<rect x="267.484" y="2125.77" width="27.4687" height="27.4687" fill="#3E3E3E"/>
<rect x="311.957" y="2125.77" width="27.4687" height="27.4687" fill="#3E3E3E"/>
<rect x="0.644531" y="2168.93" width="27.4687" height="27.4687" fill="#3E3E3E"/>
<rect x="45.1172" y="2168.93" width="27.4687" height="27.4687" fill="#3E3E3E"/>
<rect x="89.5898" y="2168.93" width="27.4687" height="27.4687" fill="#3E3E3E"/>
<rect x="134.062" y="2168.93" width="27.4687" height="27.4687" fill="#3E3E3E"/>
<rect x="178.539" y="2168.93" width="27.4687" height="27.4687" fill="#3E3E3E"/>
<rect x="223.012" y="2168.93" width="27.4687" height="27.4687" fill="#3E3E3E"/>
<rect x="267.484" y="2168.93" width="27.4687" height="27.4687" fill="#3E3E3E"/>
<rect x="311.957" y="2168.93" width="27.4687" height="27.4687" fill="#3E3E3E"/>
<rect x="0.644531" y="2212.1" width="27.4687" height="27.4687" fill="#3E3E3E"/>
<rect x="45.1172" y="2212.1" width="27.4687" height="27.4687" fill="#3E3E3E"/>
<rect x="89.5898" y="2212.1" width="27.4687" height="27.4687" fill="#3E3E3E"/>
<rect x="134.062" y="2212.1" width="27.4687" height="27.4687" fill="#3E3E3E"/>
<rect x="178.539" y="2212.1" width="27.4687" height="27.4687" fill="#3E3E3E"/>
<rect x="223.012" y="2212.1" width="27.4687" height="27.4687" fill="#3E3E3E"/>
<rect x="267.484" y="2212.1" width="27.4687" height="27.4687" fill="#3E3E3E"/>
<rect x="311.957" y="2212.1" width="27.4687" height="27.4687" fill="#3E3E3E"/>
<rect x="0.644531" y="2255.26" width="27.4687" height="27.4687" fill="#3E3E3E"/>
<rect x="45.1172" y="2255.26" width="27.4687" height="27.4687" fill="#3E3E3E"/>
<rect x="89.5898" y="2255.26" width="27.4687" height="27.4687" fill="#3E3E3E"/>
<rect x="134.062" y="2255.26" width="27.4687" height="27.4687" fill="#3E3E3E"/>
<rect x="178.539" y="2255.26" width="27.4687" height="27.4687" fill="#3E3E3E"/>
<rect x="223.012" y="2255.26" width="27.4687" height="27.4687" fill="#3E3E3E"/>
<rect x="267.484" y="2255.26" width="27.4687" height="27.4687" fill="#3E3E3E"/>
<rect x="311.957" y="2255.26" width="27.4687" height="27.4687" fill="#3E3E3E"/>
<rect x="0.644531" y="2298.43" width="27.4687" height="27.4687" fill="#3E3E3E"/>
<rect x="45.1172" y="2298.43" width="27.4687" height="27.4687" fill="#3E3E3E"/>
<rect x="89.5898" y="2298.43" width="27.4687" height="27.4687" fill="#3E3E3E"/>
<rect x="134.062" y="2298.43" width="27.4687" height="27.4687" fill="#3E3E3E"/>
<rect x="178.539" y="2298.43" width="27.4687" height="27.4687" fill="#3E3E3E"/>
<rect x="223.012" y="2298.43" width="27.4687" height="27.4687" fill="#3E3E3E"/>
<rect x="267.484" y="2298.43" width="27.4687" height="27.4687" fill="#3E3E3E"/>
<rect x="311.957" y="2298.43" width="27.4687" height="27.4687" fill="#3E3E3E"/>
<rect x="0.644531" y="2341.59" width="27.4687" height="27.4687" fill="#3E3E3E"/>
<rect x="45.1172" y="2341.59" width="27.4687" height="27.4687" fill="#3E3E3E"/>
<rect x="89.5898" y="2341.59" width="27.4687" height="27.4687" fill="#3E3E3E"/>
<rect x="134.062" y="2341.59" width="27.4687" height="27.4687" fill="#3E3E3E"/>
<rect x="178.539" y="2341.59" width="27.4687" height="27.4687" fill="#3E3E3E"/>
<rect x="223.012" y="2341.59" width="27.4687" height="27.4687" fill="#3E3E3E"/>
<rect x="267.484" y="2341.59" width="27.4687" height="27.4687" fill="#3E3E3E"/>
<rect x="311.957" y="2341.59" width="27.4687" height="27.4687" fill="#3E3E3E"/>
<rect x="0.644531" y="2384.76" width="27.4687" height="27.4687" fill="#3E3E3E"/>
<rect x="45.1172" y="2384.76" width="27.4687" height="27.4687" fill="#3E3E3E"/>
<rect x="89.5898" y="2384.76" width="27.4687" height="27.4687" fill="#3E3E3E"/>
<rect x="134.062" y="2384.76" width="27.4687" height="27.4687" fill="#3E3E3E"/>
<rect x="178.539" y="2384.76" width="27.4687" height="27.4687" fill="#3E3E3E"/>
<rect x="223.012" y="2384.76" width="27.4687" height="27.4687" fill="#3E3E3E"/>
<rect x="267.484" y="2384.76" width="27.4687" height="27.4687" fill="#3E3E3E"/>
<rect x="311.957" y="2384.76" width="27.4687" height="27.4687" fill="#3E3E3E"/>
<rect x="0.644531" y="2427.92" width="27.4687" height="27.4687" fill="#3E3E3E"/>
<rect x="45.1172" y="2427.92" width="27.4687" height="27.4687" fill="#3E3E3E"/>
<rect x="89.5898" y="2427.92" width="27.4687" height="27.4687" fill="#3E3E3E"/>
<rect x="134.062" y="2427.92" width="27.4687" height="27.4687" fill="#3E3E3E"/>
<rect x="178.539" y="2427.92" width="27.4687" height="27.4687" fill="#3E3E3E"/>
<rect x="223.012" y="2427.92" width="27.4687" height="27.4687" fill="#3E3E3E"/>
<rect x="267.484" y="2427.92" width="27.4687" height="27.4687" fill="#3E3E3E"/>
<rect x="311.957" y="2427.92" width="27.4687" height="27.4687" fill="#3E3E3E"/>
<rect x="552.633" y="2125.77" width="27.4687" height="27.4687" fill="#3E3E3E"/>
<rect x="597.105" y="2125.77" width="27.4687" height="27.4687" fill="#3E3E3E"/>
<rect x="641.578" y="2125.77" width="27.4687" height="27.4687" fill="#3E3E3E"/>
<rect x="686.051" y="2125.77" width="27.4687" height="27.4687" fill="#3E3E3E"/>
<rect x="730.523" y="2125.77" width="27.4687" height="27.4687" fill="#3E3E3E"/>
<rect x="775" y="2125.77" width="27.4687" height="27.4687" fill="#3E3E3E"/>
<rect x="819.473" y="2125.77" width="27.4687" height="27.4687" fill="#3E3E3E"/>
<rect x="863.945" y="2125.77" width="27.4687" height="27.4687" fill="#3E3E3E"/>
<rect x="552.633" y="2168.93" width="27.4687" height="27.4687" fill="#3E3E3E"/>
<rect x="597.105" y="2168.93" width="27.4687" height="27.4687" fill="#3E3E3E"/>
<rect x="641.578" y="2168.93" width="27.4687" height="27.4687" fill="#3E3E3E"/>
<rect x="686.051" y="2168.93" width="27.4687" height="27.4687" fill="#3E3E3E"/>
<rect x="730.523" y="2168.93" width="27.4687" height="27.4687" fill="#3E3E3E"/>
<rect x="775" y="2168.93" width="27.4687" height="27.4687" fill="#3E3E3E"/>
<rect x="819.473" y="2168.93" width="27.4687" height="27.4687" fill="#3E3E3E"/>
<rect x="863.945" y="2168.93" width="27.4687" height="27.4687" fill="#3E3E3E"/>
<rect x="552.633" y="2212.1" width="27.4687" height="27.4687" fill="#3E3E3E"/>
<rect x="597.105" y="2212.1" width="27.4687" height="27.4687" fill="#3E3E3E"/>
<rect x="641.578" y="2212.1" width="27.4687" height="27.4687" fill="#3E3E3E"/>
<rect x="686.051" y="2212.1" width="27.4687" height="27.4687" fill="#3E3E3E"/>
<rect x="730.523" y="2212.1" width="27.4687" height="27.4687" fill="#3E3E3E"/>
<rect x="775" y="2212.1" width="27.4687" height="27.4687" fill="#3E3E3E"/>
<rect x="819.473" y="2212.1" width="27.4687" height="27.4687" fill="#3E3E3E"/>
<rect x="863.945" y="2212.1" width="27.4687" height="27.4687" fill="#3E3E3E"/>
<rect x="552.633" y="2255.26" width="27.4687" height="27.4687" fill="#3E3E3E"/>
<rect x="597.105" y="2255.26" width="27.4687" height="27.4687" fill="#3E3E3E"/>
<rect x="641.578" y="2255.26" width="27.4687" height="27.4687" fill="#3E3E3E"/>
<rect x="686.051" y="2255.26" width="27.4687" height="27.4687" fill="#3E3E3E"/>
<rect x="730.523" y="2255.26" width="27.4687" height="27.4687" fill="#3E3E3E"/>
<rect x="775" y="2255.26" width="27.4687" height="27.4687" fill="#3E3E3E"/>
<rect x="819.473" y="2255.26" width="27.4687" height="27.4687" fill="#3E3E3E"/>
<rect x="863.945" y="2255.26" width="27.4687" height="27.4687" fill="#3E3E3E"/>
<rect x="552.633" y="2298.43" width="27.4687" height="27.4687" fill="#3E3E3E"/>
<rect x="597.105" y="2298.43" width="27.4687" height="27.4687" fill="#3E3E3E"/>
<rect x="641.578" y="2298.43" width="27.4687" height="27.4687" fill="#3E3E3E"/>
<rect x="686.051" y="2298.43" width="27.4687" height="27.4687" fill="#3E3E3E"/>
<rect x="730.523" y="2298.43" width="27.4687" height="27.4687" fill="#3E3E3E"/>
<rect x="775" y="2298.43" width="27.4687" height="27.4687" fill="#3E3E3E"/>
<rect x="819.473" y="2298.43" width="27.4687" height="27.4687" fill="#3E3E3E"/>
<rect x="863.945" y="2298.43" width="27.4687" height="27.4687" fill="#3E3E3E"/>
<rect x="552.633" y="2341.59" width="27.4687" height="27.4687" fill="#3E3E3E"/>
<rect x="597.105" y="2341.59" width="27.4687" height="27.4687" fill="#3E3E3E"/>
<rect x="641.578" y="2341.59" width="27.4687" height="27.4687" fill="#3E3E3E"/>
<rect x="686.051" y="2341.59" width="27.4687" height="27.4687" fill="#3E3E3E"/>
<rect x="730.523" y="2341.59" width="27.4687" height="27.4687" fill="#3E3E3E"/>
<rect x="775" y="2341.59" width="27.4687" height="27.4687" fill="#3E3E3E"/>
<rect x="819.473" y="2341.59" width="27.4687" height="27.4687" fill="#3E3E3E"/>
<rect x="863.945" y="2341.59" width="27.4687" height="27.4687" fill="#3E3E3E"/>
<rect x="552.633" y="2384.76" width="27.4687" height="27.4687" fill="#3E3E3E"/>
<rect x="597.105" y="2384.76" width="27.4687" height="27.4687" fill="#3E3E3E"/>
<rect x="641.578" y="2384.76" width="27.4687" height="27.4687" fill="#3E3E3E"/>
<rect x="686.051" y="2384.76" width="27.4687" height="27.4687" fill="#3E3E3E"/>
<rect x="730.523" y="2384.76" width="27.4687" height="27.4687" fill="#3E3E3E"/>
<rect x="775" y="2384.76" width="27.4687" height="27.4687" fill="#3E3E3E"/>
<rect x="819.473" y="2384.76" width="27.4687" height="27.4687" fill="#3E3E3E"/>
<rect x="863.945" y="2384.76" width="27.4687" height="27.4687" fill="#3E3E3E"/>
<rect x="552.633" y="2427.92" width="27.4687" height="27.4687" fill="#3E3E3E"/>
<rect x="597.105" y="2427.92" width="27.4687" height="27.4687" fill="#3E3E3E"/>
<rect x="641.578" y="2427.92" width="27.4687" height="27.4687" fill="#3E3E3E"/>
<rect x="686.051" y="2427.92" width="27.4687" height="27.4687" fill="#3E3E3E"/>
<rect x="730.523" y="2427.92" width="27.4687" height="27.4687" fill="#3E3E3E"/>
<rect x="775" y="2427.92" width="27.4687" height="27.4687" fill="#3E3E3E"/>
<rect x="819.473" y="2427.92" width="27.4687" height="27.4687" fill="#3E3E3E"/>
<rect x="863.945" y="2427.92" width="27.4687" height="27.4687" fill="#3E3E3E"/>
<rect x="1104.62" y="2125.77" width="27.4687" height="27.4687" fill="#3E3E3E"/>
<rect x="1149.1" y="2125.77" width="27.4687" height="27.4687" fill="#3E3E3E"/>
<rect x="1193.57" y="2125.77" width="27.4687" height="27.4687" fill="#3E3E3E"/>
<rect x="1238.04" y="2125.77" width="27.4687" height="27.4687" fill="#3E3E3E"/>
<rect x="1282.52" y="2125.77" width="27.4687" height="27.4687" fill="#3E3E3E"/>
<rect x="1326.99" y="2125.77" width="27.4687" height="27.4687" fill="#3E3E3E"/>
<rect x="1371.46" y="2125.77" width="27.4687" height="27.4687" fill="#3E3E3E"/>
<rect x="1415.94" y="2125.77" width="27.4687" height="27.4687" fill="#3E3E3E"/>
<rect x="1104.62" y="2168.93" width="27.4687" height="27.4687" fill="#3E3E3E"/>
<rect x="1149.1" y="2168.93" width="27.4687" height="27.4687" fill="#3E3E3E"/>
<rect x="1193.57" y="2168.93" width="27.4687" height="27.4687" fill="#3E3E3E"/>
<rect x="1238.04" y="2168.93" width="27.4687" height="27.4687" fill="#3E3E3E"/>
<rect x="1282.52" y="2168.93" width="27.4687" height="27.4687" fill="#3E3E3E"/>
<rect x="1326.99" y="2168.93" width="27.4687" height="27.4687" fill="#3E3E3E"/>
<rect x="1371.46" y="2168.93" width="27.4687" height="27.4687" fill="#3E3E3E"/>
<rect x="1415.94" y="2168.93" width="27.4687" height="27.4687" fill="#3E3E3E"/>
<rect x="1104.62" y="2212.1" width="27.4687" height="27.4687" fill="#3E3E3E"/>
<rect x="1149.1" y="2212.1" width="27.4687" height="27.4687" fill="#3E3E3E"/>
<rect x="1193.57" y="2212.1" width="27.4687" height="27.4687" fill="#3E3E3E"/>
<rect x="1238.04" y="2212.1" width="27.4687" height="27.4687" fill="#3E3E3E"/>
<rect x="1282.52" y="2212.1" width="27.4687" height="27.4687" fill="#3E3E3E"/>
<rect x="1326.99" y="2212.1" width="27.4687" height="27.4687" fill="#3E3E3E"/>
<rect x="1371.46" y="2212.1" width="27.4687" height="27.4687" fill="#3E3E3E"/>
<rect x="1415.94" y="2212.1" width="27.4687" height="27.4687" fill="#3E3E3E"/>
<rect x="1104.62" y="2255.26" width="27.4687" height="27.4687" fill="#3E3E3E"/>
<rect x="1149.1" y="2255.26" width="27.4687" height="27.4687" fill="#3E3E3E"/>
<rect x="1193.57" y="2255.26" width="27.4687" height="27.4687" fill="#3E3E3E"/>
<rect x="1238.04" y="2255.26" width="27.4687" height="27.4687" fill="#3E3E3E"/>
<rect x="1282.52" y="2255.26" width="27.4687" height="27.4687" fill="#3E3E3E"/>
<rect x="1326.99" y="2255.26" width="27.4687" height="27.4687" fill="#3E3E3E"/>
<rect x="1371.46" y="2255.26" width="27.4687" height="27.4687" fill="#3E3E3E"/>
<rect x="1415.94" y="2255.26" width="27.4687" height="27.4687" fill="#3E3E3E"/>
<rect x="1104.62" y="2298.43" width="27.4687" height="27.4687" fill="#3E3E3E"/>
<rect x="1149.1" y="2298.43" width="27.4687" height="27.4687" fill="#3E3E3E"/>
<rect x="1193.57" y="2298.43" width="27.4687" height="27.4687" fill="#3E3E3E"/>
<rect x="1238.04" y="2298.43" width="27.4687" height="27.4687" fill="#3E3E3E"/>
<rect x="1282.52" y="2298.43" width="27.4687" height="27.4687" fill="#3E3E3E"/>
<rect x="1326.99" y="2298.43" width="27.4687" height="27.4687" fill="#3E3E3E"/>
<rect x="1371.46" y="2298.43" width="27.4687" height="27.4687" fill="#3E3E3E"/>
<rect x="1415.94" y="2298.43" width="27.4687" height="27.4687" fill="#3E3E3E"/>
<rect x="1104.62" y="2341.59" width="27.4687" height="27.4687" fill="#3E3E3E"/>
<rect x="1149.1" y="2341.59" width="27.4687" height="27.4687" fill="#3E3E3E"/>
<rect x="1193.57" y="2341.59" width="27.4687" height="27.4687" fill="#3E3E3E"/>
<rect x="1238.04" y="2341.59" width="27.4687" height="27.4687" fill="#3E3E3E"/>
<rect x="1282.52" y="2341.59" width="27.4687" height="27.4687" fill="#3E3E3E"/>
<rect x="1326.99" y="2341.59" width="27.4687" height="27.4687" fill="#3E3E3E"/>
<rect x="1371.46" y="2341.59" width="27.4687" height="27.4687" fill="#3E3E3E"/>
<rect x="1415.94" y="2341.59" width="27.4687" height="27.4687" fill="#3E3E3E"/>
<rect x="1104.62" y="2384.76" width="27.4687" height="27.4687" fill="#3E3E3E"/>
<rect x="1149.1" y="2384.76" width="27.4687" height="27.4687" fill="#3E3E3E"/>
<rect x="1193.57" y="2384.76" width="27.4687" height="27.4687" fill="#3E3E3E"/>
<rect x="1238.04" y="2384.76" width="27.4687" height="27.4687" fill="#3E3E3E"/>
<rect x="1282.52" y="2384.76" width="27.4687" height="27.4687" fill="#3E3E3E"/>
<rect x="1326.99" y="2384.76" width="27.4687" height="27.4687" fill="#3E3E3E"/>
<rect x="1371.46" y="2384.76" width="27.4687" height="27.4687" fill="#3E3E3E"/>
<rect x="1415.94" y="2384.76" width="27.4687" height="27.4687" fill="#3E3E3E"/>
<rect x="1104.62" y="2427.92" width="27.4687" height="27.4687" fill="#3E3E3E"/>
<rect x="1149.1" y="2427.92" width="27.4687" height="27.4687" fill="#3E3E3E"/>
<rect x="1193.57" y="2427.92" width="27.4687" height="27.4687" fill="#3E3E3E"/>
<rect x="1238.04" y="2427.92" width="27.4687" height="27.4687" fill="#3E3E3E"/>
<rect x="1282.52" y="2427.92" width="27.4687" height="27.4687" fill="#3E3E3E"/>
<rect x="1326.99" y="2427.92" width="27.4687" height="27.4687" fill="#3E3E3E"/>
<rect x="1371.46" y="2427.92" width="27.4687" height="27.4687" fill="#3E3E3E"/>
<rect x="1415.94" y="2427.92" width="27.4687" height="27.4687" fill="#3E3E3E"/>
<rect x="1656.62" y="2125.77" width="27.4687" height="27.4687" fill="#3E3E3E"/>
<rect x="1701.09" y="2125.77" width="27.4687" height="27.4687" fill="#3E3E3E"/>
<rect x="1745.56" y="2125.77" width="27.4687" height="27.4687" fill="#3E3E3E"/>
<rect x="1790.04" y="2125.77" width="27.4687" height="27.4687" fill="#3E3E3E"/>
<rect x="1834.51" y="2125.77" width="27.4687" height="27.4687" fill="#3E3E3E"/>
<rect x="1878.98" y="2125.77" width="27.4687" height="27.4687" fill="#3E3E3E"/>
<rect x="1923.46" y="2125.77" width="27.4687" height="27.4687" fill="#3E3E3E"/>
<rect x="1967.93" y="2125.77" width="27.4687" height="27.4687" fill="#3E3E3E"/>
<rect x="1656.62" y="2168.93" width="27.4687" height="27.4687" fill="#3E3E3E"/>
<rect x="1701.09" y="2168.93" width="27.4687" height="27.4687" fill="#3E3E3E"/>
<rect x="1745.56" y="2168.93" width="27.4687" height="27.4687" fill="#3E3E3E"/>
<rect x="1790.04" y="2168.93" width="27.4687" height="27.4687" fill="#3E3E3E"/>
<rect x="1834.51" y="2168.93" width="27.4687" height="27.4687" fill="#3E3E3E"/>
<rect x="1878.98" y="2168.93" width="27.4687" height="27.4687" fill="#3E3E3E"/>
<rect x="1923.46" y="2168.93" width="27.4687" height="27.4687" fill="#3E3E3E"/>
<rect x="1967.93" y="2168.93" width="27.4687" height="27.4687" fill="#3E3E3E"/>
<rect x="1656.62" y="2212.1" width="27.4687" height="27.4687" fill="#3E3E3E"/>
<rect x="1701.09" y="2212.1" width="27.4687" height="27.4687" fill="#3E3E3E"/>
<rect x="1745.56" y="2212.1" width="27.4687" height="27.4687" fill="#3E3E3E"/>
<rect x="1790.04" y="2212.1" width="27.4687" height="27.4687" fill="#3E3E3E"/>
<rect x="1834.51" y="2212.1" width="27.4687" height="27.4687" fill="#3E3E3E"/>
<rect x="1878.98" y="2212.1" width="27.4687" height="27.4687" fill="#3E3E3E"/>
<rect x="1923.46" y="2212.1" width="27.4687" height="27.4687" fill="#3E3E3E"/>
<rect x="1967.93" y="2212.1" width="27.4687" height="27.4687" fill="#3E3E3E"/>
<rect x="1656.62" y="2255.26" width="27.4687" height="27.4687" fill="#3E3E3E"/>
<rect x="1701.09" y="2255.26" width="27.4687" height="27.4687" fill="#3E3E3E"/>
<rect x="1745.56" y="2255.26" width="27.4687" height="27.4687" fill="#3E3E3E"/>
<rect x="1790.04" y="2255.26" width="27.4687" height="27.4687" fill="#3E3E3E"/>
<rect x="1834.51" y="2255.26" width="27.4687" height="27.4687" fill="#3E3E3E"/>
<rect x="1878.98" y="2255.26" width="27.4687" height="27.4687" fill="#3E3E3E"/>
<rect x="1923.46" y="2255.26" width="27.4687" height="27.4687" fill="#3E3E3E"/>
<rect x="1967.93" y="2255.26" width="27.4687" height="27.4687" fill="#3E3E3E"/>
<rect x="1656.62" y="2298.43" width="27.4687" height="27.4687" fill="#3E3E3E"/>
<rect x="1701.09" y="2298.43" width="27.4687" height="27.4687" fill="#3E3E3E"/>
<rect x="1745.56" y="2298.43" width="27.4687" height="27.4687" fill="#3E3E3E"/>
<rect x="1790.04" y="2298.43" width="27.4687" height="27.4687" fill="#3E3E3E"/>
<rect x="1834.51" y="2298.43" width="27.4687" height="27.4687" fill="#3E3E3E"/>
<rect x="1878.98" y="2298.43" width="27.4687" height="27.4687" fill="#3E3E3E"/>
<rect x="1923.46" y="2298.43" width="27.4687" height="27.4687" fill="#3E3E3E"/>
<rect x="1967.93" y="2298.43" width="27.4687" height="27.4687" fill="#3E3E3E"/>
<rect x="1656.62" y="2341.59" width="27.4687" height="27.4687" fill="#3E3E3E"/>
<rect x="1701.09" y="2341.59" width="27.4687" height="27.4687" fill="#3E3E3E"/>
<rect x="1745.56" y="2341.59" width="27.4687" height="27.4687" fill="#3E3E3E"/>
<rect x="1790.04" y="2341.59" width="27.4687" height="27.4687" fill="#3E3E3E"/>
<rect x="1834.51" y="2341.59" width="27.4687" height="27.4687" fill="#3E3E3E"/>
<rect x="1878.98" y="2341.59" width="27.4687" height="27.4687" fill="#3E3E3E"/>
<rect x="1923.46" y="2341.59" width="27.4687" height="27.4687" fill="#3E3E3E"/>
<rect x="1967.93" y="2341.59" width="27.4687" height="27.4687" fill="#3E3E3E"/>
<rect x="1656.62" y="2384.76" width="27.4687" height="27.4687" fill="#3E3E3E"/>
<rect x="1701.09" y="2384.76" width="27.4687" height="27.4687" fill="#3E3E3E"/>
<rect x="1745.56" y="2384.76" width="27.4687" height="27.4687" fill="#3E3E3E"/>
<rect x="1790.04" y="2384.76" width="27.4687" height="27.4687" fill="#3E3E3E"/>
<rect x="1834.51" y="2384.76" width="27.4687" height="27.4687" fill="#3E3E3E"/>
<rect x="1878.98" y="2384.76" width="27.4687" height="27.4687" fill="#3E3E3E"/>
<rect x="1923.46" y="2384.76" width="27.4687" height="27.4687" fill="#3E3E3E"/>
<rect x="1967.93" y="2384.76" width="27.4687" height="27.4687" fill="#3E3E3E"/>
<rect x="1656.62" y="2427.92" width="27.4687" height="27.4687" fill="#3E3E3E"/>
<rect x="1701.09" y="2427.92" width="27.4687" height="27.4687" fill="#3E3E3E"/>
<rect x="1745.56" y="2427.92" width="27.4687" height="27.4687" fill="#3E3E3E"/>
<rect x="1790.04" y="2427.92" width="27.4687" height="27.4687" fill="#3E3E3E"/>
<rect x="1834.51" y="2427.92" width="27.4687" height="27.4687" fill="#3E3E3E"/>
<rect x="1878.98" y="2427.92" width="27.4687" height="27.4687" fill="#3E3E3E"/>
<rect x="1923.46" y="2427.92" width="27.4687" height="27.4687" fill="#3E3E3E"/>
<rect x="1967.93" y="2427.92" width="27.4687" height="27.4687" fill="#3E3E3E"/>
<defs>
<filter id="filter0_d_984_9250" x="1466.13" y="0.699219" width="1144.72" height="1149.68" filterUnits="userSpaceOnUse" color-interpolation-filters="sRGB">
<feFlood flood-opacity="0" result="BackgroundImageFix"/>
<feColorMatrix in="SourceAlpha" type="matrix" values="0 0 0 0 0 0 0 0 0 0 0 0 0 0 0 0 0 0 127 0" result="hardAlpha"/>
<feOffset/>
<feGaussianBlur stdDeviation="177.649"/>
<feComposite in2="hardAlpha" operator="out"/>
<feColorMatrix type="matrix" values="0 0 0 0 0.0980392 0 0 0 0 1 0 0 0 0 0.0784314 0 0 0 1 0"/>
<feBlend mode="normal" in2="BackgroundImageFix" result="effect1_dropShadow_984_9250"/>
<feBlend mode="normal" in="SourceGraphic" in2="effect1_dropShadow_984_9250" result="shape"/>
</filter>
</defs>
</svg>
