<svg width="999" height="195" viewBox="0 0 999 195" fill="none" xmlns="http://www.w3.org/2000/svg">
<path d="M0 32.6178V0.352774H13.8279V32.6178H0ZM13.3579 32.6178V0.352774H27.1858V32.6178H13.3579ZM36.3263 32.6178H34.5286V15.5865H25.8171V13.7889H36.3263V32.6178ZM32.731 32.6178H30.9334V19.1817H25.8171V17.3841H32.731V32.6178ZM66.7897 32.6178V0.352774H80.6176V32.6178H66.7897ZM80.1477 32.6178V0.352774H93.9755V32.6178H80.1477ZM103.116 32.6178H101.318V15.5865H92.6068V13.7889H103.116V32.6178ZM99.5207 32.6178H97.7231V19.1817H92.6068V17.3841H99.5207V32.6178ZM106.864 32.6178V0.352774H120.691V32.6178H106.864ZM120.221 32.6178V0.352774H134.049V32.6178H120.221ZM133.579 32.6178V0.352774H147.407V32.6178H133.579ZM146.937 32.6178V0.352774H160.765V32.6178H146.937ZM160.295 32.6178V0.352774H174.123V32.6178H160.295ZM173.653 32.6178V0.352774H187.481V32.6178H173.653ZM187.011 32.6178V0.352774H200.839V32.6178H187.011ZM209.98 32.6178H208.182V15.5865H199.47V13.7889H209.98V32.6178ZM206.384 32.6178H204.587V19.1817H199.47V17.3841H206.384V32.6178ZM213.727 32.6178V0.352774H227.555V32.6178H213.727ZM227.085 32.6178V0.352774H240.913V32.6178H227.085ZM240.443 32.6178V0.352774H254.271V32.6178H240.443ZM263.411 32.6178H261.614V15.5865H252.902V13.7889H263.411V32.6178ZM259.816 32.6178H258.018V19.1817H252.902V17.3841H259.816V32.6178ZM307.233 32.6178V0.352774H321.061V32.6178H307.233ZM320.591 32.6178V0.352774H334.418V32.6178H320.591ZM343.559 32.6178H341.761V15.5865H333.05V13.7889H343.559V32.6178ZM339.964 32.6178H338.166V19.1817H333.05V17.3841H339.964V32.6178ZM347.306 32.6178V0.352774H361.134V32.6178H347.306ZM360.664 32.6178V0.352774H374.492V32.6178H360.664ZM374.022 32.6178V0.352774H387.85V32.6178H374.022ZM387.38 32.6178V0.352774H401.208V32.6178H387.38ZM400.738 32.6178V0.352774H414.566V32.6178H400.738ZM414.096 32.6178V0.352774H427.924V32.6178H414.096ZM437.065 32.6178H435.267V15.5865H426.555V13.7889H437.065V32.6178ZM433.469 32.6178H431.672V19.1817H426.555V17.3841H433.469V32.6178ZM454.17 32.6178V0.352774H467.998V32.6178H454.17ZM467.528 32.6178V0.352774H481.356V32.6178H467.528ZM490.496 32.6178H488.699V15.5865H479.987V13.7889H490.496V32.6178ZM486.901 32.6178H485.103V19.1817H479.987V17.3841H486.901V32.6178ZM574.392 32.6178V0.352774H588.219V32.6178H574.392ZM587.749 32.6178V0.352774H601.577V32.6178H587.749ZM601.107 32.6178V0.352774H614.935V32.6178H601.107ZM614.465 32.6178V0.352774H628.293V32.6178H614.465ZM627.823 32.6178V0.352774H641.651V32.6178H627.823ZM641.181 32.6178V0.352774H655.009V32.6178H641.181ZM664.15 32.6178H662.352V15.5865H653.64V13.7889H664.15V32.6178ZM660.554 32.6178H658.757V19.1817H653.64V17.3841H660.554V32.6178ZM694.613 32.6178V0.352774H708.441V32.6178H694.613ZM707.971 32.6178V0.352774H721.799V32.6178H707.971ZM721.329 32.6178V0.352774H735.157V32.6178H721.329ZM734.687 32.6178V0.352774H748.515V32.6178H734.687ZM748.045 32.6178V0.352774H761.873V32.6178H748.045ZM761.403 32.6178V0.352774H775.231V32.6178H761.403ZM784.371 32.6178H782.573V15.5865H773.862V13.7889H784.371V32.6178ZM780.776 32.6178H778.978V19.1817H773.862V17.3841H780.776V32.6178ZM788.119 32.6178V0.352774H801.946V32.6178H788.119ZM801.477 32.6178V0.352774H815.304V32.6178H801.477ZM824.445 32.6178H822.647V15.5865H813.936V13.7889H824.445V32.6178ZM820.85 32.6178H819.052V19.1817H813.936V17.3841H820.85V32.6178ZM854.908 32.6178V0.352774H868.736V32.6178H854.908ZM868.266 32.6178V0.352774H882.094V32.6178H868.266ZM891.235 32.6178H889.437V15.5865H880.725V13.7889H891.235V32.6178ZM887.639 32.6178H885.842V19.1817H880.725V17.3841H887.639V32.6178ZM894.982 32.6178V0.352774H908.81V32.6178H894.982ZM908.34 32.6178V0.352774H922.168V32.6178H908.34ZM921.698 32.6178V0.352774H935.526V32.6178H921.698ZM935.056 32.6178V0.352774H948.884V32.6178H935.056ZM948.414 32.6178V0.352774H962.242V32.6178H948.414ZM961.772 32.6178V0.352774H975.6V32.6178H961.772ZM975.13 32.6178V0.352774H988.958V32.6178H975.13ZM998.098 32.6178H996.3V15.5865H987.589V13.7889H998.098V32.6178ZM994.503 32.6178H992.705V19.1817H987.589V17.3841H994.503V32.6178ZM7.81275 50.5865V35.3528H9.61037V48.7889H14.7267V50.5865H7.81275ZM4.2175 54.1817V35.3528H6.01513V52.3841H14.7267V54.1817H4.2175ZM13.3579 67.6178V35.3528H27.1858V67.6178H13.3579ZM26.7159 67.6178V35.3528H40.5438V67.6178H26.7159ZM49.6842 67.6178H47.8866V50.5865H39.175V48.7889H49.6842V67.6178ZM46.089 67.6178H44.2913V54.1817H39.175V52.3841H46.089V67.6178ZM53.4318 67.6178V35.3528H67.2596V67.6178H53.4318ZM66.7897 67.6178V35.3528H80.6176V67.6178H66.7897ZM94.8743 50.5865H86.1628V67.6178H84.3652V48.7889H94.8743V50.5865ZM94.8743 54.1817H89.758V67.6178H87.9604V52.3841H94.8743V54.1817ZM99.5207 50.5865H92.6068V48.7889H97.7231V35.3528H99.5207V50.5865ZM103.116 54.1817H92.6068V52.3841H101.318V35.3528H103.116V54.1817ZM106.864 67.6178V35.3528H120.691V67.6178H106.864ZM120.221 67.6178V35.3528H134.049V67.6178H120.221ZM148.306 50.5865H139.595V67.6178H137.797V48.7889H148.306V50.5865ZM148.306 54.1817H143.19V67.6178H141.392V52.3841H148.306V54.1817ZM146.039 50.5865V48.7889H161.664V50.5865H146.039ZM146.039 54.1817V52.3841H161.664V54.1817H146.039ZM159.396 50.5865V48.7889H175.022V50.5865H159.396ZM159.396 54.1817V52.3841H175.022V54.1817H159.396ZM172.754 50.5865V48.7889H188.38V50.5865H172.754ZM172.754 54.1817V52.3841H188.38V54.1817H172.754ZM186.112 50.5865V48.7889H201.738V50.5865H186.112ZM186.112 54.1817V52.3841H201.738V54.1817H186.112ZM206.384 50.5865H199.47V48.7889H204.587V35.3528H206.384V50.5865ZM209.98 54.1817H199.47V52.3841H208.182V35.3528H209.98V54.1817ZM213.727 67.6178V35.3528H227.555V67.6178H213.727ZM227.085 67.6178V35.3528H240.913V67.6178H227.085ZM240.443 67.6178V35.3528H254.271V67.6178H240.443ZM253.801 67.6178V35.3528H267.629V67.6178H253.801ZM276.769 67.6178H274.972V50.5865H266.26V48.7889H276.769V67.6178ZM273.174 67.6178H271.376V54.1817H266.26V52.3841H273.174V67.6178ZM307.233 67.6178V35.3528H321.061V67.6178H307.233ZM320.591 67.6178V35.3528H334.418V67.6178H320.591ZM341.761 67.6178V35.3528H343.559V67.6178H341.761ZM338.166 67.6178V35.3528H339.964V67.6178H338.166ZM347.306 67.6178V35.3528H361.134V67.6178H347.306ZM360.664 67.6178V35.3528H374.492V67.6178H360.664ZM388.749 50.5865H380.038V67.6178H378.24V48.7889H388.749V50.5865ZM388.749 54.1817H383.633V67.6178H381.835V52.3841H388.749V54.1817ZM386.482 50.5865V48.7889H402.107V50.5865H386.482ZM386.482 54.1817V52.3841H402.107V54.1817H386.482ZM399.839 50.5865V48.7889H415.465V50.5865H399.839ZM399.839 54.1817V52.3841H415.465V54.1817H399.839ZM414.096 67.6178V35.3528H427.924V67.6178H414.096ZM427.454 67.6178V35.3528H441.282V67.6178H427.454ZM450.422 67.6178H448.625V50.5865H439.913V48.7889H450.422V67.6178ZM446.827 67.6178H445.03V54.1817H439.913V52.3841H446.827V67.6178ZM454.17 67.6178V35.3528H467.998V67.6178H454.17ZM467.528 67.6178V35.3528H481.356V67.6178H467.528ZM488.699 67.6178V35.3528H490.496V67.6178H488.699ZM485.103 67.6178V35.3528H486.901V67.6178H485.103ZM561.034 67.6178V35.3528H574.861V67.6178H561.034ZM574.392 67.6178V35.3528H588.219V67.6178H574.392ZM602.476 50.5865H593.765V67.6178H591.967V48.7889H602.476V50.5865ZM602.476 54.1817H597.36V67.6178H595.562V52.3841H602.476V54.1817ZM600.209 50.5865V48.7889H615.834V50.5865H600.209ZM600.209 54.1817V52.3841H615.834V54.1817H600.209ZM613.567 50.5865V48.7889H629.192V50.5865H613.567ZM613.567 54.1817V52.3841H629.192V54.1817H613.567ZM626.924 50.5865V48.7889H642.55V50.5865H626.924ZM626.924 54.1817V52.3841H642.55V54.1817H626.924ZM641.181 67.6178V35.3528H655.009V67.6178H641.181ZM654.539 67.6178V35.3528H668.367V67.6178H654.539ZM677.507 67.6178H675.71V50.5865H666.998V48.7889H677.507V67.6178ZM673.912 67.6178H672.115V54.1817H666.998V52.3841H673.912V67.6178ZM681.255 67.6178V35.3528H695.083V67.6178H681.255ZM694.613 67.6178V35.3528H708.441V67.6178H694.613ZM722.698 50.5865H713.986V67.6178H712.188V48.7889H722.698V50.5865ZM722.698 54.1817H717.581V67.6178H715.784V52.3841H722.698V54.1817ZM720.43 50.5865V48.7889H736.056V50.5865H720.43ZM720.43 54.1817V52.3841H736.056V54.1817H720.43ZM733.788 50.5865V48.7889H749.414V50.5865H733.788ZM733.788 54.1817V52.3841H749.414V54.1817H733.788ZM747.146 50.5865V48.7889H762.771V50.5865H747.146ZM747.146 54.1817V52.3841H762.771V54.1817H747.146ZM760.504 50.5865V48.7889H776.129V50.5865H760.504ZM760.504 54.1817V52.3841H776.129V54.1817H760.504ZM780.776 50.5865H773.862V48.7889H778.978V35.3528H780.776V50.5865ZM784.371 54.1817H773.862V52.3841H782.573V35.3528H784.371V54.1817ZM788.119 67.6178V35.3528H801.946V67.6178H788.119ZM801.477 67.6178V35.3528H815.304V67.6178H801.477ZM822.647 67.6178V35.3528H824.445V67.6178H822.647ZM819.052 67.6178V35.3528H820.85V67.6178H819.052ZM841.55 67.6178V35.3528H855.378V67.6178H841.55ZM854.908 67.6178V35.3528H868.736V67.6178H854.908ZM882.993 50.5865H874.281V67.6178H872.484V48.7889H882.993V50.5865ZM882.993 54.1817H877.877V67.6178H876.079V52.3841H882.993V54.1817ZM887.639 50.5865H880.725V48.7889H885.842V35.3528H887.639V50.5865ZM891.235 54.1817H880.725V52.3841H889.437V35.3528H891.235V54.1817ZM894.982 67.6178V35.3528H908.81V67.6178H894.982ZM908.34 67.6178V35.3528H922.168V67.6178H908.34ZM936.425 50.5865H927.713V67.6178H925.916V48.7889H936.425V50.5865ZM936.425 54.1817H931.308V67.6178H929.511V52.3841H936.425V54.1817ZM934.157 50.5865V48.7889H949.783V50.5865H934.157ZM934.157 54.1817V52.3841H949.783V54.1817H934.157ZM947.515 50.5865V48.7889H963.141V50.5865H947.515ZM947.515 54.1817V52.3841H963.141V54.1817H947.515ZM960.873 50.5865V48.7889H976.499V50.5865H960.873ZM960.873 54.1817V52.3841H976.499V54.1817H960.873ZM974.231 50.5865V48.7889H989.856V50.5865H974.231ZM974.231 54.1817V52.3841H989.856V54.1817H974.231ZM994.503 50.5865H987.589V48.7889H992.705V35.3528H994.503V50.5865ZM998.098 54.1817H987.589V52.3841H996.3V35.3528H998.098V54.1817ZM21.1707 85.5865V70.3528H22.9683V83.7889H28.0846V85.5865H21.1707ZM17.5754 89.1817V70.3528H19.3731V87.3841H28.0846V89.1817H17.5754ZM26.7159 102.618V70.3528H40.5438V102.618H26.7159ZM40.0738 102.618V70.3528H53.9017V102.618H40.0738ZM53.4318 102.618V70.3528H67.2596V102.618H53.4318ZM81.5164 85.5865H72.8048V102.618H71.0072V83.7889H81.5164V85.5865ZM81.5164 89.1817H76.4001V102.618H74.6025V87.3841H81.5164V89.1817ZM86.1628 85.5865H79.2488V83.7889H84.3652V70.3528H86.1628V85.5865ZM89.758 89.1817H79.2488V87.3841H87.9604V70.3528H89.758V89.1817ZM106.864 102.618V70.3528H120.691V102.618H106.864ZM120.221 102.618V70.3528H134.049V102.618H120.221ZM133.579 102.618V70.3528H147.407V102.618H133.579ZM146.937 102.618V70.3528H160.765V102.618H146.937ZM160.295 102.618V70.3528H174.123V102.618H160.295ZM183.264 102.618H181.466V85.5865H172.754V83.7889H183.264V102.618ZM179.668 102.618H177.871V89.1817H172.754V87.3841H179.668V102.618ZM213.727 102.618V70.3528H227.555V102.618H213.727ZM227.085 102.618V70.3528H240.913V102.618H227.085ZM255.17 85.5865H246.458V102.618H244.66V83.7889H255.17V85.5865ZM255.17 89.1817H250.053V102.618H248.256V87.3841H255.17V89.1817ZM253.801 102.618V70.3528H267.629V102.618H253.801ZM267.159 102.618V70.3528H280.987V102.618H267.159ZM290.127 102.618H288.33V85.5865H279.618V83.7889H290.127V102.618ZM286.532 102.618H284.734V89.1817H279.618V87.3841H286.532V102.618ZM307.233 102.618V70.3528H321.061V102.618H307.233ZM320.591 102.618V70.3528H334.418V102.618H320.591ZM341.761 102.618V70.3528H343.559V102.618H341.761ZM338.166 102.618V70.3528H339.964V102.618H338.166ZM347.306 102.618V70.3528H361.134V102.618H347.306ZM360.664 102.618V70.3528H374.492V102.618H360.664ZM374.022 102.618V70.3528H387.85V102.618H374.022ZM387.38 102.618V70.3528H401.208V102.618H387.38ZM400.738 102.618V70.3528H414.566V102.618H400.738ZM414.096 102.618V70.3528H427.924V102.618H414.096ZM442.181 85.5865H433.469V102.618H431.672V83.7889H442.181V85.5865ZM442.181 89.1817H437.065V102.618H435.267V87.3841H442.181V89.1817ZM446.827 85.5865H439.913V83.7889H445.03V70.3528H446.827V85.5865ZM450.422 89.1817H439.913V87.3841H448.625V70.3528H450.422V89.1817ZM454.17 102.618V70.3528H467.998V102.618H454.17ZM467.528 102.618V70.3528H481.356V102.618H467.528ZM488.699 102.618V70.3528H490.496V102.618H488.699ZM485.103 102.618V70.3528H486.901V102.618H485.103ZM561.034 102.618V70.3528H574.861V102.618H561.034ZM574.392 102.618V70.3528H588.219V102.618H574.392ZM595.562 102.618V70.3528H597.36V102.618H595.562ZM591.967 102.618V70.3528H593.765V102.618H591.967ZM641.181 102.618V70.3528H655.009V102.618H641.181ZM654.539 102.618V70.3528H668.367V102.618H654.539ZM675.71 102.618V70.3528H677.507V102.618H675.71ZM672.115 102.618V70.3528H673.912V102.618H672.115ZM681.255 102.618V70.3528H695.083V102.618H681.255ZM694.613 102.618V70.3528H708.441V102.618H694.613ZM715.784 102.618V70.3528H717.581V102.618H715.784ZM712.188 102.618V70.3528H713.986V102.618H712.188ZM788.119 102.618V70.3528H801.946V102.618H788.119ZM801.477 102.618V70.3528H815.304V102.618H801.477ZM814.834 102.618V70.3528H828.662V102.618H814.834ZM828.192 102.618V70.3528H842.02V102.618H828.192ZM841.55 102.618V70.3528H855.378V102.618H841.55ZM869.635 85.5865H860.923V102.618H859.126V83.7889H869.635V85.5865ZM869.635 89.1817H864.519V102.618H862.721V87.3841H869.635V89.1817ZM874.281 85.5865H867.367V83.7889H872.484V70.3528H874.281V85.5865ZM877.877 89.1817H867.367V87.3841H876.079V70.3528H877.877V89.1817ZM894.982 102.618V70.3528H908.81V102.618H894.982ZM908.34 102.618V70.3528H922.168V102.618H908.34ZM921.698 102.618V70.3528H935.526V102.618H921.698ZM935.056 102.618V70.3528H948.884V102.618H935.056ZM948.414 102.618V70.3528H962.242V102.618H948.414ZM961.772 102.618V70.3528H975.6V102.618H961.772ZM975.13 102.618V70.3528H988.958V102.618H975.13ZM998.098 102.618H996.3V85.5865H987.589V83.7889H998.098V102.618ZM994.503 102.618H992.705V89.1817H987.589V87.3841H994.503V102.618ZM13.3579 137.618V105.353H27.1858V137.618H13.3579ZM26.7159 137.618V105.353H40.5438V137.618H26.7159ZM54.8005 120.586H46.089V137.618H44.2913V118.789H54.8005V120.586ZM54.8005 124.182H49.6842V137.618H47.8866V122.384H54.8005V124.182ZM53.4318 137.618V105.353H67.2596V137.618H53.4318ZM66.7897 137.618V105.353H80.6176V137.618H66.7897ZM89.758 137.618H87.9604V120.586H79.2488V118.789H89.758V137.618ZM86.1628 137.618H84.3652V124.182H79.2488V122.384H86.1628V137.618ZM106.864 137.618V105.353H120.691V137.618H106.864ZM120.221 137.618V105.353H134.049V137.618H120.221ZM148.306 120.586H139.595V137.618H137.797V118.789H148.306V120.586ZM148.306 124.182H143.19V137.618H141.392V122.384H148.306V124.182ZM146.039 120.586V118.789H161.664V120.586H146.039ZM146.039 124.182V122.384H161.664V124.182H146.039ZM159.396 120.586V118.789H175.022V120.586H159.396ZM159.396 124.182V122.384H175.022V124.182H159.396ZM179.668 120.586H172.754V118.789H177.871V105.353H179.668V120.586ZM183.264 124.182H172.754V122.384H181.466V105.353H183.264V124.182ZM213.727 137.618V105.353H227.555V137.618H213.727ZM227.085 137.618V105.353H240.913V137.618H227.085ZM248.256 137.618V105.353H250.053V137.618H248.256ZM244.66 137.618V105.353H246.458V137.618H244.66ZM261.614 120.586V105.353H263.411V118.789H268.528V120.586H261.614ZM258.018 124.182V105.353H259.816V122.384H268.528V124.182H258.018ZM267.159 137.618V105.353H280.987V137.618H267.159ZM280.517 137.618V105.353H294.345V137.618H280.517ZM303.485 137.618H301.687V120.586H292.976V118.789H303.485V137.618ZM299.89 137.618H298.092V124.182H292.976V122.384H299.89V137.618ZM307.233 137.618V105.353H321.061V137.618H307.233ZM320.591 137.618V105.353H334.418V137.618H320.591ZM341.761 137.618V105.353H343.559V137.618H341.761ZM338.166 137.618V105.353H339.964V137.618H338.166ZM347.306 137.618V105.353H361.134V137.618H347.306ZM360.664 137.618V105.353H374.492V137.618H360.664ZM388.749 120.586H380.038V137.618H378.24V118.789H388.749V120.586ZM388.749 124.182H383.633V137.618H381.835V122.384H388.749V124.182ZM386.482 120.586V118.789H402.107V120.586H386.482ZM386.482 124.182V122.384H402.107V124.182H386.482ZM399.839 120.586V118.789H415.465V120.586H399.839ZM399.839 124.182V122.384H415.465V124.182H399.839ZM414.096 137.618V105.353H427.924V137.618H414.096ZM427.454 137.618V105.353H441.282V137.618H427.454ZM450.422 137.618H448.625V120.586H439.913V118.789H450.422V137.618ZM446.827 137.618H445.03V124.182H439.913V122.384H446.827V137.618ZM454.17 137.618V105.353H467.998V137.618H454.17ZM467.528 137.618V105.353H481.356V137.618H467.528ZM488.699 137.618V105.353H490.496V137.618H488.699ZM485.103 137.618V105.353H486.901V137.618H485.103ZM561.034 137.618V105.353H574.861V137.618H561.034ZM574.392 137.618V105.353H588.219V137.618H574.392ZM595.562 137.618V105.353H597.36V137.618H595.562ZM591.967 137.618V105.353H593.765V137.618H591.967ZM641.181 137.618V105.353H655.009V137.618H641.181ZM654.539 137.618V105.353H668.367V137.618H654.539ZM675.71 137.618V105.353H677.507V137.618H675.71ZM672.115 137.618V105.353H673.912V137.618H672.115ZM681.255 137.618V105.353H695.083V137.618H681.255ZM694.613 137.618V105.353H708.441V137.618H694.613ZM715.784 137.618V105.353H717.581V137.618H715.784ZM712.188 137.618V105.353H713.986V137.618H712.188ZM788.119 137.618V105.353H801.946V137.618H788.119ZM801.477 137.618V105.353H815.304V137.618H801.477ZM829.561 120.586H820.85V137.618H819.052V118.789H829.561V120.586ZM829.561 124.182H824.445V137.618H822.647V122.384H829.561V124.182ZM827.294 120.586V118.789H842.919V120.586H827.294ZM827.294 124.182V122.384H842.919V124.182H827.294ZM841.55 137.618V105.353H855.378V137.618H841.55ZM854.908 137.618V105.353H868.736V137.618H854.908ZM877.877 137.618H876.079V120.586H867.367V118.789H877.877V137.618ZM874.281 137.618H872.484V124.182H867.367V122.384H874.281V137.618ZM902.795 120.586V105.353H904.592V118.789H909.709V120.586H902.795ZM899.2 124.182V105.353H900.997V122.384H909.709V124.182H899.2ZM907.441 120.586V118.789H923.067V120.586H907.441ZM907.441 124.182V122.384H923.067V124.182H907.441ZM920.799 120.586V118.789H936.425V120.586H920.799ZM920.799 124.182V122.384H936.425V124.182H920.799ZM934.157 120.586V118.789H949.783V120.586H934.157ZM934.157 124.182V122.384H949.783V124.182H934.157ZM947.515 120.586V118.789H963.141V120.586H947.515ZM947.515 124.182V122.384H963.141V124.182H947.515ZM961.772 137.618V105.353H975.6V137.618H961.772ZM975.13 137.618V105.353H988.958V137.618H975.13ZM996.3 137.618V105.353H998.098V137.618H996.3ZM992.705 137.618V105.353H994.503V137.618H992.705ZM0 172.618V140.353H13.8279V172.618H0ZM13.3579 172.618V140.353H27.1858V172.618H13.3579ZM41.4426 155.586H32.731V172.618H30.9334V153.789H41.4426V155.586ZM41.4426 159.182H36.3263V172.618H34.5286V157.384H41.4426V159.182ZM46.089 155.586H39.175V153.789H44.2913V140.353H46.089V155.586ZM49.6842 159.182H39.175V157.384H47.8866V140.353H49.6842V159.182ZM66.7897 172.618V140.353H80.6176V172.618H66.7897ZM80.1477 172.618V140.353H93.9755V172.618H80.1477ZM103.116 172.618H101.318V155.586H92.6068V153.789H103.116V172.618ZM99.5207 172.618H97.7231V159.182H92.6068V157.384H99.5207V172.618ZM106.864 172.618V140.353H120.691V172.618H106.864ZM120.221 172.618V140.353H134.049V172.618H120.221ZM133.579 172.618V140.353H147.407V172.618H133.579ZM146.937 172.618V140.353H160.765V172.618H146.937ZM160.295 172.618V140.353H174.123V172.618H160.295ZM173.653 172.618V140.353H187.481V172.618H173.653ZM187.011 172.618V140.353H200.839V172.618H187.011ZM209.98 172.618H208.182V155.586H199.47V153.789H209.98V172.618ZM206.384 172.618H204.587V159.182H199.47V157.384H206.384V172.618ZM213.727 172.618V140.353H227.555V172.618H213.727ZM227.085 172.618V140.353H240.913V172.618H227.085ZM248.256 172.618V140.353H250.053V172.618H248.256ZM244.66 172.618V140.353H246.458V172.618H244.66ZM274.972 155.586V140.353H276.769V153.789H281.886V155.586H274.972ZM271.376 159.182V140.353H273.174V157.384H281.886V159.182H271.376ZM280.517 172.618V140.353H294.345V172.618H280.517ZM293.875 172.618V140.353H307.703V172.618H293.875ZM307.233 172.618V140.353H321.061V172.618H307.233ZM320.591 172.618V140.353H334.418V172.618H320.591ZM341.761 172.618V140.353H343.559V172.618H341.761ZM338.166 172.618V140.353H339.964V172.618H338.166ZM347.306 172.618V140.353H361.134V172.618H347.306ZM360.664 172.618V140.353H374.492V172.618H360.664ZM374.022 172.618V140.353H387.85V172.618H374.022ZM387.38 172.618V140.353H401.208V172.618H387.38ZM400.738 172.618V140.353H414.566V172.618H400.738ZM414.096 172.618V140.353H427.924V172.618H414.096ZM442.181 155.586H433.469V172.618H431.672V153.789H442.181V155.586ZM442.181 159.182H437.065V172.618H435.267V157.384H442.181V159.182ZM446.827 155.586H439.913V153.789H445.03V140.353H446.827V155.586ZM450.422 159.182H439.913V157.384H448.625V140.353H450.422V159.182ZM454.17 172.618V140.353H467.998V172.618H454.17ZM467.528 172.618V140.353H481.356V172.618H467.528ZM480.886 172.618V140.353H494.714V172.618H480.886ZM494.244 172.618V140.353H508.072V172.618H494.244ZM507.602 172.618V140.353H521.43V172.618H507.602ZM520.96 172.618V140.353H534.788V172.618H520.96ZM534.318 172.618V140.353H548.146V172.618H534.318ZM557.286 172.618H555.488V155.586H546.777V153.789H557.286V172.618ZM553.691 172.618H551.893V159.182H546.777V157.384H553.691V172.618ZM568.846 155.586V140.353H570.644V153.789H575.76V155.586H568.846ZM565.251 159.182V140.353H567.049V157.384H575.76V159.182H565.251ZM574.392 172.618V140.353H588.219V172.618H574.392ZM587.749 172.618V140.353H601.577V172.618H587.749ZM601.107 172.618V140.353H614.935V172.618H601.107ZM614.465 172.618V140.353H628.293V172.618H614.465ZM627.823 172.618V140.353H641.651V172.618H627.823ZM641.181 172.618V140.353H655.009V172.618H641.181ZM669.266 155.586H660.554V172.618H658.757V153.789H669.266V155.586ZM669.266 159.182H664.15V172.618H662.352V157.384H669.266V159.182ZM673.912 155.586H666.998V153.789H672.115V140.353H673.912V155.586ZM677.507 159.182H666.998V157.384H675.71V140.353H677.507V159.182ZM689.068 155.586V140.353H690.865V153.789H695.982V155.586H689.068ZM685.473 159.182V140.353H687.27V157.384H695.982V159.182H685.473ZM694.613 172.618V140.353H708.441V172.618H694.613ZM707.971 172.618V140.353H721.799V172.618H707.971ZM721.329 172.618V140.353H735.157V172.618H721.329ZM734.687 172.618V140.353H748.515V172.618H734.687ZM748.045 172.618V140.353H761.873V172.618H748.045ZM761.403 172.618V140.353H775.231V172.618H761.403ZM784.371 172.618H782.573V155.586H773.862V153.789H784.371V172.618ZM780.776 172.618H778.978V159.182H773.862V157.384H780.776V172.618ZM788.119 172.618V140.353H801.946V172.618H788.119ZM801.477 172.618V140.353H815.304V172.618H801.477ZM822.647 172.618V140.353H824.445V172.618H822.647ZM819.052 172.618V140.353H820.85V172.618H819.052ZM854.908 172.618V140.353H868.736V172.618H854.908ZM868.266 172.618V140.353H882.094V172.618H868.266ZM891.235 172.618H889.437V155.586H880.725V153.789H891.235V172.618ZM887.639 172.618H885.842V159.182H880.725V157.384H887.639V172.618ZM894.982 172.618V140.353H908.81V172.618H894.982ZM908.34 172.618V140.353H922.168V172.618H908.34ZM921.698 172.618V140.353H935.526V172.618H921.698ZM935.056 172.618V140.353H948.884V172.618H935.056ZM948.414 172.618V140.353H962.242V172.618H948.414ZM961.772 172.618V140.353H975.6V172.618H961.772ZM975.13 172.618V140.353H988.958V172.618H975.13ZM996.3 172.618V140.353H998.098V172.618H996.3ZM992.705 172.618V140.353H994.503V172.618H992.705ZM7.81275 190.586V175.353H9.61037V188.789H14.7267V190.586H7.81275ZM4.2175 194.182V175.353H6.01513V192.384H14.7267V194.182H4.2175ZM12.4591 190.586V188.789H28.0846V190.586H12.4591ZM12.4591 194.182V192.384H28.0846V194.182H12.4591ZM32.731 190.586H25.8171V188.789H30.9334V175.353H32.731V190.586ZM36.3263 194.182H25.8171V192.384H34.5286V175.353H36.3263V194.182ZM74.6025 190.586V175.353H76.4001V188.789H81.5164V190.586H74.6025ZM71.0072 194.182V175.353H72.8048V192.384H81.5164V194.182H71.0072ZM79.2488 190.586V188.789H94.8743V190.586H79.2488ZM79.2488 194.182V192.384H94.8743V194.182H79.2488ZM99.5207 190.586H92.6068V188.789H97.7231V175.353H99.5207V190.586ZM103.116 194.182H92.6068V192.384H101.318V175.353H103.116V194.182ZM114.676 190.586V175.353H116.474V188.789H121.59V190.586H114.676ZM111.081 194.182V175.353H112.879V192.384H121.59V194.182H111.081ZM119.323 190.586V188.789H134.948V190.586H119.323ZM119.323 194.182V192.384H134.948V194.182H119.323ZM132.681 190.586V188.789H148.306V190.586H132.681ZM132.681 194.182V192.384H148.306V194.182H132.681ZM146.039 190.586V188.789H161.664V190.586H146.039ZM146.039 194.182V192.384H161.664V194.182H146.039ZM159.396 190.586V188.789H175.022V190.586H159.396ZM159.396 194.182V192.384H175.022V194.182H159.396ZM172.754 190.586V188.789H188.38V190.586H172.754ZM172.754 194.182V192.384H188.38V194.182H172.754ZM186.112 190.586V188.789H201.738V190.586H186.112ZM186.112 194.182V192.384H201.738V194.182H186.112ZM206.384 190.586H199.47V188.789H204.587V175.353H206.384V190.586ZM209.98 194.182H199.47V192.384H208.182V175.353H209.98V194.182ZM221.54 190.586V175.353H223.337V188.789H228.454V190.586H221.54ZM217.945 194.182V175.353H219.742V192.384H228.454V194.182H217.945ZM226.186 190.586V188.789H241.812V190.586H226.186ZM226.186 194.182V192.384H241.812V194.182H226.186ZM246.458 190.586H239.544V188.789H244.66V175.353H246.458V190.586ZM250.053 194.182H239.544V192.384H248.256V175.353H250.053V194.182ZM288.33 190.586V175.353H290.127V188.789H295.243V190.586H288.33ZM284.734 194.182V175.353H286.532V192.384H295.243V194.182H284.734ZM292.976 190.586V188.789H308.601V190.586H292.976ZM292.976 194.182V192.384H308.601V194.182H292.976ZM306.334 190.586V188.789H321.959V190.586H306.334ZM306.334 194.182V192.384H321.959V194.182H306.334ZM319.692 190.586V188.789H335.317V190.586H319.692ZM319.692 194.182V192.384H335.317V194.182H319.692ZM339.964 190.586H333.05V188.789H338.166V175.353H339.964V190.586ZM343.559 194.182H333.05V192.384H341.761V175.353H343.559V194.182ZM355.119 190.586V175.353H356.917V188.789H362.033V190.586H355.119ZM351.524 194.182V175.353H353.322V192.384H362.033V194.182H351.524ZM359.766 190.586V188.789H375.391V190.586H359.766ZM359.766 194.182V192.384H375.391V194.182H359.766ZM373.124 190.586V188.789H388.749V190.586H373.124ZM373.124 194.182V192.384H388.749V194.182H373.124ZM386.482 190.586V188.789H402.107V190.586H386.482ZM386.482 194.182V192.384H402.107V194.182H386.482ZM399.839 190.586V188.789H415.465V190.586H399.839ZM399.839 194.182V192.384H415.465V194.182H399.839ZM413.197 190.586V188.789H428.823V190.586H413.197ZM413.197 194.182V192.384H428.823V194.182H413.197ZM433.469 190.586H426.555V188.789H431.672V175.353H433.469V190.586ZM437.065 194.182H426.555V192.384H435.267V175.353H437.065V194.182ZM461.983 190.586V175.353H463.78V188.789H468.897V190.586H461.983ZM458.388 194.182V175.353H460.185V192.384H468.897V194.182H458.388ZM466.629 190.586V188.789H482.255V190.586H466.629ZM466.629 194.182V192.384H482.255V194.182H466.629ZM479.987 190.586V188.789H495.613V190.586H479.987ZM479.987 194.182V192.384H495.613V194.182H479.987ZM493.345 190.586V188.789H508.971V190.586H493.345ZM493.345 194.182V192.384H508.971V194.182H493.345ZM506.703 190.586V188.789H522.328V190.586H506.703ZM506.703 194.182V192.384H522.328V194.182H506.703ZM520.061 190.586V188.789H535.686V190.586H520.061ZM520.061 194.182V192.384H535.686V194.182H520.061ZM533.419 190.586V188.789H549.044V190.586H533.419ZM533.419 194.182V192.384H549.044V194.182H533.419ZM553.691 190.586H546.777V188.789H551.893V175.353H553.691V190.586ZM557.286 194.182H546.777V192.384H555.488V175.353H557.286V194.182ZM582.204 190.586V175.353H584.002V188.789H589.118V190.586H582.204ZM578.609 194.182V175.353H580.407V192.384H589.118V194.182H578.609ZM586.851 190.586V188.789H602.476V190.586H586.851ZM586.851 194.182V192.384H602.476V194.182H586.851ZM600.209 190.586V188.789H615.834V190.586H600.209ZM600.209 194.182V192.384H615.834V194.182H600.209ZM613.567 190.586V188.789H629.192V190.586H613.567ZM613.567 194.182V192.384H629.192V194.182H613.567ZM626.924 190.586V188.789H642.55V190.586H626.924ZM626.924 194.182V192.384H642.55V194.182H626.924ZM640.282 190.586V188.789H655.908V190.586H640.282ZM640.282 194.182V192.384H655.908V194.182H640.282ZM660.554 190.586H653.64V188.789H658.757V175.353H660.554V190.586ZM664.15 194.182H653.64V192.384H662.352V175.353H664.15V194.182ZM702.426 190.586V175.353H704.223V188.789H709.34V190.586H702.426ZM698.83 194.182V175.353H700.628V192.384H709.34V194.182H698.83ZM707.072 190.586V188.789H722.698V190.586H707.072ZM707.072 194.182V192.384H722.698V194.182H707.072ZM720.43 190.586V188.789H736.056V190.586H720.43ZM720.43 194.182V192.384H736.056V194.182H720.43ZM733.788 190.586V188.789H749.414V190.586H733.788ZM733.788 194.182V192.384H749.414V194.182H733.788ZM747.146 190.586V188.789H762.771V190.586H747.146ZM747.146 194.182V192.384H762.771V194.182H747.146ZM760.504 190.586V188.789H776.129V190.586H760.504ZM760.504 194.182V192.384H776.129V194.182H760.504ZM780.776 190.586H773.862V188.789H778.978V175.353H780.776V190.586ZM784.371 194.182H773.862V192.384H782.573V175.353H784.371V194.182ZM795.931 190.586V175.353H797.729V188.789H802.845V190.586H795.931ZM792.336 194.182V175.353H794.134V192.384H802.845V194.182H792.336ZM800.578 190.586V188.789H816.203V190.586H800.578ZM800.578 194.182V192.384H816.203V194.182H800.578ZM820.85 190.586H813.936V188.789H819.052V175.353H820.85V190.586ZM824.445 194.182H813.936V192.384H822.647V175.353H824.445V194.182ZM862.721 190.586V175.353H864.519V188.789H869.635V190.586H862.721ZM859.126 194.182V175.353H860.923V192.384H869.635V194.182H859.126ZM867.367 190.586V188.789H882.993V190.586H867.367ZM867.367 194.182V192.384H882.993V194.182H867.367ZM887.639 190.586H880.725V188.789H885.842V175.353H887.639V190.586ZM891.235 194.182H880.725V192.384H889.437V175.353H891.235V194.182ZM902.795 190.586V175.353H904.592V188.789H909.709V190.586H902.795ZM899.2 194.182V175.353H900.997V192.384H909.709V194.182H899.2ZM907.441 190.586V188.789H923.067V190.586H907.441ZM907.441 194.182V192.384H923.067V194.182H907.441ZM920.799 190.586V188.789H936.425V190.586H920.799ZM920.799 194.182V192.384H936.425V194.182H920.799ZM934.157 190.586V188.789H949.783V190.586H934.157ZM934.157 194.182V192.384H949.783V194.182H934.157ZM947.515 190.586V188.789H963.141V190.586H947.515ZM947.515 194.182V192.384H963.141V194.182H947.515ZM960.873 190.586V188.789H976.499V190.586H960.873ZM960.873 194.182V192.384H976.499V194.182H960.873ZM974.231 190.586V188.789H989.856V190.586H974.231ZM974.231 194.182V192.384H989.856V194.182H974.231ZM994.503 190.586H987.589V188.789H992.705V175.353H994.503V190.586ZM998.098 194.182H987.589V192.384H996.3V175.353H998.098V194.182Z" fill="#19FF14"/>
</svg>
